<?xml version="1.0" standalone="no"?>
<!DOCTYPE svg PUBLIC "-//W3C//DTD SVG 1.1//EN" "http://www.w3.org/Graphics/SVG/1.1/DTD/svg11.dtd" >
<svg xmlns="http://www.w3.org/2000/svg">
<metadata>
This is a custom SVG webfont generated by Font Squirrel.
Copyright   : Copyright c 2007 by DOUGLAS VITKAUSKAS All rights reserved
Designer    : DOUGLAS VITKAUSKAS
Foundry     : DOUGLAS VITKAUSKAS
</metadata>
<defs>
<font id="webfontg0M5Ku3A" horiz-adv-x="1139" >
<font-face units-per-em="2048" ascent="1638" descent="-410" />
<missing-glyph horiz-adv-x="569" />
<glyph unicode=" "  horiz-adv-x="569" />
<glyph unicode="&#x09;" horiz-adv-x="569" />
<glyph unicode="&#xa0;" horiz-adv-x="569" />
<glyph unicode="!" horiz-adv-x="569" />
<glyph unicode="&#x22;" horiz-adv-x="727" />
<glyph unicode="#" />
<glyph unicode="$" />
<glyph unicode="%" horiz-adv-x="1821" />
<glyph unicode="&#x26;" horiz-adv-x="1366" />
<glyph unicode="'" horiz-adv-x="391" />
<glyph unicode="(" horiz-adv-x="682" />
<glyph unicode=")" horiz-adv-x="682" />
<glyph unicode="*" horiz-adv-x="797" />
<glyph unicode="+" horiz-adv-x="1196" />
<glyph unicode="," horiz-adv-x="569" />
<glyph unicode="-" horiz-adv-x="682" />
<glyph unicode="." horiz-adv-x="569" />
<glyph unicode="/" horiz-adv-x="569" />
<glyph unicode="0" />
<glyph unicode="1" />
<glyph unicode="2" />
<glyph unicode="3" />
<glyph unicode="4" />
<glyph unicode="5" />
<glyph unicode="6" />
<glyph unicode="7" />
<glyph unicode="8" />
<glyph unicode="9" />
<glyph unicode=":" horiz-adv-x="569" />
<glyph unicode=";" horiz-adv-x="569" />
<glyph unicode="&#x37e;" horiz-adv-x="569" />
<glyph unicode="&#x3c;" horiz-adv-x="1196" />
<glyph unicode="=" horiz-adv-x="1196" />
<glyph unicode="&#x3e;" horiz-adv-x="1196" />
<glyph unicode="?" />
<glyph unicode="@" horiz-adv-x="2079" />
<glyph unicode="A" horiz-adv-x="998" d="M49 -258l75 551l177 1200q12 76 16 76h123v14l-3 13l3 2l-3 17v26l7 8h219q12 0 30 -153l258 -1678l-2 -3h-273q-11 0 -50 368h-163v-2l3 -67l-9 -7h-97l-46 -368l-16 -4h-244zM383 353h78l-4 73l6 7h133v14l-96 1029v7l-8 6q-26 -196 -42 -429v-56z" />
<glyph unicode="B" horiz-adv-x="1043" d="M90 -257v1820l8 7h315l6 7v76l7 8h84q163 0 305 -84q136 -104 136 -400q0 -298 -157 -381l-18 -7q79 -42 105 -80q56 -46 87 -209l10 -86l-4 -4l4 -16v-77l-4 -3l4 -3v-3q-13 -144 -44 -226q-54 -136 -189 -203q-148 -53 -296 -53h-13l-4 3h-2l-4 -10l4 -69 q-6 -15 -11 -15h-321zM366 -21h60l-3 17v66l7 6h23q177 0 215 117q14 41 27 129l-3 3l3 41v50l-3 22h3q-28 153 -46 153q-49 70 -193 70h-24l-6 -7v-76l-7 -6h-46l-7 -7v-578zM366 809h53v84l7 5h53q105 0 157 84q32 57 32 169v38q0 160 -79 206q-36 21 -96 30h-70v-84 l-7 -7h-50v-525z" />
<glyph unicode="C" horiz-adv-x="999" d="M74 452v694q0 176 57 359q60 149 177 204q86 39 148 39l3 -4v-96h73q195 0 316 -170q94 -135 94 -401v-84h-280v100q0 252 -76 293q-39 26 -76 26h-21l-30 -7l-3 4v93h-3q-51 -28 -77 -90q-19 -89 -19 -119v-978q10 -171 80 -205l3 -4q0 -6 16 -6l3 -4v-103q0 -9 47 -9 q98 0 136 112q20 68 20 203v126l7 7h266l7 -7v-102q0 -390 -204 -515q-99 -64 -238 -64h-33l-11 10v97h-6q-104 8 -197 70q-104 71 -149 272q-30 150 -30 259z" />
<glyph unicode="D" horiz-adv-x="998" d="M88 -260v1820l7 7h285v46l7 11q304 0 435 -134q56 -58 87 -199l13 -113v-964q-16 -155 -50 -219q-94 -206 -412 -206h-70l-6 -6v-43l-7 -8h-282zM364 -15l7 -6h9v46l10 10h66q68 7 124 54q31 39 53 123q10 76 10 178v702q0 220 -73 256q-57 36 -146 36h-40v-47 q0 -6 -17 -6l-3 -3v-1343z" />
<glyph unicode="E" horiz-adv-x="909" d="M87 -176v1804l10 9h259l7 -5v-64h442l6 -6v-240l-6 -6h-442v-498h346l5 -7v-243l-5 -7h-346v-574h482l10 -11v-232l-10 -9h-478l-7 5v67l-17 -3h-246q-10 3 -10 20z" />
<glyph unicode="F" horiz-adv-x="856" d="M86 -253v1816l7 7h262v83l7 8h475l7 -8v-236l-7 -6h-478v-499h346l5 -6v-246l-5 -7h-346v-910l-7 -8h-246q-17 0 -20 12z" />
<glyph unicode="G" horiz-adv-x="992" d="M71 403v767q0 206 83 389q71 117 199 160h7l6 -8v-89h7l54 7h106q78 0 182 -57q210 -129 210 -508v-60l-7 -6h-269l-6 6v93q0 229 -77 273q-40 23 -79 23h-21q-48 0 -96 -47h-4v20h-6l-10 -143v-910l3 -17h-3l16 -99v-166q42 -54 91 -54h63q65 22 93 77q30 65 30 223v165 l-4 17h-135l-8 7v215q4 11 21 11h398l10 -11v-910l-10 -9h-119q-8 1 -68 130h-5q-114 -151 -296 -151q-63 0 -63 13v107q-69 0 -177 103q-88 124 -109 330z" />
<glyph unicode="H" horiz-adv-x="943" d="M81 -167v1820l6 8h263l6 -8v-738l4 -17h20l6 -5v-84h196v6h4l-4 4v741l10 10h260l9 -10v-1817l-6 -8h-263l-10 12v790l4 16l-4 4h-192l-7 7v82h-20l-7 -6v-807l-6 -7h-263z" />
<glyph unicode="I" horiz-adv-x="444" d="M83 -266v1820l6 7h260l10 -11v-1812l-10 -11h-260z" />
<glyph unicode="J" horiz-adv-x="643" d="M6 46l11 11q45 -18 83 -18h39q77 0 120 86q26 99 26 207v1473l8 7h86l6 -7v-268l4 -19l3 3h166l14 -9v-1337q0 -403 -53 -487q-41 -124 -130 -173l-4 4v272q-92 -36 -182 -36h-43q-154 9 -154 25v266z" />
<glyph unicode="K" horiz-adv-x="1008" d="M82 -266v1820l7 7h262l7 -7v-741h3l279 741l10 7h256l7 -7l-276 -653l309 -1171l-3 -3h-270q-4 0 -42 149l-187 768q-7 -4 -86 -180v-730l-7 -7h-262z" />
<glyph unicode="L" horiz-adv-x="802" d="M80 -127v1821l6 5h94l6 -5v-120h110l7 -7v-1568h488l7 -7v-246l-7 -5h-601l-8 5v120h-96z" />
<glyph unicode="M" horiz-adv-x="1189" d="M61 -340v1821l7 7h342q10 0 66 -366q47 -247 63 -368v-177l14 -166h3q0 122 53 449q20 73 169 894l7 22l4 4h331l7 -6v-1821l-7 -7h-219l-3 3h-3l-3 117v541l13 582h3l-3 4q10 228 23 351h-7l-242 -1299l-61 -299h-79v-186h-7v13l-259 1492h-3v-10q23 -558 23 -1597 l-3 -4h-222z" />
<glyph unicode="N" horiz-adv-x="986" d="M63 -116v1821l7 6h253q9 0 63 -203l89 -312v-584h-6l-222 784h-4v-11l13 -122h-4l4 -10q53 -861 53 -1246v-123l-6 -7h-233zM479 356l4 578h5l157 -545l83 -293h4v11q-60 683 -60 1055v290l6 7h236l7 -7v-1821l-7 -6h-220q-10 0 -56 179z" />
<glyph unicode="O" horiz-adv-x="994" d="M61 304v645q0 444 194 574q101 61 236 61h8l6 -7v-107h14q200 0 315 -159q99 -159 99 -506v-564q0 -500 -198 -612q-106 -63 -210 -63h-17l-5 7v107h-4q-307 0 -392 279q-46 162 -46 345zM342 144q3 -77 37 -162q51 -60 94 -60h26l6 -6v-110q46 0 94 42q52 74 52 190v951 q0 174 -86 229l-62 20v110q-106 0 -144 -114l-17 -109v-981z" />
<glyph unicode="P" horiz-adv-x="955" d="M76 -112v1820l7 7h266l6 -7v-150h67q307 0 425 -142q93 -125 93 -390q0 -410 -256 -503q-124 -37 -210 -37h-112l-7 6v147h-6l3 -389v-358l-10 -11h-259zM349 884l6 -6v-150h60q157 0 206 91q36 82 36 207v17q0 274 -202 274l-64 3h-29l-7 6v146h-6l3 -388v-183z" />
<glyph unicode="Q" horiz-adv-x="1062" d="M52 503v604q0 464 195 588q106 61 216 61l3 -4v-229l-52 -23q-80 -63 -80 -210v-970q0 -154 86 -212q46 -14 46 -21v-228l-3 -4v-4q-94 0 -205 58q-206 117 -206 594zM473 -91l7 5h49q29 0 87 51q0 38 -75 109q-51 20 -51 27v239l6 7q54 -9 127 -77l40 -60h3v884 q0 246 -170 246l-16 -3l-7 10v223l7 5h44q263 0 361 -228q63 -143 63 -476v-485q0 -402 -60 -481v-4q29 -50 123 -76l3 -3v-233l-5 -7h-17q-84 0 -180 77l-66 87q-102 -73 -243 -73h-20l-10 9v227z" />
<glyph unicode="R" horiz-adv-x="959" d="M68 16v1820l7 7h220l6 -7v-252h120q137 -11 212 -33q130 -40 193 -140q73 -141 73 -362q0 -360 -213 -468l240 -825l-4 -3h-276q-10 0 -73 253q-6 0 -72 259l-74 256h-110l-6 -7v-755l-7 -6l-6 6v250h-223zM311 766l3 -3v-3l3 3h80l4 -3q108 14 143 44q72 61 72 258 q0 228 -106 266q-47 20 -139 20h-54l-6 -7v-575z" />
<glyph unicode="S" horiz-adv-x="883" d="M42 257q8 6 259 39l3 -4v-16q0 -218 86 -275h3v126l8 7l30 -7h17q83 0 119 110l13 89q0 68 -50 184q-39 70 -133 182h-4l4 -17v-89l-7 -7q-246 292 -269 378q-60 131 -63 253q0 230 146 359q75 62 189 80v136l8 7h52q170 0 283 -150q83 -128 83 -259q7 0 7 -50 q-10 -7 -250 -33l-2 3v23q0 78 -44 172q-49 51 -82 51h-34l-17 -4v-139q0 -12 -43 -53q-27 -50 -27 -117q0 -93 66 -202v103h4q192 -235 326 -419q119 -171 119 -392q0 -305 -262 -418q-59 -20 -130 -20h-49l-4 -3h-4l4 -4v-126l-7 -7h-13q-137 32 -206 116 q-98 124 -123 306z" />
<glyph unicode="T" horiz-adv-x="800" d="M19 1343v226l6 7h426l10 -10v-10q0 -7 -13 -7v-219h328l7 -6v-227l-7 -6h-242v-1585l-10 -10h-73l-7 7v239h-169l-7 6v1589h-243z" />
<glyph unicode="U" horiz-adv-x="876" d="M58 320v1297l7 6h262l7 -6v-1356q0 -162 73 -229v-180h7q84 0 116 123l13 110v1369l7 6h259l7 -6v-1220q0 -393 -104 -508q-104 -133 -305 -133l-4 4v162q-112 23 -149 46q-104 57 -156 216q-40 154 -40 299z" />
<glyph unicode="V" horiz-adv-x="906" d="M-10 1453v10l8 7h270q8 0 27 -150q77 -584 77 -638l60 -545v-24l4 -17h4q34 536 134 1269q51 379 58 397h275l9 -7v-3l-228 -1358l-108 -614h-208v-285l-7 -8h-26q-10 0 -65 319z" />
<glyph unicode="W" horiz-adv-x="1383" d="M33 1898l2 4h240q12 0 47 -366q76 -670 76 -777l-4 -4l21 -276h-4l4 -2v-34l2 -40h3q21 324 42 435l-4 3q19 202 33 273l-3 3l85 781l4 4h50l10 -11v-282l-3 -17l3 -3h146q12 0 40 -255q140 -1012 140 -1244l2 -3h4q0 303 133 1502h239l4 -3h2l-252 -1824l-3 -4h-233 q-11 0 -26 153l-106 787h2q-5 16 -22 173h4q-8 23 -13 120h1l-18 233h1l-1 3v66h-4l-4 -19l4 -4l-37 -434v-30h-6v79l-7 -6l-86 -759q-6 -49 -14 -49h-226q-8 0 -30 176z" />
<glyph unicode="X" horiz-adv-x="895" d="M22 100l292 957l-266 867l4 3h255q10 0 37 -130q50 -194 50 -223v-515l30 -129h2l157 661h263l3 -3h3l-269 -870l289 -954l-3 -3h-253q-10 0 -46 177q-106 425 -140 584h-6l-24 -116h-6v106q-7 0 -37 -146l-66 -269h-263l-3 3h-3z" />
<glyph unicode="Y" horiz-adv-x="929" d="M21 1814l4 3h279q10 0 37 -153l103 -495v-319l15 -74h4l173 805l4 4h265l8 -7l-320 -1083v-737l-7 -7h-140l-5 7v219l3 3v3l-3 4h-100l-7 6v744z" />
<glyph unicode="Z" horiz-adv-x="862" d="M31 -7v230l189 478l189 482h8v-154h4l115 300l-3 3h-112l-8 7v226h-332l-6 7v238l6 7h328l8 -7v-225h405l7 -7v-229l-352 -904q-55 -125 -55 -139h-1l-8 6v136l4 4v3l-4 4h-4l-69 -186l-13 -37h82l8 -7v-222l4 -4v-3l1 3h397l10 -10v-235l-7 -7h-401l-8 7v229h-375z" />
<glyph unicode="[" horiz-adv-x="569" />
<glyph unicode="\" horiz-adv-x="569" />
<glyph unicode="]" horiz-adv-x="569" />
<glyph unicode="^" horiz-adv-x="961" />
<glyph unicode="_" />
<glyph unicode="`" horiz-adv-x="682" />
<glyph unicode="a" horiz-adv-x="1100" d="M-1175 605v25l17 16h13l20 -20v-21l-14 -13h-23zM-1046 845v6l10 11h11l5 -8v-9l-13 -13zM-680 150q7 0 7 21l23 13h17q21 -8 29 -30v-13l-26 -27h-24q-16 9 -26 36zM-531 911v20l21 13h6l20 -19v-14q-3 -10 -22 -16q-22 6 -25 16zM-501 1107v21l21 19h6l20 -14v-2l-3 -3 v-4l6 -8q-4 -13 -16 -18h-7q-24 0 -27 9zM-493 1456v6l5 8l8 -8v-6l-8 -7zM-457 107v67q5 4 10 43q42 41 56 46h53q35 -10 60 -43q0 17 23 17l14 -17v-16q0 -5 -24 -16l-13 9v7q-17 0 -17 -20q-5 0 -17 -21l-26 -13h-7l-6 8v5l6 11v2h-2l-11 -2l-3 2v17q0 8 10 8v6h-4 l-16 -3q0 4 -43 19h-7l-17 -33v-2l17 -21l-3 -4h-3l-11 8h-6v-54q19 -44 47 -53q29 -16 85 -27l4 -2h56l11 -8h29l10 8h160l9 6h87l21 7l6 19q-18 27 -43 44q-9 22 -17 22h-3q0 -13 -7 -13h-3l-7 8v2q0 7 13 7v4l-22 33v2l6 8h7l13 -24h3q0 18 26 20q16 21 37 21l4 3v26 q-11 33 -28 33l-6 7h-23l-10 -7l-7 7v10l7 10l-13 23v7l6 6h31l49 51h17l87 -34l3 -4h6q30 12 30 17v10q0 7 -10 7l-3 4v9q0 8 17 8v2q0 31 -34 44l-36 -28h-11l-9 11l6 10l-19 17l-21 -7h-6l-14 13v13l17 14h10l14 -10q10 10 19 10v9q-15 0 -23 24q-16 0 -23 6 q-12 -1 -40 -63v-3q12 -44 36 -44q34 0 34 -9v-4q0 -3 -24 -17h-23q-6 0 -23 28q-10 0 -20 23h-37q-17 -8 -33 -56v-17l3 -4l14 -6l7 -17l-4 -3h-17q-5 0 -17 20q-12 0 -43 23l4 4h21q0 9 13 9l-8 10q17 10 17 30q30 15 30 47q0 26 -26 43h-21l-17 -3l-13 16v4l11 9l53 -13 q7 -15 13 -16l7 7q0 -6 39 -17q33 10 41 33v23q-11 33 -28 33l-13 13h-2q-25 -6 -47 -30h-6l-8 8v3l24 19v8h-7l-20 -21h-19l-21 21v18q0 8 26 21l4 4v19q0 7 -13 7l-23 13v4l6 6l8 -6h5v10q-13 0 -13 10l4 3h6l37 -40q17 -4 59 -30q24 -3 24 -13l-7 -8v-5q12 0 20 -30 q20 -2 20 -21l3 -13h14v7q20 6 20 27q19 11 30 39v8l-28 39l-19 -4l-17 4l-19 -10l-7 6q0 -22 -13 -22h-8v6q8 20 21 20q1 17 10 17h20l10 -7l6 7h3l68 -27v-3l3 3h2l11 -3v9l13 -3q14 1 27 30v17l-17 17l4 10h-4q-7 0 -23 20h-13l-11 -7h-13v23l8 10l-8 7v17l8 5h5l11 -5 l2 3v2l4 -2h4q22 16 22 23h-6v6h10l7 -6v-21q-11 -9 -14 -36h7l4 10l3 -3h6l-3 16h3l10 34l-10 -8l-3 4v13l17 17v4q-10 0 -17 17v3q0 5 20 10l-3 3v6l3 14l-3 3v4l3 13l-3 10l3 30v3l-3 13l6 40l-3 16l3 90h10v-249q16 0 16 -6l-13 -11l-3 -3v-19q16 0 16 -8q0 -9 -16 -9 l3 -34v-3l-3 -3v-3l7 -7v-43l7 -7l2 10l4 69l7 8v34l6 9v39q6 6 11 44l3 3v3q0 63 10 74v30l6 9v34l7 9v34l7 13q0 62 9 73v33l8 10v30l5 10v33l8 8h123q0 44 -7 72l3 4h229l7 -7v-3l-3 -4v-3l7 -7v-33q5 -5 9 -44l4 -3v-29q6 -5 9 -43l4 -4v-26l-4 -4v-4l7 -6v-33 q6 -5 10 -43l4 -3v-34q5 -5 9 -43l4 -4v-16l-4 -16q7 0 10 -40l4 -4v-29q6 -6 10 -44l3 -3v-24q0 -31 37 -52q0 -8 27 -21l2 -3v-10l-6 -10l6 -6v-4l-2 -3v-3q4 0 33 -37q16 0 16 -7v-33l16 -20l-43 -23l-9 -21v-15q36 -8 36 -14v-3q0 -10 -31 -16v-8q0 -12 67 -23v-6 q-15 -17 -46 -17l-9 -9l3 -4v-3q-7 -21 -20 -21l13 -16l-21 -13v-7l38 -40l-17 -13q7 -31 37 -47l-20 -13v-7q18 -36 36 -36v-3l-14 -17v-3q11 -33 17 -34q16 0 24 -6l-4 -17v-3q0 -12 37 -16l3 -4h30v-7q0 -6 -20 -14l-7 -9v-9q0 -6 23 -17v-4q-86 -27 -86 -56l-103 -44 l-20 -13l3 -17l-9 -9q31 0 60 -33v-4l-11 -17q15 -8 24 -30v-5q-8 -21 -21 -21q0 -7 21 -13l7 -10v-24l-15 -16v-7q15 0 15 -6q-7 -21 -58 -21v-3q21 -3 21 -10q-10 -9 -21 -9v-4l34 -53q79 -24 106 -80v-13l-9 -30h-7l-27 20h-215q-7 0 -11 36l-3 3v41l-7 10v36l-7 10v20 l4 4v3l-4 3l-2 -3h-7q0 13 -13 13q-43 -8 -43 -37l-4 -10l-13 14v13l30 50l-17 30l9 10h4l34 -10l6 -7h7v46l-7 10v37l-23 26l4 11h-4q-8 0 -8 10h-18l-11 -7h-29l-11 -6h-6l-17 13h-6v-39q4 -14 50 -29l13 4l4 -4v-1l-38 -21h-19q-21 30 -27 30h-10q-10 0 -10 -34l-17 -13 h-13l-20 4l-10 -4l30 -33l10 -6h27q40 52 46 52h7q9 -9 46 -9l3 -4v-6q0 -7 -59 -14q-13 -9 -17 -23q-13 0 -13 -16l17 -24v-6l-7 -7q0 10 -36 10q0 -5 -24 -16q0 -14 -7 -14l-6 7v10l17 19v17l-20 27h-14q0 -19 -24 -50q-6 -23 -13 -23h-13l-9 7l-4 -4h-4l4 -3v-7l-4 -3v-4 h4l17 4q30 -4 30 -10l-13 -10h-13l-12 6h-9l-7 -13v-30l7 -9v-21h-13v-46l-8 -10v-13h14l11 3l17 -3h29v-7h-11l4 -4v-3l-4 -3h-52q-13 0 -17 -46l-4 -4h-75q0 -13 -8 -13h-19l-3 -10l3 -3l-3 -17v-14h-7v10l-3 37l3 10h-143q-7 0 -7 10q0 58 10 70v30l7 9v34l7 9v34l6 10 v23l-20 24v6q0 8 24 17l6 10v13l-10 -7l-20 20l14 21h6l10 -7h7v29l7 10v47q-14 0 -14 7v9l14 27v7l-17 16q-20 -39 -53 -39v-20q-12 -24 -17 -24h-33q-22 10 -37 30l-6 14v13q8 30 43 30q17 0 17 10v10h-23l-11 -7l-229 -3h-40l7 -10v-27l-24 -23h-13q-35 0 -35 37v9l5 11 q-87 14 -126 46q-11 5 -36 43zM-408 230l93 -23l15 16q-4 13 -55 31h-13l-40 -17v-7zM-338 167h4l13 4v5h-4l-13 -5v-4zM-278 307v16l9 10h17l11 -10v-16l-14 -14h-10zM-269 811v8l14 13h14l13 -21q-7 0 -7 -9l-3 -4h-17zM-225 44l3 4h4l6 -7l-3 -4h-3zM-225 254v19l20 20 h16l21 -20v-13q-7 -19 -27 -27h-10zM-165 410v6q8 30 43 30h10l-3 4v9l9 -6l8 6q9 -33 30 -39l3 -4v-4l-3 -2v-3l5 -8h-2q-16 0 -16 21h-11q0 -21 -6 -21l3 -3v-6l-3 -4v-4l6 -5v-24l-6 -17h-30q-24 17 -24 54zM-159 137v13q14 26 34 26q24 0 33 -26v-13q-8 -26 -36 -26h-4 q-10 0 -27 26zM-148 469l13 14h7l6 -17l-10 -10h-3zM-112 626l6 5l11 -13l-7 -5zM-106 492v4l17 17l4 -4v-10l-13 -13zM-106 659v3l21 13l6 -6l-13 -21h-3zM-98 583v5l6 8l7 -8v-5l-7 -8zM-92 -39q0 31 46 50h21q17 0 36 -59v-4l-16 -38l-20 -5q-62 31 -67 47v9zM-79 678v8 h7v-8h-7zM-76 559v13l8 7h5l12 -7h18l11 7l3 -4v-6q0 -5 -36 -23h-8zM-68 390l3 4h2l8 -8l-8 -6zM-29 715v30l13 20h8l6 -7v-17q-14 -26 -20 -26h-7zM-5 835l6 6l4 -9h16l7 -8l-7 -9l26 -40l-2 -3v-3l-17 3h-4l-13 -10l-13 10l10 36zM21 347v13l10 9h3l13 -13v-6l-13 -14h-3 zM34 815v9h7l10 -9v-4zM51 765v17l7 6l13 -13l-7 -6h13v-7l-6 -10l6 -7l-2 -4h-4zM58 808v16l13 -13l-11 -6zM64 307l24 -40q14 0 19 -30h10q16 10 54 76v4l-7 13h-10q0 -23 -13 -23h-20l-10 10v16l10 14v3h-17q-14 0 -40 -40v-3zM81 -103l7 12q55 -6 55 -25l-13 -19h-19 q-30 11 -30 16v16zM81 725v10l7 6h29l7 -6l3 4h11v-7q0 -5 -31 -13l-6 -7h-7zM107 141l4 -11h53q0 15 7 24v9h-28l-26 25h-10v-14l7 -11v-9zM130 433v7h4v-7h-4zM134 -91q10 30 17 30h6l7 -8v-7q-10 0 -10 -10zM141 197q32 -17 32 -30h34l4 23v14h-26l-31 26l-13 -29v-4z M141 845l2 4h4q23 -12 26 -25l-2 -2h-3zM143 546q0 -31 43 -50h31l13 20l7 20v10l-7 10v10l7 9l-39 24h-4l-26 -13zM151 752q0 7 22 10l4 -4v-3l-13 -14h-4zM154 31l6 -13l11 6l15 -3v3l-5 7h-27zM181 944v4l22 13h4q20 -11 26 -23v-13h-6l-7 6v4l4 3v3q-27 0 -34 7l-5 -7z M207 719l4 3h3l6 -7l-6 -6zM207 867l4 4h3l6 -5v-8l-6 -7h-3zM207 881l7 7l-7 7v6l7 7h3v-33h-3zM207 918v3l4 4h3l3 -4v-3l-3 -4h-3zM207 975v2l4 4h3l3 -4v-2l-3 -4h-3zM214 692v7h6zM214 735v10l6 -6l-3 -4h-3zM224 884v4l6 13l7 -6q-7 0 -7 -11h-6zM224 905v6l6 7l3 -4 v-6l-6 -7zM224 1068v3l3 2h3l3 -2v-3l-3 -4h-3zM227 712q3 23 10 23v-7h4l-4 -16v-3l4 -4v-3l-4 -3h-4zM237 618h7v4h-7v-4zM241 778l6 7h-6v-7zM247 769l3 -11h4v11l-7 6v-6zM247 1028v6h10v-3l-7 -7zM267 -571h7l9 -59l-9 -43h-7v102zM270 -690h7v-4h-7v4zM400 -411v-4h6 v4h-6zM409 -344h8v-4h-8v4zM417 -297h5v-4h-5v4zM450 -301l6 6l4 -2v-4h-10zM452 146h41l6 8q0 7 -26 13l-13 13l-8 -13v-21zM452 659q8 0 14 -73q7 0 20 27h7l10 -11l-30 -56l3 -4v-22q15 0 20 -15v-6q0 -7 -13 -7v-69q27 12 27 43l-4 24l4 2h3q17 0 30 -16q13 0 13 -7 l-20 -13q0 -19 -30 -27q0 -17 -23 -17l-7 -13v-33q0 -11 37 -16q0 -11 49 -20l4 -4h3v24l7 10v6q-17 0 -17 11l17 19v20l-27 27v3h20v23q0 18 -23 30q9 2 20 23v17l-23 7v6l23 20v24q0 6 -20 13v7l20 19l-50 37l20 20l-6 10q69 41 69 86v7q0 15 -10 29v34l-10 37l-3 2l13 21 l-6 7l13 23v76l-7 10v56l-6 11v53l-7 9v54l-7 9v54h-10l3 -3v-7l-6 -10v-50l-7 -10v-50l-6 -9v-51l-7 -9v-53l-6 -7l2 -3v-11q-8 -21 -42 -49q-14 0 -14 -33l-3 -4h-4l4 -3v-26l-4 -4v-4q11 0 41 -86l3 -3v-33q-7 -25 -61 -50v-53zM466 263q24 15 33 44v10l-23 33 q0 -11 -7 -11l4 -3v-39l-7 -11v-23zM469 -411h4l10 -4l7 7l9 -3l20 3l7 -7l17 4l6 -7l-3 -3h-40l-20 3l-13 -3l-4 3v7zM476 190q11 0 34 -23h20v40l6 7l7 -7h30l10 10v3q-27 40 -51 50h-16q-24 -13 -30 -40l-10 -16v-24zM486 -314l4 3h3l39 -28v-13q0 -9 -13 -9l-13 9l7 11z M493 -368h6v-6zM499 616l7 6l7 -6v-3l-7 -8zM556 290q5 0 17 -23h3l7 10v20l-10 10h-14zM569 -235l7 7h3q20 -10 20 -40l10 -14l-23 -27h-3l-7 8q7 19 20 19v4l-27 36v7zM613 -284l2 2h4l7 -6l-3 -4h-4zM642 -76l11 7l3 -4v-3l-7 -6zM662 -69h8l-8 -7v7z" />
<glyph unicode="b" horiz-adv-x="1186" d="M-228 1145q7 7 7 23l22 13h25q16 -7 22 -23v-26l-22 -25h-25q-19 14 -29 38zM-228 1258v26q0 5 24 16h5q28 -9 34 -29v-13q0 -6 -22 -20h-8q-29 9 -33 20zM-201 760q0 12 23 29h9q27 0 27 -20h37l20 -20v-10l-20 -20h-13l-24 11l-29 -4q-27 0 -30 34zM-138 630v26l16 17 h24l16 -17v-26l-16 -21h-20zM-115 1338v9l20 21h10l16 -17v-17l-9 -9h-24zM-108 1032v3q6 0 10 24l13 9h33l20 -20v-30q-14 -23 -40 -23q-16 0 -36 37zM-85 815v13l20 25v43q5 14 37 30q31 -14 39 -34q26 -6 26 -13v-8l-16 -15h-2l-11 6h-6q0 -8 -27 -23q0 -13 -14 -13 l-22 -24h-11zM-65 669v24q0 5 23 16l27 -23v-9l-17 -17h-23zM-55 634v2l13 14h10q5 0 17 -24l-24 -17q-16 6 -16 25zM-48 1371v19l23 24h13q18 0 27 -17v-26q-10 -15 -30 -24h-4q-20 9 -29 24zM-42 1102v5h7l7 -5v-8h-7zM-28 782v24l13 13h10q10 -5 20 -30v-27l-7 -6h-20 l-13 13l3 4v3zM-5 503l3 4h10l7 -7l-10 -6zM-5 533v20q8 18 54 37v30l-12 19q22 0 30 17l-3 4h-2l-12 -8h-9q-36 17 -36 41v10q11 29 36 29v4l-22 20v6l15 40h3l-3 4v9q0 6 47 17l40 26v94h-3q0 -19 -30 -23l6 -11l-2 -16l5 -6v-10l-9 -11l-26 34v6l9 14v6q-15 0 -26 30 q-11 0 -21 16v4l13 17l17 -4l38 4h9q13 -7 13 -17h7v508l7 7h56l40 4l49 -4h177v83l7 8h126l10 -8h37q0 -7 72 -13q0 -7 56 -17l60 -30q82 -57 94 -92q47 -74 47 -127q5 0 9 -33l4 -3v-34l5 -10v-79l8 -10v-41l-8 -9v-83l-5 -10v-33l-10 -37l-3 -4v-30l5 -17h4l9 8h4l10 -8 h20v-9q-9 0 -30 -13h-6q-7 0 -13 21l-11 5h-3q-18 -49 -43 -83h17q24 10 33 31l13 13h21l9 -8l8 8h1l17 -13l-3 -4h-27l-39 -10v-17l-13 -30q5 0 20 -23l-11 -9h-6q-9 0 -10 13h-7l-10 -7h-23q0 -20 -27 -20v7q24 12 24 30l6 9l-6 17q-57 -55 -87 -60v-3q31 -1 47 -13 l-7 -10q15 0 70 -54h7q34 0 59 44h4l9 -3q4 10 21 10l4 -17l-12 -13h-1l-8 6l4 3h-4q-12 0 -26 -35q-13 -3 -24 -28q11 -18 73 -33h14v-7l-16 -33v-23q13 -27 39 -27l50 -13q26 26 26 37h4l3 -4v-16q0 -7 -13 -7q0 -20 -13 -20l-7 -19v-30l20 -13v-8l-7 -5h-6l-40 35 q0 -6 -27 -20v-2q0 -10 27 -13v-4l-7 -11l3 -2l-3 -17v-13q9 0 16 -17v-4q0 -6 -13 -6l-3 -4v-3l20 -7h10l13 10h4v-3l-7 -10v-23l13 -17v-7l-6 -6h-7l-13 10l-20 -10h-21q0 -20 -9 -20v-10l53 -53v-9h17q0 9 23 30l13 -15l-36 -43v-36l6 -10v-14l-6 -6l-40 30h-4 q-26 -8 -26 -33l-8 -11l8 -10v-9l-13 -24q5 0 9 -20h-35q-57 -26 -78 -65q-26 0 -36 -30l-83 -71l-117 -83l-3 -3h-13l-14 20q-10 0 -39 23h-17l-10 -6h-70l-9 -7h-60v-83l-7 -8h-322l-7 8v611q-29 67 -54 70l-3 3v29l3 4v4l-5 6v16l17 21v10q-12 11 -12 20h-30l-13 20 q7 13 38 13q0 5 -25 17l-5 -7h-8q-20 9 -29 23zM11 1042v3q8 16 26 30h21q12 -13 26 -13q0 -36 -22 -50h-25q-18 14 -26 30zM32 1268v10q12 34 35 43h17q7 0 21 -23v-24q-11 -24 -30 -33l-4 -3h-9q-23 7 -30 30zM34 1111q23 21 30 21q21 -8 24 -17v-21q0 -4 -24 -17h-2 q-28 14 -28 34zM396 -91h61l-4 17v66l7 6h70l9 7h24v23l60 30v3q-7 0 -7 17q-30 14 -36 27v23l13 34l-13 19v7l10 36l19 7v7l-26 20v6h-3l-17 -13l-7 7q7 0 10 26q-4 0 -16 23v7l6 7h4l9 -7l4 3h4l-4 4v30q2 10 46 26l11 4l2 9l-29 24h-10l-10 -7h-6l-8 7v10l8 9l-14 24 q46 9 46 16q0 10 30 34h27l10 -7h13l-16 26h-4l-9 -6h-17l-47 50l-3 -4l3 -3v-6l-27 -44l4 -3v-3q-17 -63 -26 -63h-13l-58 19v-3q17 -22 63 -36l4 -17v-17l-64 -39q0 -11 -59 -40l-24 -40v-362zM396 809q0 -7 21 -13v-14h9v4l-2 10l2 3h4l7 -7h6q7 0 7 34l3 2h43q0 14 8 14 h13l9 -6h34q70 20 102 63q27 62 30 93h4l-4 17v39l7 11v99l-7 10v27l4 3v3l-17 46q-11 42 -56 78q-57 26 -80 26l-4 4h-82l-4 -4h-3l3 -4v-76l-6 -7h-44l-7 -6v-449zM407 912v37l6 6h4l20 -13l6 7l4 -4v-27q16 0 16 -9v-4l-6 -6h-7q-8 10 -40 10zM443 753h7v13h-7v-13z M450 962v3l7 7l6 -7l-10 -6zM473 866v4l6 5l4 -4v-1l-7 -8zM476 1025v7h3v-7h-3zM490 995l3 3h11l5 -6l-3 -3h-10zM534 883v5q16 16 29 54l-16 26l9 11h4l20 -17h23l20 10l3 -4v-9q0 -7 -13 -7v-17q6 -6 6 -30l13 -17l-9 -9q-7 0 -20 26l-4 4h-3l-3 -4h-3l-10 10l-28 -13 q0 -18 -13 -27zM552 398v5h4v-5h-4zM609 1077h7l10 -9h-7zM613 267q5 0 10 -23h3l6 7l-2 13l9 11l-3 13h-17zM613 441q5 -1 19 -30v-4l-2 -4v-3l9 -6h10q14 0 47 43l-4 4v9l7 10v17q0 10 -33 13q-34 0 -53 -49zM945 -99l6 8l8 -10l-8 -7l-6 7v2zM959 723l5 7l13 -14v-3 l-5 -7h-8zM972 696v7h3v-7h-3zM1019 706v17q32 31 32 50l7 6v10q-10 0 -17 13v7h4l13 -10l7 7l13 -40h3l3 3h4l10 -24v-6h-7l-13 10q-28 -18 -33 -30q-8 0 -8 -16l-2 -4h-11zM1021 639v11l7 6l17 -20l-8 -6q0 6 -13 6zM1035 557q20 14 30 36v3q-11 15 -11 30h44q4 0 17 24h2 l4 -3v-11l-13 -16l3 -11l-7 -5v-8q10 0 17 -17v-3l-6 -6h-7l-17 9q-18 0 -43 -29h-7zM1041 424h7q0 13 6 13l-3 4v3l7 10v3h-4q-8 0 -13 -33zM1058 -42q9 11 40 14l17 20h6l7 -7q0 -13 -24 -13l7 -10l-7 -14l11 -17v-2l-7 -7l-10 7q0 -8 -30 -11v4q20 18 20 30h-4l-9 6h-4 l4 -2v-8l-7 -5zM1081 596l7 -6v10h-7v-4zM1124 45v7l7 6h7q6 -6 30 -6l6 -11q0 -4 -23 -16h-13zM1124 224l7 7l10 -13l-7 -7zM1124 324v3l17 17q25 -4 27 -14q0 -6 -24 -6l-6 -7h-7zM1131 9l30 6l30 -10v-10h-47zM1131 368l16 13h4l7 -8v-5q0 -8 -20 -11zM1171 334v4h10v-11 h-3zM1184 -101l14 10l2 -4v-4l-9 -9zM1184 194l7 7l3 -4v-3h-10zM1208 -22l13 14l30 -17h13l9 7h4l7 -7q-7 0 -16 -46h-4q-8 0 -8 14l-13 -12h-5v27h-17zM1208 68l5 7h4l8 -7l-8 -7h-4zM1211 -82q2 34 10 34l13 -21v-2l-9 -11h-14zM1227 95v3h7v-3h-7zM1230 119v9h11v-7 l-7 -6z" />
<glyph unicode="c" horiz-adv-x="1117" d="M21 350l37 40l-14 26v7q56 47 68 47v657l5 10v76l8 11v43l5 6l-3 4v23l24 93l4 17l2 3h3l-3 2v4q48 121 97 166q74 67 123 78q64 26 116 26l3 -4v-96h106l77 -17q85 -21 159 -97l60 -65q38 0 46 -30v-20l-16 -17l24 -66q6 -60 26 -60q0 -6 23 -17q0 27 21 37h13l17 -16 v-21l-17 -17l-17 4v-7q19 0 69 -82l13 -37v-54l-5 -9q43 -38 52 -81l14 -46v-109q-10 -23 -20 -30l-7 6l13 20l-3 4v13l7 10v3l-7 10v43q0 103 -49 133h-8q0 -30 -109 -123q-52 -19 -89 -23l-4 -3h-56q-100 33 -100 66l-13 23v20q-21 0 -21 8v169l4 3v3l-4 3h-2l-24 -13 q-34 11 -50 37v9l-20 -9h-2l-14 13v13l6 7h13l11 -7h6q0 24 37 43h6l24 -13v24q-30 82 -43 82l-11 17q-6 -6 -30 -6l-13 -17h-13l-9 10v13q0 7 18 13l4 -3h4l9 3v4l-39 13h-50l-10 -6h-3l-7 6v91h-4q-14 -2 -53 -47q-13 -18 -36 -91v-33l-7 -9v-622q0 -49 -32 -73h-4l-9 7 h-8l-37 -37h-16v-7l36 -99q15 0 43 -103l44 -96l10 -11l-7 -10q102 -134 140 -163q62 -35 79 -52q0 -16 8 -24v-30h9l30 63v153l7 10l-7 10v10q0 6 23 10v37l-7 10q0 9 21 9v25l-84 112v6l8 7l-4 4v16l13 14l4 -4l3 4q25 -4 33 -11l4 4h2l11 -4l6 7l7 -7l10 7 q119 -59 219 -59h27l6 -8v-56l17 -70q24 -27 24 -50v-3l-4 -3l4 -3v-7l-8 -10l8 -7l-4 -3l4 -3v-7l-4 -4v-2q8 0 20 -37l-11 -10v-44l8 -9v-4l-8 -6l-9 6h-20l7 -9q-14 0 -17 -47q1 -19 23 -57v-6l-30 -26q-28 -41 -76 -70l-54 -47q-5 0 -35 -30l-11 4q-31 -29 -82 -60 q-2 -9 -57 -41q-18 -15 -56 -30l-34 -23h-7q-5 0 -19 23q-11 0 -34 30l13 17v27l-6 10v10l19 20v6q-71 16 -76 24q-21 17 -70 33q-24 19 -43 19l-22 -9h-11q-74 56 -82 70q-19 18 -51 33v13l4 3v3l-14 28v13l14 13l-4 4v18l4 4v4q-57 40 -57 49q0 45 -76 107v17l10 33h3 l-3 4v2l6 11v3q-30 49 -53 113zM238 2018v26l22 23h27q27 -9 27 -33l3 -3v-4q-10 -26 -24 -36h-33q-12 7 -22 27zM238 2333l2 4h4v-10zM247 1778v7l20 13q0 -7 10 -7l3 -3v-13l-10 -10h-10zM357 1725l9 10h4v-10l-7 -6zM417 1719v3q14 23 19 23h10l20 -20v-14l-20 -18h-6 q-14 3 -23 26zM493 1137v13q12 16 33 27q23 -10 30 -27v-20l-17 -16h-26q-6 0 -20 23zM567 1061v13l9 20l-4 13h8v-9h5l12 6h13l52 -30v-27q-6 -13 -16 -13l-53 -3q-14 3 -26 30zM567 1681v4l16 17l16 -17l-19 -17zM619 1247l7 6l3 -3v-3h-10zM632 -119v-3h8v3h-8zM636 1735 v4l20 16q0 -7 10 -7l3 -3v-17l-7 -6h-13zM649 1968v9q8 16 23 24h17l17 -17v-16q-8 -16 -24 -23h-10q-15 7 -23 23zM729 911q37 -63 87 -63l5 -7h68v4q-31 0 -55 66v23h-105v-23zM762 1592l10 7h14l9 -10v-4l-13 -13h-7zM769 2064v14l22 26h28l19 -20v-27l-26 -23h-13 q-22 7 -30 30zM791 1709v10q11 22 30 36h25q26 -8 26 -36t-34 -43h-9q-25 9 -34 30zM849 911q18 -44 40 -56h42q39 0 121 79l30 54q-22 13 -81 19l-3 4h-17v-69l-6 -8h-126v-23zM938 1625v7l17 4l6 -7v-7l-6 -6h-7zM942 1818v13q10 25 30 34h19l27 -27v-20q-9 -20 -33 -30 h-13q-20 11 -30 30zM961 1204l7 -10v-33l23 -31v-13q0 -11 -16 -36v-11l6 -9v-33l106 -24l-3 3v50l3 4v3l-17 40q-39 56 -69 79h-6l-14 -9l-9 13v7l6 10l-17 5v-5zM968 1914v11l7 -8l-3 -3h-4zM1001 1503l4 3h9l8 -7v-3l-8 -7zM1025 1516l6 6h4l5 -6l-5 -7h-4zM1052 1383v3 l9 11l9 -11v-3l-5 -7h-8zM1054 1330v20l28 23h5q22 -9 30 -23v-17q-11 -23 -17 -23h-26z" />
<glyph unicode="d" horiz-adv-x="1154" d="M-148 1103v3l7 6h7l6 -6v-3l-6 -7h-7zM-104 1295v4l10 9h9l13 -13l-13 -13h-5zM-81 1342l4 3h2v-10zM-15 760v10q12 23 17 23h30q5 0 17 -23v-6q-13 -26 -21 -26h-20q-15 6 -23 22zM2 557v4l13 13l13 -13v-4l-9 -9h-7zM22 431q0 19 36 30q21 -9 30 -23v-9 q-13 -28 -19 -28h-31q-16 9 -16 30zM69 683v4l22 21v26q-7 10 -13 43l-9 10v27q0 5 32 13l11 20v6l-8 10q11 0 14 47l-6 7v10q20 12 39 63v535l8 6h285v47l7 6h99l10 -6h42q15 -7 98 -20q93 -29 116 -50q82 -37 136 -173q15 -6 47 -46v-30l-7 -14l3 -3l-3 -16v-71l-7 -9v-13 l50 -57v-3l-13 -17v-30l-7 -10l14 -23v-10l-14 -17v-49l7 -11v-19l-7 -11v-13l7 -10v-13l-13 -23v-30l13 -23l-7 -7v-36l7 -10v-7l-7 -9v-34l14 -17l-7 -10v-49l-13 -17v-13q6 -7 6 -31l14 -16l-7 -6v-27l17 -33l-10 -4v-30l16 -26l-13 -10l3 -4v-19l-3 -4v-3l20 -27 l-13 -13v-17l22 -32v-4h-9v-30q6 -17 17 -17l5 -9l-22 -11v-23l22 -26l-9 -14q7 0 30 -23q23 -8 23 -13v-20q-12 -20 -27 -20v-4l8 -9v-17q-7 -11 -81 -37q-40 -26 -56 -27v-13l7 -9q-61 -41 -116 -41l-3 -3q-8 0 -13 -17q-15 -8 -38 -53q-61 -33 -193 -66q-16 0 -56 -21 h-13l-7 8v17h-83v-47l-6 -7h-282l-8 7v398q-9 31 -30 50l-9 28l6 43l-6 5v25l6 5l-2 4v13l2 4v3l-6 7v30l6 6l-2 3v8l2 2v4l-14 13q7 0 12 30h2l-2 3v7l2 4v2q-6 0 -10 41l-4 4l8 5v8l-13 16v2l5 12v5l-5 11v3l5 10v6l-5 10v64l-24 33l13 20zM69 1365v9l6 8h7l6 -8v-9l-6 -6 h-7zM85 1278v11l19 19h14l20 -19v-11l-20 -19h-14zM95 1508v3h9l8 -6l-11 -7zM430 -54h14v46l7 8h49v23q9 11 54 26q24 40 60 40q0 7 13 7l17 26v27l-30 27v4l13 13l-4 2v20l4 4v4l-13 13v4q0 5 17 5l5 21l-30 36q13 3 17 17h4l-4 3v6l4 4v4l-30 22v7l22 7v29q-15 0 -30 -26 l-2 -3h-27q-17 11 -26 33v7q7 20 29 30h17q12 -11 30 -11h4v3l-21 38l21 39v33l5 11v13l-5 10v3l9 37l4 3q-51 3 -51 23v34l-19 5h-33l-10 8h-7v-34q8 0 53 -33l13 -26q-5 0 -10 -24l-13 -10h-30v-23q17 -23 17 -39h17q0 14 13 19h9l13 -13v-10q0 -7 -18 -13l-17 -24h-11 q-13 6 -13 20h-23v-13l7 -9v-8l-14 -17v-13l14 -16q-17 0 -17 -47l-6 -6v-3l6 -11l-4 -16h7q0 9 17 27v3l-7 10l17 13h7l9 -10v-13l-6 -10l6 -10v-7q-9 -26 -23 -36h-13l-10 6h-6v-6l6 -10v-37l-6 -10v-9l6 -12v-39q-7 -11 -67 -36v-190zM430 953q56 -64 97 -80l3 -3l-3 -13 q0 -23 10 -36v-4l-17 -33v-30l67 -27q4 0 15 -23v-17h17l12 -6v103l-8 9v13l4 4v4l-4 3h-4q0 -13 -9 -13h-26q-23 7 -30 30v9q7 16 22 24h30l12 -7h1v10l-5 10v23q0 5 26 14q47 21 70 73v126l-7 9v51q-7 6 -7 33l-20 56q-46 70 -109 70q0 7 -40 10l-3 3h-77v-46q0 -7 -17 -7 v-342zM530 279v10l10 10l10 -14v-6l-7 -7h-6zM530 1003v13l13 13h11l13 -19v-4l-17 -16h-3zM563 352v6l8 7h2l7 -7v-9l-7 -7zM576 587v4l13 13h8l13 -13v-4l-9 -9h-14zM1338 1657v13l10 11h13l7 -7v-21l-7 -5h-13z" />
<glyph unicode="e" horiz-adv-x="1006" d="M-278 1864v23q0 7 27 20h6q17 -7 24 -24v-17q-9 -14 -30 -22q-27 13 -27 20zM-168 1654v6l7 7l13 -13l-9 -7h-4zM-131 836v21l9 9h13l14 -13v-13l-14 -13h-13zM-127 1806v11l9 10h23l7 -7v-16l-13 -14h-8zM-68 1080v5l13 21h20l13 -13v-13l-20 -21q-26 13 -26 21z M-55 1145v24l17 20h33l20 -30v-14l-27 -26h-20q-13 6 -23 26zM-42 704v3q7 15 13 17h17q0 16 7 16h13q16 -7 23 -23q-10 -10 -23 -10v-13l7 -9v-8l-20 -13h-7q-30 10 -30 40zM-1 817q11 23 16 23q13 0 23 -23l-13 -13h-13zM21 973v7l7 7h3l7 -7v-10l-7 -7zM28 751l10 6h10 l6 -6v-7l-6 -7h-7zM41 485l4 3h3l14 -17l-4 -3h-4zM62 737v10h9v-10h-9zM84 302v7h4v-7h-4zM101 797v3l8 7h5l8 -7l-13 -10zM109 528v10l9 10h4l13 -14l-13 -13h-8zM118 298v4q6 0 6 10l3 3h4l4 -3v-3l-13 -13zM124 239v10l7 6l4 -3v-10l-8 -7zM138 475v3l10 10h6 q-2 -20 -10 -20zM138 587q0 27 23 40h13l23 -23v-17q-9 -14 -29 -23q-21 9 -30 23zM140 47v15h8l20 -19v-13l-11 -10zM140 116q12 33 25 33q0 17 29 17l7 6l23 -16h7v16l-17 20v4q20 49 40 49l36 4l10 -4l3 4v3q-19 0 -26 7h-33q-23 -19 -37 -44h-36l-6 -6l9 -13v-13 q-9 -22 -22 -30l-12 30l14 5v25l7 9l-21 27v43q0 5 51 37h13q14 -24 27 -24q0 -12 19 -26h14q26 10 26 17l-9 6h-37q-10 7 -20 36q0 7 26 21v3q-13 0 -13 10v9q24 36 30 38h10l10 -8h3l7 21q-7 0 -7 19h-9l-10 -6h-4q-10 0 -10 23q-7 0 -7 13q-14 0 -30 40v17q14 40 61 40 h16v3l-13 6h-40l-43 -39h-4v10q22 26 30 26l-20 27v16l11 11q11 0 26 -27l4 -3h9q32 9 33 17l-9 5h-37q-13 0 -17 55q30 34 30 45q0 17 7 17h7l10 -7h9v34q27 21 27 36l29 20q30 -9 30 -20q28 -15 28 -29l3 -4h16l24 4v2q0 6 -43 14q-15 29 -20 30q0 45 39 82v8h-9 q0 -24 -43 -30l-8 -8h-5l-28 21h-6l-7 -7v-10l13 -17v-3q-11 -37 -33 -53q-12 -36 -16 -36h-24q0 17 -26 73v6q16 52 23 54h30v2q-23 0 -30 8h-4l-9 -8h-7l-7 8v6q0 25 10 27h4l9 -7h21l10 10l-27 3l-13 -3q0 10 -21 30q0 23 -26 27l-16 26v542l6 6h259l7 -6v-67h368 q64 50 64 93l3 4l-7 5v34q-9 34 -22 34q-10 9 -41 20l-6 -7h-50q-41 -18 -60 -50l4 -3v-24l-4 -4v-1l4 -4q15 -30 56 -30l7 -10l-7 -7h-23q-50 35 -50 51v32q26 63 106 63l26 3q50 0 74 -59v-56q5 0 16 22v43l-13 28v13l7 6l13 -19v-21h10v60l-13 34l3 9q-38 69 -84 120v4h4 q67 -47 87 -120q9 -4 17 -51l2 -2v-44l-9 -36l-7 -16l-3 -4l6 -9v-74q-16 -52 -29 -73v-60h6q25 19 50 63l3 -3v-17q-10 -25 -59 -70v-23h9q54 21 67 37l7 -11v-3q0 -15 -83 -36v-73l-7 -7h-442v-355h10l9 6h4l20 -13v-7l-7 -6h-2l-11 6h-6q0 -10 17 -10v-6q-28 -20 -28 -37 l7 -10v-3l-3 -4v-3q26 -37 26 -56h14l-3 3v10l9 10h4l16 -17l-3 -3v-3h20v6l-7 11q14 26 20 26q21 -6 21 -24q9 -10 9 -19h210l5 -7v-239l-5 -7h-140l-17 -13h-29q0 -24 -71 -49l4 -17l-33 -17v-9q36 -5 37 -15l-8 -6h-9l-27 17h-6l-17 -4v-4l13 -18v-14q-11 -37 -24 -37 l-13 -23q7 -15 13 -17q16 44 24 47l10 -3l10 9q34 -5 34 -16v-7q-8 -4 -8 -36l-36 -13q0 -7 30 -27v-17l-7 -7h-29v-10l6 -9v-30h13l10 6h7l14 -14q-8 0 -8 -9l4 -9l-4 -21v-20q-1 -10 -46 -23q-32 -12 -43 -37v-79l6 -10v-16h479l6 -8v-239l-6 -6h-379l-4 -4h-2l13 -20 l-7 -6l-30 22h-13q-36 -17 -36 -22h-4l-6 6v3q6 13 17 13v8h-30l-7 6v63h-7l-10 -6l-10 6h-159q-5 0 -17 -22q-13 0 -13 -14q-13 0 -13 -16l2 -11q-4 -14 -9 -14h-10q-10 0 -10 25h-17l-6 5v4l10 13v8l-17 -4l17 17h3l13 -13v-8l-3 -3v-3l3 -3h7v19q2 11 26 11h10v9h-53 l-6 7v67l-7 9l13 13l-6 8l16 13l10 -10l10 3v23h-33l-10 10l7 7v77l-10 19q4 13 10 13q23 -3 49 -30v11l-7 10v30q9 25 37 56l-7 7q-18 -31 -53 -31q-49 5 -49 24q0 23 -8 30zM154 2126l24 20q0 -7 13 -7l6 -16q0 -18 -23 -21q-9 0 -20 24zM161 322v3h7v-3h-7zM184 491 l17 10l10 -13l-7 -7h-10zM184 1000l3 2h4l3 -2q24 -12 24 -17l-7 -7h-4zM191 2053v19l16 13h11l16 -16v-10l-14 -19h-16zM220 -94v-10h7v10h-7zM220 -345h7v-4h-7v4zM220 432v17l17 16l17 -29l-13 -15h-10zM231 787l6 7l4 -4v-3h-10zM241 -27v-13l9 -10q0 6 27 10l4 4v2 q-24 0 -31 7h-9zM241 129l9 -17h7v24l-7 17h-9v-24zM250 -369l11 7h3v-7l-7 -7zM257 96l17 3v-3l-3 -3v-4l13 -7h3l10 21v20h-16q-7 0 -14 -20h-10v-7zM294 129l9 -3q21 33 43 46q27 -7 47 -30l8 11l-14 17v32l36 57h-6q-6 0 -20 -24l-13 -6h-34l-20 13h-13l-6 -7l19 -26v-9 q-23 -47 -36 -47v-24zM294 398l17 -9h9v5l-20 13h-6v-9zM294 454q20 0 30 34q9 0 22 13q37 -16 41 -30q8 0 30 -30h10l27 13v8h-24q-7 6 -26 6l-17 36v20l36 57v14h-6q-7 0 -13 -21l-3 -10q-16 0 -25 -6h-26l-20 13h-13l-6 -7l13 -19q13 0 13 -7l-37 -57h-6v-27zM294 737 l17 -20h9v7l-13 13h-13zM300 69l11 -9h6v13h-17v-4zM300 -259h3v-8h-3v8zM307 1049h7v7h-7v-7zM311 -267l9 8l4 -4v-4l-7 -5zM311 642l3 -4h14q0 15 18 26h25l16 -13h14v4q-25 31 -25 59h-2l-11 -7l-9 7h-13l-11 -10l7 -6v-30zM314 309h14q0 15 26 26h9l24 -13h3l11 10 l-14 16v28q14 31 40 31l3 4h30v10q-27 0 -40 11l-19 -13l3 -4v-8l-37 -29h-9l-12 7l-16 -7v-6l14 -20v-4l-30 -36v-3zM324 -94v-16l17 -7l-4 -16v-4q0 -6 9 -6l17 3l11 -10h2v17l-9 9l-7 -6h-6q-8 0 -13 30l-11 6h-6zM337 49l7 -10v-26l-3 -4v-3q34 0 39 -6h13l-13 20v19 l21 30v4h-8l-22 -24h-34zM341 993h3l19 3l24 -9h6v2q-17 16 -17 37l8 7v3h-4l-9 -6l-11 6h-6l-4 -10l-4 4h-5l3 -17v-13l-3 -4v-3zM360 1019v7h7v-7h-7zM384 711l17 9l-11 10l-6 -10v-9zM401 129l9 -10h13l24 4v3q0 6 -27 6l-6 8h-4zM401 638q10 -30 16 -30l6 9q-6 0 -6 21 l-13 9h-3v-9zM404 312q3 -33 13 -33v26l-7 7h-6zM407 82h53q0 11 -37 11v3q-16 -4 -16 -10v-4zM407 744l10 -10l6 6h46v4l-46 9h-6zM407 960h3v6h-3v-6zM410 1110h23v5h-23v-5zM414 1080l9 -11q0 7 17 7v4h-26zM430 591h7v4h-7v-4zM443 249h11l6 6v11l-6 9l-11 -3v-23z M443 591h11v4h-11v-4zM454 -27l6 6l3 -2v-4l-7 -7l-2 3v4zM456 279h7v3h-7v-3zM456 627l13 -6h4q0 26 33 52h4q40 -19 40 -30v-1h6v5l-6 10v37l16 30v3h-3l-24 -13h-16l-30 16h-13v-3l17 -26v-7q-18 -43 -30 -43l-7 -8l3 -1v-4zM460 564q7 0 7 -10h17v7l-11 10h-6zM463 235 l4 -9h10v6l-10 10v-7h-4zM473 -31l7 -5l-3 -4h-4v9zM480 3v6h4v-6h-4zM480 149h17v7h-11zM480 478h6l7 7v3h-3zM484 -4l2 4h4v-10zM497 534l6 -10v-23l20 -6l10 6l17 -13h6l7 7q-7 0 -24 46l-19 4h-23v-11zM500 1019l10 7h6l17 -16l-10 -8q-21 8 -23 17zM543 13v3l9 10h4 v-13l-6 -7zM543 200l4 2h3v-10zM543 1006v4l13 13h4q19 0 26 -21v-22l-9 -10h-11q-14 6 -23 36zM550 -14l10 10q5 0 17 -23v-17h-8l-19 21v9zM550 554h6v4h-6v-4zM563 49v11l6 -7l-3 -4h-3zM573 -356q21 -4 21 -10v-3l-8 -7l-13 14v6zM580 -36q0 4 14 9q18 -4 18 -9v-4 l-18 -13h-8l-6 6v11zM580 866v13q12 25 40 34h9q14 -8 24 -30v-4q-10 -19 -24 -29h-13q-6 7 -30 7zM582 82v4l13 13v-3q-2 -17 -9 -17zM582 421l8 7h5l12 -9l-13 -12zM586 614l9 11h-9v-11zM594 106v6l5 -6h-5zM610 953v20l19 20h10q19 -7 27 -27v-13l-20 -19h-17zM616 449 v13l10 9q0 -6 13 -6l3 -3v-11l-13 -13h-3zM629 62v7h4v-7h-4zM852 1511h40q7 0 7 -16h3l13 46v57h-7q0 -14 -23 -43q-24 -40 -33 -40v-4z" />
<glyph unicode="f" horiz-adv-x="1068" d="M-26 2242q0 21 27 39h13q30 0 40 -30v-19l-36 -30h-8q-36 17 -36 40zM37 2417v7q8 19 27 27h13l23 -23v-11q-12 -23 -16 -23h-27q-6 0 -20 23zM57 -97l7 9l-3 10q37 69 80 116h-8q71 -345 84 -345l6 10v249l-13 53v63l3 17h-7q0 -10 -19 -17q-90 -92 -107 -142l-6 -20 l-4 -3v-50l-6 -6l-7 6v50zM80 510q14 7 14 21h90l9 6h20q0 10 10 10v947l7 6h23l99 4l8 6h39l10 -6q4 6 40 6q0 6 23 11l10 13l-6 9v12q0 8 16 9v20l7 6h36q11 0 24 10h16l13 -10h21l9 10l-13 24q8 7 8 23l22 13h24q26 -9 26 -33l3 -3l-10 -13l4 -4h3q11 11 60 20l30 16h13 l17 -13q14 12 75 23v7l-9 27q0 22 26 40h34q23 -15 37 -40v-10l-8 -11v-6l8 -7l9 7q0 -7 20 -13q0 -25 30 -36v-21h24l6 -6v-24l24 4h3q14 -8 14 -17l-34 -60l13 -13v-13l-4 -3v-4l8 -7v-23l-30 -40v-13l13 -17v-13l-7 -9q25 -12 33 -30l4 -4v-9q-9 -22 -24 -31h-27 q-26 16 -26 36q-29 0 -43 10h-36l-11 7h-16l-19 -20l22 -19v-14l-13 -13h-7q-6 0 -19 27l5 9h-16l-10 -9l13 -17v-13l-19 -20h-13q-9 2 -37 43v29q-83 24 -83 38q0 24 -17 32h-10l-13 -13v-2l7 -12v-3l-10 -10h-16l-8 8v22h-30l-17 -13h-5l-24 13h-67l-9 -9v-56l-7 -11v-13 l7 -10v-219l7 -11v-52l-7 -11v-119h345l7 -8v-249l-7 -5h-345v-87q16 -40 53 -89l-14 -11l4 -2v-8l-7 -9v-4l7 -9v-14l-4 -3v-4l10 -7h4l47 17q13 17 112 43q0 11 53 11h7l10 6h16l41 -14l2 -3v-14q-17 -28 -83 -59l-153 -66l-22 -7l17 -20l-8 -6h-16v-17q8 -20 29 -44v-3 l-16 -16l7 -7q-7 -5 -7 -39q-9 -4 -16 -37h-3l3 -4v-9q-14 -26 -17 -57l-3 -3v-57q0 -5 -37 -23l-16 -43v-37h13q5 6 76 21l3 2h87q59 -21 79 -52q15 -21 24 -51v-13l-3 -4v-2l6 -7v-14l-6 -6l3 -3v-17q-34 -98 -122 -149q-74 -54 -249 -104q-36 -9 -84 -9l-23 22v11 q0 31 56 53h13q34 -16 34 -33l-34 16h-20q-21 -9 -33 -26v-13l10 -17h37l79 20q37 16 50 16q0 5 47 17l70 34q64 30 136 115l23 70v20q-7 7 -16 57q-34 52 -96 52h-27q-71 0 -133 -22v-137l-7 -6h-259q-7 0 -7 17q-148 336 -26 408l9 13v13l-6 11v49l-13 23v7l6 10v26 l-17 27v11l8 9v24l-21 30l13 22v8q-6 26 -30 43v3l12 6q0 19 -78 83zM143 38h3v8h-3v-8zM176 1873v3l14 13h7l6 -6v-14l-6 -6h-10zM184 1972v4q0 20 29 33h7q20 -10 30 -24v-29q-10 -14 -30 -24h-7q-29 11 -29 40zM333 1876v10l6 7h13l11 -10v-4l-14 -13h-6zM545 1843v13 q14 19 30 27h4q22 -12 22 -17v-23q-11 -21 -35 -21zM555 315l14 -13v-31l-3 -2v-4l3 -4h16q28 19 59 27q46 23 91 36q0 9 46 24l40 36v4l-10 9h-50q-8 -5 -79 -22q-120 -44 -127 -60zM582 1713v20q7 22 31 30h13q25 -20 33 -36v-7q-10 -24 -28 -30l-2 -3h-20zM588 2584v23 q9 15 25 23h9q21 -10 30 -29v-11l-26 -23h-21zM601 1660v6l8 -6h-8zM613 1909v14q8 20 22 29h37l36 -16l10 -13v-14q0 -9 -40 -20l-9 -10h-34q-14 9 -22 30zM643 2019v21l9 9h23q5 0 16 -23v-3l-22 -25h-4q-22 14 -22 21zM672 2088v14q0 6 23 20h3l20 -17h4q0 15 16 24h14 l13 -14v-13l-13 -14h-14l-16 14q0 -10 -7 -10l3 -4v-3q-5 -13 -23 -13h-7zM708 1713v7l20 20h7l13 -13v-14l-13 -13h-13zM715 1979v6l10 11h10q6 0 10 -20l-13 -10h-4zM745 2245v10l9 9h4l13 -13v-13l-6 -6h-7zM754 1749v25l27 26h24q0 13 6 13l-3 4v9l27 27h27 q14 -9 22 -31v-13q-14 -35 -52 -35v-25l9 8h13l13 -14l-13 -13h-13q-13 6 -13 16h-4q0 -11 -26 -23h-17zM754 2023v3q10 20 24 30h16q24 -13 24 -16v-28q0 -5 -24 -19h-13q-19 14 -27 30zM808 2132v13l13 14h7l13 -14v-10l-9 -10h-17zM835 1909v17l10 13v43q9 30 39 30h4 q17 0 33 -23v-30l-27 -46l3 -4v-20q0 -17 -13 -23h-20q-14 0 -14 30zM894 1766v10q0 6 24 20q1 13 9 13h37q14 -8 24 -30v-5q-15 -34 -41 -34l-3 -4l-26 13q0 6 -24 17zM924 1228v10l17 17h3l16 -17v-10l-13 -13h-9zM954 1289l10 5l4 -3v-2l-8 -8zM977 1962v20l17 14l23 -20 l-13 -20h-20zM1014 1830v17q6 15 33 29q26 -9 34 -23v-27q-11 -22 -34 -22q-27 8 -33 26zM1030 2072v7l7 6h4l10 -10v-6l-10 -11zM1060 2753v4l10 9h14l10 -9v-4l-13 -13h-8zM1081 2135l9 10h4l6 -7l-14 -13zM1090 1378v26q13 24 37 24v19q0 5 23 17q0 -6 13 -6l7 -17 q-10 -14 -10 -27l7 -20v-16l-23 -24h-30zM1090 1454v13l8 7h9l9 -10v-3l-13 -14h-5zM1103 1889v24q4 10 21 10h3l36 -34v-10q-2 -16 -9 -16h-24l-14 16q-13 0 -13 10zM1103 2457v7q11 23 17 23h21l19 -19v-7q-14 -27 -19 -27h-14q-16 7 -24 23zM1107 1517l13 13h7l14 -13v-3 l-11 -10h-10zM1144 1624v13q14 21 36 29h3q8 -6 24 -6l13 -23v-20q-6 -23 -33 -23h-20q-14 8 -23 30zM1163 1467v4l11 10h3l13 -14q0 -9 -13 -9q-14 4 -14 9zM1193 1508v22l16 17h28q19 -13 19 -33v-4l-26 -26h-13q-17 7 -24 24zM1193 1707v16l10 10h10l17 -16v-10l-13 -13 h-10zM1217 1664v9l7 7h23l13 -16l-10 -11h-24zM1217 2298v9q11 24 16 24h20l20 -20v-20q0 -4 -23 -15h-10q-16 6 -23 22zM1287 2371v7l13 13h9l11 -10v-13l-11 -10h-9z" />
<glyph unicode="g" horiz-adv-x="1260" d="M-205 2246l2 4h4l7 -7v-6h-3zM33 732l13 17l-5 5v17q0 8 9 8v22q47 26 47 80q50 54 57 79v34l6 9v14l-6 11v36l-8 10v33l-6 10v33l-7 10v14l4 2v3l-7 8v4q46 55 46 89q16 73 20 73l-3 3v20l30 90l3 4l-3 9q44 84 71 113q59 70 142 100l17 6h6l7 -6v-90h30l9 7h147 q7 -6 80 -17q0 -7 35 -13q0 -6 41 -20q115 -80 152 -176q34 -70 41 -123l6 -30l7 -37l3 -2v-58l7 -9v-139l-7 -8h-272l-8 8v206l-5 9v21l3 1v4q-7 0 -7 27l-30 66l-40 37l-53 17h-53q-72 -25 -77 -43l-3 -4h-3l-3 4v19h-7l-4 -56v-10l-6 -10v-133l13 -16l-3 -11 q26 -37 56 -123l-19 -22v-41q43 -7 43 -13l6 -17v-19l-6 -11l17 -22v-70l6 -10v-60h3q0 16 20 27h17l20 -21v-26q0 -10 -17 -10v-7l23 4h386l10 -11v-212l3 -100l6 -6v-47l8 -10v-56l19 -43l64 -14q0 -4 23 -13l-4 -17v-6q17 -1 17 -10q-58 -36 -60 -43v-7l17 -19l-10 -14 l6 -11v-5q-12 -26 -66 -60q-23 -28 -23 -50v-169l-7 -8h-123q-8 1 -56 110l-14 16q-10 -3 -40 -45l-22 -17v-4l3 4h30q23 -18 23 -30q-7 -34 -23 -34v-16l6 -10v-3q-6 -8 -6 -24l-24 -14h-20q-21 9 -30 30v14l11 23l-4 4l4 4l9 -4l10 4v5l-14 17v7l8 10h-8l-32 -21 q0 -18 -11 -18l-19 2q-43 -8 -43 -33l-17 -14h-6q-18 17 -31 17h-103l-13 13v101l4 2v4l-57 13q-75 36 -130 100q-49 69 -76 173l-3 19l-7 8v6l3 16q-6 0 -9 41l-4 3v49q0 6 -23 17v21l7 6l-4 3v23l4 17l-13 23l6 7v4l-17 42l-10 10v24l4 4v2l-13 16v8l6 9v27l-13 24l7 9v14 l-31 30v19l14 17l-30 27l10 13v4q0 7 -41 16q0 10 -13 27zM80 399v13l13 13h14l13 -13v-13l-13 -13h-14zM320 2104q8 20 23 30h6q26 0 33 -17v-27q-7 -16 -33 -16h-6q-15 9 -23 30zM466 11q18 -30 77 -54h72l37 20h3v7l-7 10v13l7 9l-10 34l-4 4v13l4 4v2l-6 7v23 q25 39 49 43l10 14q-6 15 -36 46v7h-17l-6 -7v-2l6 -11v-17l-23 -33v-6l6 -10v-20l-26 -27h-27v-17l3 -13q-7 -36 -30 -36v-3l14 -24q-6 0 -6 -10l-4 -3h-17l-13 13v7l13 17v3q-31 0 -35 49h-4l-13 -22l-17 -8v-22zM483 1239v11l18 19h4l21 -19v-11l-17 -17h-9zM496 299 l35 -13h38l26 -22h3q11 0 13 43l4 2v4h-10q-20 0 -20 13h-7l-9 -6h-26q-8 0 -21 26v6q25 24 40 60l10 7h20l17 -13h6l24 13h29l26 -23l11 7l-3 3v13l6 10v10h-30l-10 -7h-36q-7 7 -34 7l-3 3v226q-30 0 -30 23h-6q-6 0 -16 -30l13 -9v-40l-8 -14l-3 -89h17l7 -7v-14l-13 -13 h-8q-5 0 -5 13h-4v-42q-12 -14 -17 -56l-4 -4v-4l4 -16q-8 -4 -17 -46l-5 -17zM543 133h2l27 34v26h-20l-4 -3h-3l7 -33q-6 0 -9 -24zM543 432v4l13 13h6l7 -7v-13l-7 -6h-10zM598 226l7 -6v3l-7 7v-4zM611 792v16q10 20 34 30h20l23 -23v-27l-26 -26h-17q-23 8 -30 26z M652 323q15 0 23 -16v-17l-17 -21v-9l7 -8h13v17l10 38l3 2v20l-13 14q-12 0 -26 -20zM715 888v20q14 18 30 26h4q15 -8 29 -26v-20q-10 -14 -29 -24q0 6 -25 11zM775 875v3h9l-6 -7zM811 -189q5 0 10 13l3 4h7l14 -14v-6l-14 -13h-7zM851 -312l7 7l2 -4v-3h-9zM881 3310v2 l13 14h13l14 -14v-9l-10 -10h-17zM888 1542v13l9 11h14l10 -11v-16l-10 -10h-4zM901 888v26q19 33 63 33l4 4h33q15 -8 23 -24v-26q-9 -22 -60 -34l-4 -3h-36zM1014 1984v13q0 6 16 10q17 -4 17 -10v-13l-14 -13h-6zM1260 1761v20l20 21h10q19 -15 26 -31l-23 -26h-7 q-18 0 -26 16zM1625 3649v19q0 18 17 27h33l16 -16v-28q-8 -22 -27 -22h-19z" />
<glyph unicode="h" horiz-adv-x="1039" d="M-406 668v21l20 21h19l17 -17v-25l-17 -16h-19zM-370 78v7l13 13h11l9 -11v-9l-13 -14h-7zM-300 1071v7h3v-7h-3zM-290 48v6l6 7h4l10 -10l-14 -10zM-280 144v7l20 19h6l14 -13v-13l-14 -13h-13zM-280 211q13 27 20 27h17q6 0 19 -27v-3q-14 -25 -19 -25h-17q-7 0 -20 28 zM-257 24v21l14 13h13l13 -13v-21l-13 -13h-13zM-183 78v9l9 11h9l17 -13q-3 -21 -9 -21h-13zM-166 -6h5l8 -5v-8h-8l-5 8v5zM-153 197v3l17 17h2l20 -17v-3l-17 -17h-5zM-140 500l17 16h19l13 -13v-13l-16 -16h-16q-17 7 -17 26zM-140 589v14l9 10h10l11 -10v-17l-8 -7h-13 zM-118 64v17l17 17h24l16 -17v-13l-20 -20h-20zM-110 -341q6 13 16 13q13 -5 13 -9v-14l-16 -13l-13 16v7zM-4 540v6q16 24 29 24q15 -6 28 -24v-13l-21 -20h-17q-6 0 -19 27zM29 1048v7h3v-7h-3zM39 -790q0 28 23 41h13q17 -8 24 -24v-17q-7 -16 -24 -23h-13q-23 14 -23 21 v2zM55 400v10l7 6h8l5 -6v-10l-9 -10zM55 681q11 14 58 127q52 77 52 104l3 4v31l7 12l-7 9v93l7 10v515l6 7h260l6 -7v-433l40 -32v-3l-6 -7h-17v-3l7 -11v-23h13l3 4h4l3 -4v-17l-36 -82h-11v-67l-23 -30l4 -9l2 3q11 27 17 27h7q8 -2 40 -57l-3 -4v-6l3 3h6l8 -6v-4 l-21 -36q-23 0 -23 -10v-40l10 6h20l17 -13h10q0 13 6 13h73l7 -6q-12 -2 -23 -27v-14l10 -9q8 35 30 50h36q14 0 14 -24h16v4l-13 23v30q26 39 26 50h10l-10 10q-11 -24 -16 -24h-4l-6 7v73q0 9 13 11l-20 30v5l13 28v2l-6 11v66l6 10v10l-6 10v37l17 27v3q-17 0 -17 6v352 l6 7h260l6 -7v-677l-13 -17l13 -17v-13l-6 -10v-13l6 -10v-123l14 -17v-13l-4 -3v-4q33 0 73 -43l-6 -13l-3 -126h-11q0 9 -14 22v8l14 26v21h-10l-9 -8h-24l-16 13h-10l-7 -5l13 -25v-5q-13 -40 -36 -61v-13l10 -10q0 10 13 30l-4 10l37 19q54 -37 54 -52v-31l-21 -29v-7 l17 13l4 -3v-63l-4 -17l7 -5v-58q-67 -54 -77 -69v-419l-6 -7h-260l-6 7v389l-7 10v33l13 26v7l-23 -13l-7 6v50l-6 10q6 0 6 16q7 0 11 34h2l11 -7h6v7q-13 10 -17 43l4 10h-4l-13 17v4l7 9v37l-7 10v3l13 17q14 -10 24 -10v3q-13 15 -16 59l23 25l-7 5l-10 -5h-40 q-9 0 -10 16h-30l-36 10l-4 3h-19l-11 -10v-6h70q0 -11 14 -30v-8l-17 -13h-16q-25 18 -25 38h-18l-44 22h-77v-35l-6 -12v-236l6 -9v-53l7 -10v-10l-3 -3v-4l17 4h9q16 -8 24 -24v-26q0 -11 -37 -20v-20q13 0 13 -6v-263l-6 -7h-260l-6 7v252l-10 11l-10 -8h-29l-38 40 q-18 0 -18 7v7q9 8 9 29l30 21h9q16 -7 50 -41l7 7v242q0 9 -30 14l-13 17v16q15 23 40 23l3 4v275l-7 13h-29l-64 -35zM99 -32q9 14 30 23q20 -9 29 -23v-23q-9 -15 -29 -24h-7l-23 24v23zM202 533h3v7h-3v-7zM209 493h9v3h-9v-3zM261 723l7 -8h4v8l-11 3v-3zM278 470 l11 -8h5v8l-9 9zM298 436l4 -9q9 0 33 -17l2 4h4l-4 16v6q0 12 17 30v8l-17 -13h-18l-12 5q-7 0 -9 -13l4 -13zM298 782q0 -7 21 -7l18 -13h4v23l7 10h-11l-16 -13h-2l-21 13v-13zM302 609q19 0 19 -20q12 0 27 -19h6v2l-17 21v23q-16 0 -22 6zM307 583h12v3h-12v-3z M307 912h8l9 5h4l20 -18h6v5q-17 12 -17 47l-9 -5l-7 5l-10 -35zM328 742h4v7h-4v-7zM337 403h11v3h-11v-3zM337 745h8v7h-8v-7zM368 367l16 -7l7 10l-10 7h-3zM368 698l10 -9h6l20 13l-3 4h-33v-8zM368 865h7v7h-7v-7zM368 985h7v6h-7v-6zM368 1025h33v3q-27 0 -33 7v-10z M378 -753h10v-7l-7 -6l-3 4v9zM381 655h3v8h-3v-8zM398 832l10 -10l7 10v6l-11 10l-6 -10v-6zM421 808l9 -9h15v9l-24 4v-4zM424 556l4 -16q5 0 17 26v4h-4zM438 419l7 8h2l7 -8l-7 -5h-2zM441 719h10l7 7v2l-17 -2v-7zM445 373v7q13 12 13 26l3 4h33q23 -11 23 -17v-29 q-8 -14 -30 -24h-6q-24 10 -34 30zM447 576h4l10 7h20q14 -13 30 -17v-7h6v11l-13 23v3q13 10 17 43h-10l-14 -10h-3q-18 0 -43 17h-4v-13l11 -14v-16l-7 -7l3 -3v-7zM481 227l16 13q7 0 20 -27l-17 -9zM497 1005v3q14 23 20 23h7l19 -20v-6l-22 -24q-16 8 -24 24zM530 533 l11 -10h6l26 13v4h-2l-41 3v-10zM530 642l11 10v3h-3l-8 -5v-8zM530 710q8 0 8 -13h3v18h-3zM530 719h4v7h-4v-7zM551 377v20l20 19h13l10 -10q-11 -42 -17 -42h-13zM573 1108q10 23 27 23l20 -23l-13 -24l-4 -3h-3q-18 7 -27 27zM590 636l17 -3v3l-10 10h-7v-10zM627 616 l7 -10v-20l-4 -3v-4q38 -3 47 -13h13v4l-20 29v14q27 41 37 42h3l13 -3l13 3v8l-9 -4l-17 4h-10l-43 -41h-30v-6zM657 899v5h3v-5h-3zM674 300q18 8 20 21l19 6h23l4 -4h4v7l-17 4h-30l-23 -27v-7zM690 370l13 -10h24l17 7v3q-16 0 -24 7h-23zM690 553q11 -30 17 -30v13 l-10 27h-7v-10zM690 1031l23 -13l20 13l-30 10h-6l-7 -6v-4zM694 490l3 -11q7 0 16 34v7h-3q0 -10 -16 -30zM697 41l10 -9v9h-10zM697 211l6 6v4h-6v-10zM697 697l6 -8h10l10 8h21v9h-37l-10 6v-15zM697 858h10q0 26 -10 27v-27zM697 988l10 -3v6h-10v-3zM697 1191l10 -10v2 l-4 25h-6v-17zM703 1157l10 4v6h-3l-7 -6v-4zM723 513q7 -20 13 -20h4l9 10v30q-26 -13 -26 -20zM727 838l6 -16h11l5 16q-5 0 -5 10h-8zM727 1167q6 0 6 -10h11v21h-8zM747 543l6 -7h7q0 16 44 47l42 -30l7 6l-14 20v24l30 49v11h-3q-11 -17 -36 -30h-26l-25 13h-9v-7 l17 -26l-8 -7l4 -10q-7 0 -7 -24l-27 -13l4 -3v-3zM749 221l11 -8q5 0 10 25q21 0 34 22q42 -34 42 -43h4v10l-11 24v23q17 39 30 39v21h-3l-13 -21l-31 -13l-35 17h-17v-7l17 -26v-10l-8 -7l4 -3v-7zM749 808l11 -9h14v9l-25 4v-4zM749 875l8 -6q19 27 47 43h2 q32 -10 33 -17v-13h7v17l-7 9v24l17 30v6h-13l-17 -9q-20 0 -47 16h-9v-7l17 -21v-9l-8 -6l4 -3v-8q0 -5 -34 -43v-3zM749 1204l8 -7q5 0 17 27v3h-4q-7 0 -21 -23zM753 476l7 -6h14v9l-17 4l-4 -4v-3zM757 1127h9v11h-4l-5 -7v-4zM770 387l13 13h-4l-9 -10v-3zM770 719h9 l-5 7h-4v-7zM774 1055l5 -7v9h-5v-2zM776 1234l3 -4h4q17 11 17 27h4q5 0 13 -23h5l11 10l-7 6l7 11l-11 6h-9l-9 -6v2q-28 -14 -28 -29zM779 726h8v2h-8v-2zM787 449l5 -5v-34h14l14 4l26 -17h4v3q0 16 -17 49q17 13 17 30h-4l-16 -22l-24 4h-10zM787 779l5 -10v-30h14 l11 6q29 -8 29 -19l4 2h3l-20 44v7q15 12 20 33h-3l-20 -23h-43v-10zM792 1078l12 -10h2l14 10q19 -5 19 -17h7v17q-11 38 -24 40l-5 -7h-25v-33zM800 104h9l-9 11v-11zM839 1121h7v10l-7 -7v-3zM853 211l16 -16h7q24 11 24 16l-40 2h-7v-2zM860 387q3 -20 9 -20v13l-9 10 v-3zM860 493l20 -6h16l13 6v3l-13 7h-27zM860 533l9 -10h14l17 7v3q0 7 -27 10l-13 -3v-7zM860 712h3v7h-3v-7zM860 815h6l23 4l4 -4q0 7 16 7v3l-13 7h-27l-9 -10v-7zM860 862l6 -10l3 3h4l13 -3l14 17l-34 3h-6v-10zM866 164h14v3h-14v-3zM866 1187h20l-10 10h-10v-10z M876 1151h24v2q-16 0 -24 8v-10zM886 2170v14l7 7h3l10 -10v-7l-10 -10h-3zM889 347l13 -13l-2 13h-11zM919 307h13v3l-6 7h-7v-10zM919 639l10 -10l10 10l-13 7h-7v-7zM919 702l10 10v11h-10v-21zM919 964h10v11zM919 1038h10v19h-6l-4 -16v-3zM936 553h10v17l-10 -11v-6z M956 287l7 -10v-20l-4 -3v-3l4 -4h9l11 7h6l9 -7h8v13q-10 33 -17 34h-33v-7zM956 570h3v6h-3v-6z" />
<glyph unicode="i" horiz-adv-x="775" d="M-595 1508v26q8 20 32 30h3q34 -10 41 -30l3 -4v-9q-16 -33 -30 -37h-27zM-473 458v5l13 14h4l13 -14v-1l-9 -12h-14zM-313 1285l10 9h6l7 -6v-3l-10 -10h-3zM-267 1075v30l23 23h20l24 -23v-30q-10 -14 -31 -23h-6q-21 9 -30 23zM-260 1478v2l6 7l8 -7v-2l-8 -7z M-214 843v16q0 9 14 10q20 -3 20 -10v-13l-14 -13h-9zM-200 1681v9l6 -6l-3 -3h-3zM-101 580v21l13 13h21l13 -20q-8 -23 -30 -23q-17 3 -17 9zM-4 324v28q8 20 23 29h27l23 -23v-30q-14 -27 -20 -27h-30zM12 660l20 21h7l13 -14v-14l-13 -13h-13zM19 -27l13 13l7 -8v-5 l-7 -8h-6zM62 905v4q97 21 116 30q57 23 57 70l6 17v501l7 7h259l7 -7v-388l-3 -17q15 0 26 -20v-16l-7 -11v-3q26 -27 56 -27v7q-11 0 -22 27v13q8 27 34 27l2 3q25 -10 33 -30l4 -3v-7l-7 -7l3 -17l-3 -2v-4q17 -11 27 -33q-7 -8 -7 -24l-22 -13h-17q-25 8 -25 27v3 q-59 -49 -59 -86l-10 -10q0 -14 13 -33v-4q-8 -13 -46 -26l-3 -10l3 -10l-10 -26l10 -27v-143l-7 -23q8 0 13 -70q-9 -17 -9 -34v-3l3 -53l-3 -4v-3l3 -13v-6q0 -11 -10 -24l14 -56q36 -3 36 -27l3 -3l-3 -3l-20 6h-3l-4 -16q14 -7 14 -20l16 3l7 -27v-56q0 -56 -13 -56 l-7 19v30l-7 7h-3q-5 0 -20 -30l10 -23l-6 -30v-6q19 -14 19 -24l-19 -13v-101l2 -16l24 3h10l6 -5v-21l-6 -7l-23 14q-11 -13 -11 -23v-4q11 0 11 -6l-17 -14l4 -32v-21l9 -10l7 7v16h7v-66l-17 4h-4v-4l4 -23l-6 -50l2 -13l-2 -4h-57l-13 -3l-23 3h-147l-7 7v298 q0 7 -29 17l-7 10v17q13 20 34 20l2 3v130q-6 7 -6 22l-10 -5h-27q-38 32 -39 52l-16 -3l-4 3v4q0 7 13 7q0 23 30 36h6l10 -6h37v16l-7 10v20l13 30v93l7 7l-3 2v12l7 9v43q0 23 -27 37l-10 13v10l20 23v7q-14 0 -20 13v7q6 14 20 14v9q-10 29 -20 34h-3v-4l3 -9 q-10 -21 -33 -21h-17q-6 1 -20 30v7l24 23h19l24 -4v17l-27 40v13l3 4v2q-17 21 -74 41q0 16 -5 16q-12 12 -47 26zM62 1082v4l13 13h8l5 -7v-6l-13 -14h-3zM79 1228v30q8 17 35 27q24 -10 42 -33v-17q-18 -23 -42 -34h-5q-16 9 -30 27zM96 315v3l13 13h17l9 -10v-10 l-17 -16h-4zM185 428l7 6h10l6 -6v-7l-6 -6h-4zM198 348l4 4h3v-11zM288 -343q7 6 7 33l10 6h6l10 -9v-7l-6 -10v-4l6 -9v-4l-10 -9h-13l-10 9v4zM367 -353l12 10h1l15 -13l-15 -13zM414 -177v-7l7 -6l6 10v13l-6 7h-3zM414 -216v-25l4 -39h3q0 20 13 50q-2 9 -16 16z M427 905q14 -29 27 -42q15 0 53 50l-3 3l-10 3v3l-23 -3h-30zM461 889v7h10v-4l-7 -6zM484 282l4 -24q6 0 6 16h3l-9 14l-4 -3v-3zM488 -187l2 -3h4l7 10h-7zM488 226l2 -12h7l7 8l-10 9zM494 550v17l7 6l6 -6v-17h7l3 17v27h7l6 -7v-33l-3 -4l3 -3v-13l-9 -10l-14 23l-3 -3 h-3zM501 52v3l6 7l4 -3v-7h-10zM530 -373q12 30 17 30h7q23 -11 23 -17v-30l-17 -17h-16q-7 0 -7 24l-7 6v4zM541 42v23h3q7 -1 13 -16l-3 -16h-3zM541 145v30h6q0 -16 7 -23l-3 -3h-4l4 -4v-7h-4zM541 192v66l6 7l10 -43q14 -2 14 -11v-2h-7l-4 2h-3q0 -10 -10 -10v-9h-6z M541 278l10 7l3 -3v-4l-7 -7zM544 -38l3 3h47q18 0 30 -9l9 6l11 -6l6 6h10l7 -6l16 4l7 -8l-3 -3v-3l-57 6l-16 -6l-3 14h-17l4 -4v-7l-12 -3l-15 3l-24 -3l-3 3v3l3 4v4zM544 -118l7 7l3 -3v-4l-7 -6l-3 4v2zM551 22v3h9l-6 -5zM551 338v6h6v-6h-6zM551 371v13h6v-19z M551 627v282h3q60 -20 60 -26v-63l-14 -27l3 -3v-10q-5 -8 -19 -83q-7 0 -7 -14l-4 -2h-2l2 -4v-10q-5 -7 -5 -30q-8 0 -8 -10l-3 -3h-3zM554 467v4l6 6h11l6 -6l-4 -4v-4l-2 4h-3l-11 -4zM554 491v2l6 8h4l4 -4l3 4h10l3 -4h2l4 4q7 -24 13 -24h4l9 7l4 -4v-18h-4l-9 1 l-4 -1l-5 5l-4 -4h-4l-4 4l4 4v13l-9 4l-21 -4zM557 -40v-4h11v4h-11zM577 916v10l7 -7l-3 -3h-4zM600 -137l30 56h27l10 -10v-46l7 -10v-7q-10 -20 -24 -30h-26q-16 8 -24 24v23zM611 -214l19 20l14 -13v-7l-14 -13h-6zM628 477v7h2v-7h-2zM647 1089q6 0 10 23l13 10h26 q20 -8 28 -27v-16q-8 -20 -28 -27h-22q-17 9 -27 37zM834 1813l2 4h3v-11z" />
<glyph unicode="j" horiz-adv-x="849" d="M-265 693v11q17 31 23 32h34q14 -10 22 -32v-11q-8 -21 -30 -35h-18q-22 14 -31 35zM-84 451v14q17 18 32 26h4l26 -21h3l10 8h7l21 -17v-10l-21 -16h-9l-11 5h-3l-23 -13h-4q-23 10 -32 24zM-15 609v22q8 23 26 23h13l27 -23v-22l-17 -17h-32zM2 1127v15l13 14h13 l23 -20q-13 -25 -17 -25h-15zM34 44v7l5 9v37l21 22h13q21 -15 99 -22l3 -3h65l56 25q10 8 13 46l4 3l-4 17l4 4l-6 6v7l10 39l3 3v43l6 10v374q-35 21 -35 36q-29 0 -34 59l-17 26v11l4 2v4l-29 38v4q25 23 25 50l-4 2v4q0 8 47 52q0 20 8 27q-12 23 -25 37v7q42 41 60 74 v311l-13 18v8l13 17v262l8 7h85v-267h159l7 -6v-105l23 -49v-3l-23 -43v-137l46 -17h52l10 7h23l36 -10l4 -3h30q9 -7 18 -36l-134 -76q0 -13 -24 -23v-20l-18 -13q0 -11 -26 -45v-30q14 0 29 -24v-8q0 -31 -29 -40q0 -38 -17 -56v-108l7 -10v-33l-7 -9v-30q53 -13 53 -19 l16 -14v-6q0 -6 -32 -27q-12 -27 -30 -27v-22q15 0 23 -19v-17q0 -6 -23 -20l-7 -13v-30q0 -11 43 -15l46 -40q42 0 42 -23q-4 -14 -16 -20h-30l-24 -15h-41q-8 0 -20 -26v-218l-7 -9v-44l-6 -15q0 -92 -69 -213q-13 -3 -23 -27l-59 -44l-2 4v250q-54 -12 -54 -27l-16 -41 l3 -4v-3q-4 -17 -10 -17h-16q-30 19 -118 42q-30 16 -114 30l-13 3l-4 3v47l-8 12v49l-13 31l4 3v4q-7 0 -7 28zM53 500l7 7l7 -7l-7 -6zM215 304v15l21 13l21 -24q-7 0 -7 -14l-3 -3h-19zM670 352q4 17 10 17h7l13 -13v-4l-10 -10h-10zM674 403v5l13 15h13l13 -15v-5 l-20 -21zM716 97l4 3h4v-10zM716 824v3l17 17h23q0 15 13 24h13l9 -11v-16q0 -10 -22 -10q0 -26 -17 -32h-19q-5 0 -17 25zM724 615l17 16h2l13 -11v-15l-13 -9h-10q-6 0 -9 19zM727 280v7l14 13h11l9 -9v-11l-13 -13h-7zM733 202v9l8 6h2l9 -6v-9l-9 -7h-2zM741 422v31 l15 14q4 0 26 -36v-4q-3 -9 -24 -19q-17 6 -17 14zM758 898v18l11 14h19q5 0 16 -27q31 0 31 -13v-17l-14 -13h-13q-14 7 -22 24q-15 0 -28 14z" />
<glyph unicode="k" horiz-adv-x="1239" d="M-304 48v2l5 7l8 -7v-2l-8 -8zM-299 848v2q13 24 17 24h21l13 -13v-24l-20 -13h-14q-4 0 -17 24zM-235 203v20q14 20 37 31h16q34 -16 34 -45q0 -22 -34 -36h-16q-35 22 -37 30zM-185 33l13 17h14l10 -10v-13l-10 -9h-14zM-169 316v20l21 13l20 -20v-6q-3 -10 -24 -17 q-17 4 -17 10zM-148 535v7l9 10h4l13 -14l-13 -13h-4zM-142 -76l7 -7l-4 -3h-3v10zM-139 166v14q8 19 28 27h13q11 -5 19 -21l16 -3q14 0 17 24q18 0 24 30l23 9v9l-20 30v31h-17l-10 7h-13l-36 -17q15 20 46 30h24l9 -7h17l7 7q-14 5 -20 16v20l6 10h-10v4q1 6 30 23l4 3v4 l-4 3v3l4 13l-7 7l7 10l-7 7l3 3h14l10 -6h13q6 0 26 33l4 2h3v-5l-23 -54q47 -58 47 -69l-4 -11q36 23 36 64q28 5 28 13v19q-13 34 -44 34h-27l-6 7v2q0 14 36 14l-3 3v8l14 22q25 -10 33 -22v-13l-7 -12q11 -13 30 -13v-3l9 3v21l-22 26v4q0 6 9 6v27h-3l-16 -13h-14v6 q7 13 16 13v14l-5 10l5 9v4q-17 27 -82 60v36l17 24h32l137 62l-4 4v7l4 3v3l-40 74q0 16 -34 26l-13 24v5q10 30 37 30v38l-3 13q17 27 23 102h-3l-20 -16h-21q-22 8 -22 27v23l13 17h26q21 0 21 -17h6l-3 23v30l3 4v3l-17 10h-10l-9 -8h-13q-25 13 -25 17v27q12 22 25 27 h13l30 -20l3 3h3l-3 4v43l3 3v3l-3 3h-3l3 34v229l6 7h266l7 -7v-250h7q20 23 66 27l3 4h29l29 -27v-23q-17 -30 -58 -30h-13l-10 -7h-13l-10 7h-7l-23 -23v-126l79 30l13 13h13l17 -13l43 109q0 13 8 13l-4 4v7q13 16 40 102q8 3 17 41l3 2h3l-3 3v8l53 132l3 4h263l7 -7 l-202 -472q39 0 52 -23q29 0 43 -23v-20q-14 -19 -30 -27h-6l-37 27h-13l-9 -10v-3l13 -33q-8 0 -13 -30q-15 -13 -28 -13h-19l-14 9l-7 -9v-17l14 -24v-16l-7 -10v-13l20 -57v-3l-3 -4v-3q4 0 30 -97l44 -168q48 -177 65 -257q7 0 10 -30l-3 -13l7 -7l-14 -30v-43 q35 -50 67 -122q5 0 16 -38q19 -18 20 -35l56 -4h44l7 -7q-47 -63 -47 -116q1 -12 76 -79q2 -13 11 -13h62q8 6 37 9l3 4v3l-86 103l-10 13v33l17 13h13l7 -6q-27 -11 -27 -27l-3 -3l106 -120l23 34v49q-15 39 -23 47l7 6q30 -23 30 -63v-20q0 -41 -33 -70q43 -70 43 -112 l3 -3v-37l6 -10v-14q-19 -62 -92 -112q-40 -31 -77 -46v-14l24 -24h13l10 7h49q21 -9 30 -47q8 0 8 -13l16 -6h49l20 6v8l-29 49v20q9 30 23 36h23l17 -16l-4 -4h-4l-6 7h-16q-17 -8 -17 -33q0 -31 33 -57h4q0 14 6 14h4l7 -7q0 -7 -15 -7q26 -21 54 -29h76v-7h-17l-9 -7 h-47l-59 24l-7 6q-26 -16 -56 -16h-24q-40 0 -50 53q-6 0 -6 10h-34l-46 -4q-33 20 -33 40h-7q-58 -31 -120 -43l-3 -3h-56q-43 16 -70 46q-33 40 -56 96v64q29 43 49 43l3 3h54l46 -13q19 -5 37 -20q88 -43 126 -133v-20h4q158 88 158 159q0 60 -30 127q-10 36 -19 36h-3 l-53 -19l-93 -4l-7 -7h-27q-6 8 -43 11q-5 12 -56 13l-7 6h-76l-11 -6h-32l-11 -7h-13l-36 11l-3 2h-21q-7 0 -23 -39h-3l-10 9v11l16 13l7 13v37l-13 16v3l3 17q-24 33 -30 33h-3q-15 -10 -33 -10q-24 37 -30 37q-13 20 -33 20q-17 0 -50 -63l13 -24q15 -14 39 -23h21 l40 47h10q23 0 39 -17v-13l-13 -13h-3q-9 0 -10 17h-4q-23 0 -36 -27v-7q32 0 36 -23v-20l-13 -17l7 -7v-13l-7 -10l17 -3l20 3l6 -10v-3l-6 -10l6 -6l-6 -7h-10l-10 7q-16 -12 -40 -54v-33q8 -26 47 -26l16 -8v-5q-10 0 -23 -13l-13 -4h-7l-50 52h-27q-14 -4 -39 -60 q0 -9 -13 -19l-13 27v5q0 7 30 12v3l-12 13v3q30 27 30 37q0 13 8 13l-4 3v7l4 3v4q-8 0 -21 27l25 6l35 -17q0 7 30 7l14 30v16q-8 23 -40 34l-13 13q0 -7 -17 -7l-13 -17h-25v4l29 33v26q-5 11 -34 21q0 17 -26 19l-4 4l-10 -10q-7 -21 -20 -21q0 -17 -13 -35q5 0 16 -30 q20 -14 49 -17v-7q0 -5 -26 -17h-16q-39 47 -56 54h-11q-17 -10 -36 -43l3 -11l-13 -22v-4l43 -26h30q7 0 13 19l17 7l-3 4v6l13 13h3q14 -13 37 -13l2 -4v-15l-9 6h-4l-36 -10l-13 -23v-7q0 -45 30 -66v-13l-7 -8h-3q-21 39 -43 47q-25 0 -47 -30h-10l-6 7v3l29 33v7 q-9 37 -36 37q-7 17 -23 23h-14q-4 0 -15 -23q-8 -1 -17 -34v-23q12 -30 56 -30l9 -9q0 -8 -33 -17l-2 4h-4l-9 -4q-15 22 -55 52h-13q-21 -6 -29 -30l-4 -2q0 -11 -7 -11l-10 21v6q21 24 34 60v3l-20 23l7 8q-21 0 -28 6l-6 -6l-7 6l-6 -6l-7 6l-6 -6h-17q0 -13 -17 -34 v-13q11 -10 14 -36l13 -4v-10h-7q-33 20 -33 29h-3l-14 -10h-10l-5 8v13l2 3v3l-6 7v10q9 17 22 17l11 -10h3l-3 3v3l20 23q10 0 20 24h13q4 -7 40 -7l20 -13l26 -4l7 -6h30q16 4 31 33v6q-15 44 -31 44l-16 10h-4q-33 -24 -63 -33q0 -9 -34 -21h-16q-39 47 -57 54h-2 l-11 -7h-16q-2 -16 -28 -40h-5l-8 7q10 30 27 46l11 24v13q-11 21 -28 34h-2l-50 -4l-24 43l3 17v3h-6q0 -27 -20 -27l-3 -3h-20l-26 30q0 -10 -8 -10h-6l-7 7v10q10 5 10 43l27 33l-30 26h-20l-9 -5h-4l-10 5h-7l-9 -5l-4 2v3l13 21h13q9 -8 51 -13l13 -11h19q0 15 17 24 h20l10 -8h10l10 12v18q-9 27 -33 27q0 14 -44 14l-3 3v3l7 10v4l-7 16q-8 -9 -40 -20q0 -23 -17 -30h-5l-21 14v20q10 19 30 19v17l6 11v9q-15 0 -15 13h-8q0 -13 -17 -13v-13q17 0 17 -7v-6l-6 -7h-7q-7 0 -7 16l-10 -6l-36 20zM-139 495v8l7 5h4l9 -9v-4l-6 -6h-7z M-132 -43q14 14 37 14v-4l-3 -13v-20l6 -10v-3l-6 -7h-8q-9 2 -9 27l4 3zM-132 123v4l7 6l10 -10l13 4l10 -14l-6 -6h-11q-23 11 -23 16zM-132 246v8l7 5l3 -4v-9h-10zM-128 359v6h6v-6h-6zM-125 -73h6v-10h-6v10zM-125 283v2l3 4h3l13 -13l-3 -4h-2q0 8 -11 8zM-115 448 l6 8l7 -11v-3h-7zM-111 409v3h2l3 -3l11 3l14 -10v-7l-8 -6h-6zM-109 70v4l11 9h3l6 -6v-11l-6 -5h-3zM-109 246l7 8h7l6 -8v-7h-13zM-102 -20l4 4h3l6 -7l-3 -3h-3zM-95 661v23q0 6 23 17l21 -13v-23l-17 -14h-17zM-85 220v3l6 6h3l13 -13v-13l-5 -7zM-81 33v7l16 13 q59 -5 59 -20l-10 -10h-3l-6 8l3 9h-3l-26 -17h-4q-14 10 -26 10zM-81 -100h5l13 -13l-13 -13zM-81 365l2 17l24 -3h26l7 -7v-3q-1 -10 -27 -10h-27zM-79 283v10h11v-8l-8 -5zM-49 -139l3 3h8l16 -17l-7 -16q-9 4 -20 30zM-25 478l6 8h3l17 -8v-5l-7 -8h-6zM-22 173l46 -40 h27l37 50q-27 59 -64 59q-19 -3 -46 -62v-7zM-19 -186l7 7h4l9 -9l-3 -4h-10zM-8 61v2l9 11h7l6 -8l-6 -5h-16zM1 170v20l10 9h20l14 -13v-20l-14 -13h-13zM8 386q20 -7 20 -14v-23h23l26 -20h7l10 7l10 -10q-16 -9 -16 -29l-13 -21v-17l9 8h20l10 -8h7q0 34 34 34v6 q-15 0 -21 17q-21 0 -59 77l-24 19h-10q-33 -19 -33 -26zM18 -202l6 6h4l10 -6h7l9 6l7 -9v-13l-3 -4v-4l23 -22v-4l-6 -7h-8l-22 13h-4l-10 -6l-13 13v37zM24 562v33l14 17h7l9 -7l7 17h6q0 -11 30 -40v-17l-6 -10v-3l20 -20v-7l-7 -6h-7l-22 19h-30zM38 432l7 7l-4 3h-3 v-10zM41 40v4l13 13h7l14 -13v-4l-17 -17zM41 1422v7l26 27h8q22 -16 22 -30h4l10 6l10 -14v-2l-7 -7h-6l-11 7h-3l-19 -17h-11zM61 -186l10 7l4 -4v-3l-8 -6zM67 113l24 -26v-7l-3 -3v-3q5 0 33 -38l9 21q-9 12 -9 23v13l17 17h5l12 -7h5l8 17q-13 24 -17 24l-27 -24h-30 l-13 10h-6zM75 -46v-44q9 0 9 -10h4l9 8h24l17 -14h9l13 14v2q-6 0 -46 34q-17 0 -30 20zM77 1339v20l17 17h30l16 -17v-20l-23 -23h-16zM84 226q7 0 7 -10q30 10 30 17v9h-4q-8 -9 -29 -9l-4 -4v-3zM84 -279l7 7q6 0 10 -27h-7l-10 10v10zM84 -335h7v-4h-7v4zM94 808 q14 26 20 26h13q7 0 20 -26l-20 -21h-19zM114 1010v13l13 14h16l14 -14v-13l-17 -20h-6zM117 -322h7v-6h-7v6zM121 465v4l6 6h7l6 -6l-13 -10zM140 -153v-3q11 0 11 -10h17v7l-13 13h-8zM143 -345l8 6l13 -13l-7 -6h-2l-12 9v4zM147 332q11 -16 34 -26q0 20 6 20l-2 3v36 q9 21 32 21q-3 15 -17 20h-10q-43 -46 -43 -74zM151 6h6v4h-6v-4zM151 -109v-4h6v-6h-6v-3h6l3 3v3l-5 7h-4zM177 157l34 -11q21 0 33 20v41l3 2v4l-13 20l-17 6h-19l-17 -16v-7l13 -17v-16zM187 6q2 -9 27 -9h10l20 21q-10 0 -10 15h-20zM211 -156v-3q19 0 19 -20h4l13 20 l-20 13q-16 -4 -16 -10zM237 -230l4 -2v-11l-4 -3l13 -26l20 -7h30q34 23 40 36v4h-90l-6 7l3 19h-6zM241 254h6v1h-6v-1zM250 -449l7 8l10 -13l-7 -8zM257 -484l7 5l3 -3v-2l-7 -8l-3 4v4zM257 -501l7 6v-6h-7zM270 -482l3 3h4l4 -3v3l-4 13l10 8h3l10 -9v-4q0 -25 -10 -27 h-3zM313 -508h17v-6l-6 -7l-11 9v4zM347 -564q6 0 6 33l10 6l7 -6h13q0 18 38 52h5q39 0 67 -22q19 0 46 -17h4q36 18 36 23q1 16 10 16h4v-3l-4 -2v-4l7 -7v-3q0 -10 -14 -10l7 -10q-23 0 -23 -50l10 -23v-3l-10 -10h-3l-24 23h-20q-29 -10 -29 -30q-15 -30 -21 -30l-3 3 v40l30 40v20q-12 33 -43 33h-23q-24 -14 -34 -43v-3l30 -50v-3l-5 -7q-31 35 -71 40l-3 3v4zM400 -677l4 3h9v-11h-7zM409 -239v-7l34 -39h7l36 42l-3 4h-74zM413 -664l4 4h4l5 -8l-4 -3h-1zM430 1675v20q0 4 23 16h10l23 -23v-9q-11 -25 -17 -25h-19zM436 -641l17 13h7 q-5 -30 -13 -30zM473 -664h3l17 -17l-10 -6l-10 10v13zM509 -703q0 7 27 9l10 -17l-7 -6h-20l-10 10v4zM523 -29l16 -4q20 0 20 23l27 24h20l34 -13v-8h-41q-20 -5 -40 -46q21 -39 27 -39l24 -37h2q14 6 28 39q12 0 26 44v3l-13 17v10l5 6h8l30 -13h16q7 7 23 7v17l-33 30 q20 70 40 105v4l-43 173l-20 76l-17 53v14q12 24 24 96l2 3v7q-17 16 -26 43v7q1 5 34 19l-4 11l4 3v3q0 13 -30 27h-8l30 -27q-63 -27 -76 -49v-21q0 -7 54 -40q-7 0 -13 -35l-4 -4l17 -17v-4q0 -5 -17 -5l-13 -34l21 -20v-7q0 -7 -29 -13l8 -10l-8 -10l13 -14v-2 q0 -11 -22 -11v-29l7 -10v-7q-14 -9 -16 -43q-24 0 -51 -13l4 -4v-7l-31 3l-9 -13v-83h23l10 -6q30 40 40 40l19 6h8l5 -6v-14l-5 -6h-11l-10 6h-3l-33 -59q2 -54 33 -54l27 -5l2 -4v-4q0 -5 -32 -17h-10q-39 47 -56 54h-7v-106zM523 -90v-93h3q50 0 50 24l3 3v27l-10 26 l-30 17zM523 1001l9 5h17v11q-15 0 -23 23v7l6 10v10l-9 10v-76zM539 1177v17q15 31 43 31l17 -26q0 -16 -33 -32h-17zM556 -681l7 7l6 -7l-6 -6zM579 203v30h10l10 -34l-3 -3h-10zM579 -615l7 7h13l20 -13l-9 -7h-21l-10 11v2zM586 -658l7 7h6l7 -7l-7 -6h-6zM599 -467h7 v-4h-7v4zM599 1053h7v4h-7v-4zM606 1240v2l9 11h8l5 -7v-9l-5 -8h-8zM632 -508l8 7h1l17 -17v-3l-5 -7l-21 14v6zM640 140v4h9l-8 -8zM640 207v16l5 6h8q-2 -26 -12 -26zM653 66l17 14l2 -3v-11l-6 -5h-8zM653 678h5v3h-5v-3zM675 83v14l8 10v3l-8 10l11 7h19v-4l-3 -10 q7 0 10 -26l-16 -10h-13zM675 -531l8 6h5l11 -6h10q26 33 50 52l43 -9v-10q-73 -9 -73 -36l-10 -17v-4l13 -16v-4l-7 -6l-13 13l-16 -13h-13l-8 6v4l8 10v13l-8 10v7zM712 103v10l7 7v-17h-7zM732 -66v-24q10 0 17 -16l10 -7h13q-21 34 -40 47zM795 -289l3 4h4v-10z M802 -169h6v-4h-6v4zM802 -335h3l17 -17l-7 -6h-3l-10 9v14zM822 -508h3q18 0 26 -17l-3 -3h-16q-7 0 -10 20zM838 -379h7v-3h-7v3zM842 -398l6 6h3l8 -6v-11l-8 -6h-3l-6 6v11zM911 -449l8 -9v-34q12 -41 62 -102l43 -27h60l120 46l3 11q-6 0 -6 19q-41 92 -157 136l-33 14 h-60q-29 -14 -40 -54z" />
<glyph unicode="l" horiz-adv-x="942" d="M-289 692v4l6 6h7l7 -6v-8l-7 -6h-3zM-219 875l6 6h4l6 -6l-6 -7h-4zM-93 623l4 2h3v-10zM-86 559v3h6v-3h-6zM-86 728v23l16 17h21l19 -19v-17l-19 -20h-21zM-17 994l20 20l20 -14v-6l-20 -20zM3 482v24q8 16 24 23h19q24 -15 24 -33q-9 -21 -24 -30h-26zM49 838v20 q25 17 25 63l17 13h13q17 0 26 -16v-24q0 -10 -10 -22v-4l16 -17l-13 -9l3 -4v-7l-22 -23h-25q-20 8 -30 30zM74 466v13l18 20h21q13 0 13 -39l-20 -11h-14zM76 738q0 34 28 34q5 7 52 23q45 35 57 73v814l6 7h91l5 -7v-119h107l7 -8v-597q15 -52 49 -113v-14l-13 -26v-26 l7 -11v-4q-13 -10 -13 -32l-4 -4h-3l7 -26v-3l-10 -14v-49l-7 -11v-49l-6 -10v-34l6 -10l-13 -20v-3q13 0 13 -7v-6q0 -7 -10 -7l-3 -3v-7l39 -17l17 -19v-3l-3 -4v-4q5 0 13 -30l7 -5v-4l-14 -17h-13l-20 7v-3l40 -44l7 -13v-3l-34 -33h-16l-16 3l-7 -10v-136l7 -7l23 -20 l-7 -7l3 -3v-37l-6 -10v-3q10 -13 10 -43q9 0 23 -13h439l6 -7v-245l-6 -8h-462q-50 -14 -67 -48q-11 0 -17 -15v-2l7 -11v-26q0 -6 -24 -10q0 -14 -5 -14l-25 94l-1 2v34l-16 33v76l-1 24h-4l-10 -7h-7q-103 42 -103 59l-3 4v47l-7 10v47l-10 36l-3 3v24l3 3v3l17 -3h3 q16 12 27 33v163q-8 14 -60 40q0 42 -14 75v47q-6 7 -13 63l-3 4v57l-14 16v40q-21 35 -33 106zM92 240v26q0 5 25 17h16q23 -12 23 -17v-26q-15 -24 -36 -24q-14 0 -28 24zM422 387h7v5h-7v-5zM468 702v7l14 13h6l7 -7v-13l-7 -6h-13zM475 519v10l13 14h14l13 -14v-14 l-20 -13h-3zM475 576v26l17 17h23q17 -17 32 -17l15 4q15 -16 30 -54v-3q0 -10 -41 -13l-4 -4q-30 20 -62 30zM534 359v7l13 13h8l13 -13v-13l-6 -7h-15zM542 632v23l22 24h28l16 -17v-37q0 -4 -23 -16h-21zM581 389l21 20h6l20 -20l-13 -19h-21zM589 522v14l9 9h13l10 -9 v-17l-10 -10h-9z" />
<glyph unicode="m" horiz-adv-x="1418" d="M-115 365v8l13 13h8l13 -13v-4l-17 -17h-4zM15 807v4l10 9l3 -2v-3l-6 -8h-7zM32 698v33l16 6h13l21 -19v-17q0 -5 -24 -19h-3q-23 11 -23 16zM52 276v7h3v-7h-3zM71 263v6l7 7h13l8 -7v-6l-8 -7h-13zM108 682v3l30 26l6 13v30l-19 37v7q49 32 49 39v21q-19 38 -26 83 l-4 3v16l37 34v395h352l30 -153l4 -3v-20l-4 -4v-2q8 0 13 -74q8 0 8 -35q5 0 9 -34l4 -4v-20l-4 -3v-3q7 0 23 -113l7 -37l4 -4v-13l-4 -4v-1l7 -8v-30l16 -76l7 -37l3 -3v-20l-3 -3v-3l6 -7v-226l7 -10v-57l7 -13v-66h3v49l6 8v73l7 9v37l-3 16l7 7v50l-7 6l3 17v60l-7 9 v28l37 29v4l-20 30v10l30 92q25 0 36 120q8 0 11 33l3 4v10l-3 16q6 0 6 31q7 0 24 102l2 4v3l-2 16q6 0 6 37q7 0 24 92l2 4v4q0 34 28 156l29 162l4 4v3l-4 17q7 0 10 26h336l7 -6v-907l19 -14q64 -17 64 -30v-29l13 -47l-4 -4l14 -26v-20q0 -6 -40 -49l20 -14v-10 q-32 -9 -46 -39v-21q0 -7 43 -43q-56 -33 -83 -66v-485h172l10 6h67l14 7l89 4l6 5h33l11 8h40q43 -36 43 -57l2 -20l8 -7v-49q-17 -53 -50 -73q-14 -17 -54 -17h-9q-40 0 -57 47v13q10 21 23 27h37l19 -21v-13l-29 -30h-6l-7 7q17 20 29 20v10l-16 17h-6q-30 -11 -30 -17 v-13q9 -21 33 -34h40q39 16 66 64l4 3v59q-8 7 -8 27q-26 40 -39 44h-37l-10 -8h-33l-10 -5h-36l-11 -8h-52l-8 -6l-181 -3h-55l-9 -7h-219l-4 3h-4l4 17v22l-6 12v468l-37 73q0 14 -23 49v23q0 15 43 31l3 3v3l-16 16v25q12 18 36 18l10 14v63l-14 24l4 16v76l-9 -6h-27 q-6 0 -20 23v13q13 26 20 26h23l9 -5h4v4l-4 1v8h4l4 133v79l6 11v122l7 10v93l7 11v79l6 10v39h-6q0 -39 -24 -145q0 -17 -6 -17l2 -17v-6q-5 -6 -26 -120q0 -13 -6 -13l3 -3v-17l-10 -37l-3 -2v-8q16 0 16 -6v-11l-10 -9l-6 7l-17 -70h-3l3 -3v-24l-24 -95l-2 -4v-34l6 -9 l-19 -37q-18 -9 -53 -43l6 -7v-17q-47 -69 -79 -69q-28 -10 -34 -24v-4q17 -17 17 -32l-4 -11h17q50 -15 50 -26q-9 -19 -60 -36q-7 0 -7 -10l-13 -13v-27l9 -39l4 -4q0 -13 53 -21l16 -18v-21l-5 -7l3 -3v-16l-30 -133h-3l3 -17v-7q-7 -4 -14 -70q-6 0 -16 -70h-3l3 -2v-17 q-7 -11 -30 -134l-3 -3l3 -2v-17l-7 -7h-80v-182h-6v30q-13 28 -23 122v17q-6 0 -24 102l-4 4v6l4 4v3h-4l-13 -9h-13q-26 0 -39 26q0 34 34 46h22v17l-17 79l-5 30h-4l4 17v10q-8 0 -15 73q-5 0 -16 73h-3l3 17v10q-14 34 -20 103h-4q-7 -33 -13 -33l4 -4v-22 q-7 -8 -24 -104l-3 -3v-47l-6 -6l3 -4v-40l-7 -10v-3l7 -10l-3 -17l19 -13v-33l-6 -10v-3l37 39h19l16 -15v-21l-26 -46l4 -11q-21 -16 -37 -16v-23l-7 -10v-57l-16 -17h-10l-10 8q-7 0 -43 -34l3 -4v-315l-7 -6h-229v402l-7 9v10l7 10v47l-30 27v19q0 20 33 41l7 18v4 l-7 10v7l7 10v3l-7 10v77q0 18 -10 30v10l7 10v52l-7 12v39l-6 20q-14 0 -20 13l13 37v36l-6 10v69l-11 13v44q-27 0 -36 24zM121 378v8l17 17h13l20 -17v-13q0 -7 -23 -21h-4q-23 9 -23 26zM131 193v13q2 10 27 10l13 -16v-3l-16 -17h-11zM391 1064l6 -10v-217l7 -9v-74 q5 -4 10 -43l3 -3v-10l-3 -3v-4l13 -19h3q0 26 37 36h7v16l-13 60h-21q-14 9 -23 31q7 6 7 22l26 13v12q-6 7 -30 148q-20 133 -26 140v10l3 16h-6v-112zM463 622l20 -21l14 21v13q-10 0 -10 13l-4 4h-3q0 -30 -17 -30zM483 -166q14 24 41 24h6l24 -24v-26l-17 -17h-34 q-6 0 -20 23v20zM490 180v13l7 7h13l14 -14l-21 -19zM510 156v7h3v-7h-3zM510 575q49 -36 49 -53h4l4 13l-4 10l8 7v3q-4 10 -25 24h-36v-4zM524 455h2v7h-2v-7zM530 486h3q6 0 17 23h-4l-16 -17v-6zM554 516h2v6h-2v-6zM640 951v3l6 6l10 -9l-7 -7h-3zM922 711v26l17 17h29 q7 0 20 -26v-6l-6 -7l3 -4v-6q0 -5 -23 -17h-14q-18 11 -26 23zM939 639v9q7 22 29 30h4q21 -9 29 -23v-20l-19 -21h-20q-16 9 -23 25z" />
<glyph unicode="n" horiz-adv-x="1271" d="M-254 231v9q14 24 18 24h28q4 0 16 -24v-9q-7 -16 -23 -24h-17q-16 8 -22 24zM-189 224v10l14 13h13q8 0 10 -23l-16 -10h-11zM-159 379v14q10 22 27 33h23q19 -6 27 -26v-22l-27 -28h-19q-22 8 -31 29zM-145 231v23l23 23h13q22 -8 30 -30v-33l-6 -7h-37zM-85 470v3 l9 10l11 -10v-3l-7 -7h-7zM-69 580v6l20 20h14q8 0 13 -30l-20 -17h-7zM-56 337v7l10 9h11l6 -6v-14l-6 -6h-11zM-49 370v8h3v-8h-3zM-39 134v34q11 26 26 26l10 13l-6 7l13 23l26 10l21 -13h9l21 17h29l30 -27q14 -5 14 -20h6q0 10 24 33v31l-24 -14h-20q-13 5 -23 27v26 q32 60 53 63l20 -4v4q0 8 -20 13v17q7 12 20 17l-3 4v206l3 16l-16 -3l-20 19v7q12 23 16 23h20l-3 17v950l6 7h257q7 0 26 -70l4 -21l5 -5l-2 -11l23 -63q29 -115 40 -127l-3 -17q19 -39 50 -165q9 0 9 -37v-584h-7v17l-19 52v4l3 4v3q-7 0 -20 63l-13 30v6l3 4v3l-34 93v4 l4 3v2q-10 15 -22 64l-4 23l-8 7l4 3v4q-6 0 -26 86l-7 6l3 17q-10 15 -23 64l-3 22l-7 7l3 4v3q-5 0 -19 63q-7 0 -7 23l-7 7v3l4 4v3q-5 0 -24 70l-3 2v4l3 4v4l-3 1h-3v-43l6 -9v-60l7 -10v-76l6 -10v-73l7 -7l-3 -17v-62l7 -10v-93l6 -11v-106l7 -9v-110l7 -11v-132 l6 -7l-3 -17v-23q0 -18 66 -36v-13l-36 -64l3 -9l-6 -8v-33q6 -15 39 -33v-10l-6 -10v-33q14 0 14 -6v-4q-17 -18 -17 -34l5 -33q-16 -12 -26 -32v-14l10 -36l3 -4q-5 0 -5 -23l-8 -7v-13l13 -27v-9l-5 -11v-43l13 -27v-3l-13 -19l5 -11v-30l-5 -6h-57l-10 6h-37l-10 7h-33 l-10 7h-14l-26 3l-37 -3h-46q-42 61 -83 90l-66 43q22 21 22 59q9 24 34 24l3 10q-10 0 -10 7v3l10 10q-5 20 -16 23l-26 -20h-4q-26 12 -26 27l-4 4h-37zM-39 679v13l13 14h13l13 -14v-6q-8 -16 -18 -16q-21 3 -21 9zM-32 483v4q7 16 23 23h6l20 -21v-19l-9 -10h-24 q-4 0 -16 23zM-22 430v7l13 13h6l15 -13v-3l-8 -17h-13zM-3 602v8l15 13l13 -13v-8q0 -5 -21 -9zM8 559v13l5 8h8l9 -11v-10l-5 -6h-12zM12 254v6l9 10h4l5 -6v-7q0 -6 -9 -6zM13 379v14q22 29 51 41q8 26 37 26h9l28 -30v-21q-11 -23 -31 -31q-5 0 -16 -31l-4 -3h-13 q-37 5 -53 22zM34 143q0 -5 23 -5l7 -8h13q33 22 50 47q-51 9 -59 17h-4q-20 0 -22 -34l-8 -5v-12zM44 327v4l11 9h5l11 -9v-11l-7 -6h-7zM44 556v7q21 36 30 36h20l30 -19l6 6h14l10 -10q0 -17 -24 -17v-3q18 0 37 -37v-13q-8 -21 -29 -30h-11l-36 30q-22 6 -47 50z M101 284l3 3h3l7 -6l-7 -7zM184 270h6v14h-6v-14zM606 297l2 592h8q11 -59 20 -60l-4 -17l13 -27v-32l7 -11v-50l7 -13l3 -103q13 -21 24 -76l3 -4v-16q45 -14 45 -24v-9l-15 -26h6q50 26 87 68q-29 34 -66 44v3l16 17v3l-3 -3h-8q-19 9 -30 23v23q12 16 34 24l-17 17v5 l8 11v3q-17 27 -44 40v13l14 13h5l17 -13l8 11v6q-7 17 -17 17q0 7 -24 7l-10 13v6q0 8 24 10q6 -15 14 -16h5v36l-9 14q1 5 30 19l3 3v34q-10 0 -20 9h-8l8 -9v-13l-9 -10h-28l-14 15v12l8 9v4l-44 43q17 4 17 10v3l-7 10v3l4 3v4l-7 7q1 7 33 19q29 11 103 77v339l7 6h236 l6 -6v-223q0 -24 40 -63v-13l-16 -30v-47q30 -20 30 -26v-14l-7 -9v-14l7 -10v-10l-21 -13v-33l51 -47l10 -30l-24 -36v-7l7 -10v-3l-14 -23v-34q-6 -13 -16 -13v-23h16q0 10 21 23l40 -3l5 16h25l13 -13v-13q0 -12 -38 -16l4 -4v-4l4 4h9q26 -13 26 -21v-13q0 -5 -26 -19 l-22 19h-24q-6 0 -13 -19l-10 -3v-27l13 -20v-4q-14 -23 -20 -23h-20q-17 9 -17 23h-6l-10 -19v-4l16 -19v-14q0 -14 -22 -14q0 -6 9 -6l4 -3v-4l-7 -6l-6 6h-7v-16l13 -17v-9q-17 -16 -17 -38v-810l-6 -7h-219q-9 0 -27 70l-3 21l-7 5v4l4 4v3q-8 0 -21 63l-13 30v6l4 4v3 l-34 93v4l4 3v2q-11 15 -24 64l-3 23l-7 7l4 3v4q-7 0 -27 86l-7 7v10l4 3v3q-11 15 -24 64l-3 22l-6 8l3 3v3q-5 0 -20 64q-7 0 -7 22zM746 353h5v4h-5v-4zM765 320q30 -29 60 -169q11 -16 30 -103h3v50l-6 10v49l-8 11v49l4 4v3l-6 7v63q-11 32 -17 33h-20l-10 -7h-20 l-10 7v-7zM1110 489v7l7 7h7l7 -7l-14 -13zM1127 789l7 6l3 -3v-3h-10zM1157 849l14 14h5l14 -14q-6 0 -6 -11l-4 -3h-9zM1163 506v27q11 17 27 17q33 -4 33 -33q-4 -28 -13 -28h-30zM1188 885v4l2 3h3l4 -3v-4l-4 -4h-3zM1204 785v4l6 6l4 -3v-3l-8 -7zM1231 732v6h5v-6h-5 z" />
<glyph unicode="o" horiz-adv-x="1204" d="M-563 1018v7h7v-7h-7zM-530 1154v20l17 20h20l21 -20v-13q-6 -24 -38 -24q-13 6 -20 17zM-407 1347l14 20h13l13 -13v-14l-17 -13h-3zM-191 1144v14q1 5 30 23h3q22 -8 31 -30v-10l-24 -23h-13q-19 7 -27 26zM-161 420v7l7 6h10l6 -6v-7l-6 -6h-10zM-101 450v7l13 13h4 l9 -10v-13l-9 -10h-4zM-81 344v3h6v-3h-6zM-4 623q60 37 86 40q1 5 29 19q25 21 34 40v34l7 9v41l6 10v102l7 10v10l3 133q7 0 20 96q6 0 16 64q11 11 33 76l41 57q59 81 162 109l60 21l100 2l3 -2v-110h43l14 -7q64 0 126 -30q97 -41 150 -133q41 -3 52 -16l11 6h16l17 -16 v-24q0 -5 -23 -16l-24 13h-14v-7h-1q0 -13 42 -39l6 6h14l20 -20q-7 -20 -20 -20q-15 -6 -23 -26l6 -7h10q70 57 130 180q55 84 73 93q0 15 70 52l43 4h6q26 0 66 -34q14 -14 27 -42v-27l3 -13q0 -54 -113 -90h-49l-7 6v4l7 7h49q8 6 31 6q66 36 66 60l3 4v13q-6 4 -6 39 q-31 43 -67 54h-46q-81 -39 -113 -101q-19 -20 -63 -102q-54 -83 -76 -103q-14 -17 -27 -17l13 -16v-24q15 0 23 -17v-2l-13 -20h-13q-17 10 -17 26l-10 -9v-11q0 -6 20 -13l4 -14h23l6 -6v-13l-6 -7h-7l-10 7h-3l-20 -21l7 -9v-80l-4 -4v-2l7 -7v-34l7 -5l-4 -4l4 -17v-4 l-7 -9v-67l10 -9h33l10 -11v-3l-46 -20l-7 7v-7l10 -10h33l87 -36l2 2v4l4 -4h4l9 4l8 -9q-8 0 -8 -34h-4q0 -38 47 -53q13 0 13 -7v-7l-18 -13h-14q-7 0 -24 27q-11 0 -17 19l-19 11h-17q-14 -10 -23 -30v-10q17 -1 17 -10v-57h36q37 37 53 44h13q37 -16 37 -20l-7 -7 l-22 3q-42 0 -57 -46v-3q44 -61 44 -77h1q0 8 25 26q8 24 26 30q3 25 10 34l-16 27v6l6 7h3l43 -30l11 6l6 -6q0 13 7 13h6v-7l-9 -13v-23l9 -33l4 -3v-8l-7 -5h-3q-17 17 -17 29h-20q-24 -12 -39 -37h-4v-30l-7 -9l34 -34h23q24 0 30 21q20 11 20 26h7q6 -8 29 -8 q0 -5 11 -5l3 -4v-4l-7 -5h-33q-23 -15 -33 -47v-7l19 -24l-3 -9h3q12 0 24 -27v-6l-7 -7h-3q-9 0 -20 36q-14 0 -27 13h-16l-10 -6h-3l-11 10l11 20q-11 24 -30 33l-30 26h-15q-9 -3 -45 -59q16 -50 27 -50l22 -3v-3l4 3h4q16 -4 16 -10q-15 -10 -41 -13l-2 -3h-7 q-22 37 -40 49h-7q-23 -14 -23 -23l-13 -13l7 -7q-34 -24 -34 -30v-3q15 0 27 -20v-7h-17q-13 6 -13 20q-10 -2 -10 -26v-34q13 -2 13 -9v-4q-13 -13 -16 -46l-4 -4v-9l13 -21q-32 -16 -59 -56q-21 -20 -21 -74l-2 -3h-3l3 -2v-11q-44 -127 -100 -195q-20 -27 -86 -68 q-17 -12 -50 -20q0 -8 -67 -19l-4 -3h-39l-10 -7h-36l-7 7v106h-53l-10 6h-39q-31 14 -87 24q-5 10 -51 26q-76 54 -110 116l-22 43q-40 96 -40 137l-10 40l-3 3v34l-7 5l-3 107v31l-7 9v57l-19 45v42q0 22 -14 22q-10 0 -10 7l7 10l-11 36q-14 0 -26 21v26q10 20 40 20l3 3 v10l-6 17h-7l-13 -4l-14 4h-3l-10 -7h-6l-60 42v17q5 9 5 25l4 19l8 7v23h-25zM14 267v23q0 5 25 16h4q22 -11 22 -16v-19l-20 -21h-14zM52 197v11h6l7 -7l-4 -4h-9zM105 842v13q6 14 17 14q19 -4 19 -11v-16l-10 -10h-16zM135 -162l10 10h3l7 -6v-9l-7 -8h-7l-6 8v5z M337 1481v1h7v-1h-7zM437 1543v7q17 36 44 36q26 0 35 -36q0 -29 -39 -43h-4q-21 12 -36 36zM440 24q8 -19 28 -19l2 -4h11v21q19 39 43 39q23 0 36 -26v-24q-13 -30 -30 -30v-16q7 -6 7 -27l13 10h10l13 -13v-6l-13 -14h-13l-14 20h-3q0 -19 -23 -23q-23 0 -37 10v-10 q13 -23 16 -23h30l8 -17v-4l-4 -17l27 -9h7q0 17 6 17l17 6h3q20 -8 20 -32l3 -4v-106h23q70 21 100 85l17 68v26q-20 27 -103 43q-20 0 -27 6l4 41v9l20 60h16q10 0 10 -17h3q26 15 26 51l21 26l-17 23v17l7 10v23l-13 14l2 3v6q-17 0 -26 20v7q7 16 40 32v4q-17 18 -19 34 l-8 23l-19 13q0 11 -17 17l-36 47l6 6h11q10 0 22 -10h24q23 7 33 33v4l-16 -4h-11q-14 9 -23 30l17 26l-10 11h-10q-17 -6 -17 -16l-20 -11h-6l-7 7l20 20h4l2 -3h4v34q-14 22 -23 22l-50 43q0 23 -16 23l-8 10v13l8 7q13 0 13 -26q36 -13 36 -37q34 -11 34 -33l2 -4h4 q0 8 36 8l40 46l7 -7h4l13 13v4h-21q-20 29 -33 29q0 9 -33 30q-19 -19 -47 -66q-9 8 -9 30l-4 4h-3q0 42 23 42l14 4l13 23v3q-12 0 -30 26l-20 4h-3q-50 0 -50 -23q-13 -19 -13 -33q4 0 16 -23v-7l-6 -7h-4l-13 10h-4q-19 -11 -19 -36v-24l27 -26h5l31 23q0 -7 13 -7 l-23 -36q-17 -17 -17 -39l-4 -4h-2q0 21 -24 30h-6q0 -42 93 -70q13 0 13 -7l-23 -16q-14 -77 -23 -77q-17 0 -24 -23q-65 -32 -80 -73v-50l14 -17l-14 -16v-177zM440 746q17 0 17 -17h3l4 3h4l5 -6h21q19 7 20 20q13 0 13 10l17 17l3 -4h3l10 4l10 -12h3l10 8h7 q25 -21 66 -26l4 -4q12 22 16 22h27v30q-11 28 -16 28q0 -8 -24 -11q-12 0 -33 34v40l30 17v6l-7 10v13l7 10q-37 20 -60 24l3 -4v-6l-20 -14h-13l-13 14v6l20 24q-36 15 -50 15q-19 0 -27 42l-23 13l-20 -4l-10 10h-7v-90l54 -56l-8 -7v-6l8 -11l-8 -6l4 -3v-4l-4 -10h4 l21 17h3l6 -7l-13 -17v-3l17 -20v-19h-4q-26 26 -39 26q0 -6 -27 -17l-14 -34v-45zM447 1071h4v7h-4v-7zM457 55v14q0 5 11 5v13l-8 11l21 20h5l14 -14v-13l-14 -20v-2l8 -12v-5l-10 -11h-14zM457 1107q13 -29 57 -63l13 4v4l-24 19q-25 40 -46 40v-4zM460 1154 q13 -43 43 -43q55 -33 187 -70l23 -10h21v4q-16 51 -68 96q-59 13 -59 17l-7 6v107q-72 0 -110 -50q0 -8 -13 -17zM470 858h3v11h-3v-11zM486 258v2l8 7h6l11 -9v-4l-11 -10zM514 1085h10v3h-10v-3zM516 1154v4l17 16h11l43 -16l9 -14v-20q-7 -17 -33 -17h-6zM527 1081 q47 -39 103 -67q0 10 20 25q-53 13 -123 46v-4zM530 849v9l7 -6l-4 -3h-3zM530 905v7h17l7 -7v-6l-7 -7zM533 803v5l8 8q0 -9 39 -10l3 -3v-4l-10 -9h-26zM554 131v10l6 -7l-3 -3h-3zM560 1025l27 -16h13v2l-40 16v-2zM567 995q27 -9 76 -37h3v4q0 20 -73 35h-6v-2zM570 167 v27l17 17h22q21 -12 31 -40v-14q-8 -19 -27 -26h-6zM577 862v17l10 9h16l10 -9v-21l-10 -9h-13zM587 367v7l7 6h2l7 -6v-7l-7 -7h-2zM600 816v3l13 10h7l6 -7l-23 -10zM603 1001h10v4h-10v-4zM656 952h4v6h-4v-6zM673 948q28 0 33 -7h29q0 10 -35 14l-4 3h-6l-17 -6v-4z M687 370q9 -33 16 -33q16 12 23 33v20l-6 17h-7q-17 -12 -26 -33v-4zM687 533q26 -45 35 -50l12 11v52q-15 37 -25 40h-3q-6 -1 -19 -32v-21zM687 669l19 -19h29v23l-5 9l4 10q-8 0 -8 24l-6 6v21h-11q0 -21 -22 -41v-33zM687 869q20 -51 33 -53h6v13l-20 20v26q0 7 28 20 h16v27h-7q-6 -6 -43 -10l-4 -4v-3l4 -10l-13 -20v-6zM687 918l13 14v3l-13 -3v-14zM722 1001h12l5 8l-13 9h-4v-17zM853 1373v21q0 5 23 19h10q23 -11 23 -16v-20q-8 -20 -27 -27q-21 9 -29 23zM1025 1364l10 7l10 -11l-10 -6zM1032 525l47 -39q29 27 29 47l7 13v13 q-20 16 -20 27h-47l-16 -6v-55zM1042 885v3l6 7h4l7 -7v-3l-7 -6h-4zM1102 1q0 11 23 13v4l-7 47q54 4 54 22q13 0 13 14l20 17h23l20 -20l-3 -3v-4l-4 4l-9 -4l-27 4q-21 0 -28 -38h-2l2 -2v-7l-2 -4v-3l32 -46l-2 -3v-4l6 -7l-6 -6q-14 22 -47 43h-13q-16 -7 -30 -23h-7z M1102 1413v17q0 6 23 20h17l16 -16v-27q0 -6 -23 -20h-7zM1125 -98l7 6h3l16 -16v-3q-26 3 -26 9v4zM1128 288q0 -6 23 -17v-4l-9 -4v-5l20 -17q0 5 23 13q0 11 20 34v2q-21 41 -28 41l-19 16h-3l-20 -7l7 -9v-13q0 -8 -14 -8v-22zM1251 -2l16 16l4 -3v-19l-10 -11h-3l-7 7 v10zM1265 84l9 7h7q14 -14 43 -22l6 5l8 -9v-17l-8 -7h-6l-10 7q0 -19 -16 -24q-5 0 -17 24l7 7v6q-11 0 -23 23zM1265 167l13 11l6 -7v-4l-6 -6h-7zM1354 91l3 4h4l7 -8l-4 -3h-3zM1354 305v1l17 14h10l23 -14l-30 -13h-10zM1364 121l36 7v-3l-9 -11h-20zM1408 144v4 q9 22 19 30h7l6 -7v-4q-7 -15 -27 -29zM1430 247l8 7h13l22 -23h8q0 10 6 10h3l4 -4h3q0 10 6 10h7l7 -6l-14 -24l4 -9l-13 -11l-17 17h-4v-10l37 -33v-4l-7 -6q-13 23 -30 23l-33 -4l-2 4v17l13 16v7zM1527 148v3l3 3h7l10 -10l-7 -6q0 6 -10 6z" />
<glyph unicode="p" horiz-adv-x="1150" d="M-385 384v15l21 18h3l16 -17v-16l-10 -10h-20zM-212 494v14q11 19 30 29h17q22 -7 29 -29v-14q-8 -21 -22 -30h-30q-15 9 -24 30zM-152 1159l20 20h13l13 -14v-13l-20 -14h-13zM-123 451q6 18 27 27h15l18 -20v-17l-18 -20h-21q-21 14 -21 30zM-79 202v13q0 7 20 13v4 l-20 23v26l24 24h26l27 -27v-23l-27 -27h-10l-3 4h-4v-4l7 -9v-17l-13 -13h-14zM-63 786l14 14h3l14 -14l-14 -13h-3zM-49 165l3 3h4l6 -5l-3 -4h-3zM-6 744v9l7 10l-7 10v23q9 15 30 24h7q21 -8 30 -30v-10l-7 -10l7 -10v-7l-10 -9l-14 13q0 -7 -26 -11l-10 -9zM4 510v4 l11 10h16l13 -16l-16 -14h-11zM11 278v20q9 14 30 23q0 -6 20 -6l13 -24v-6q-8 -19 -27 -26h-16zM28 859v25l19 18h20q17 -5 24 -22v-17l-24 -23h-13q-26 14 -26 19zM47 531v6l7 7h13l7 -7v-6l-7 -7h-13zM47 593v25l23 22h27q14 -8 24 -30v-9q-10 -22 -24 -30h-27zM64 750v7 l20 19h7l19 -19v-7l-16 -17h-14zM70 504v10q10 24 30 33l4 4h9q26 -10 34 -30l4 -4v-13q-11 -24 -30 -33l-4 -3h-9q-24 12 -38 36zM78 195h6v-6zM78 361q6 0 6 9l3 4h10l7 -6v-11l-7 -5h-10zM84 325v3l13 16h13l11 -9v-10l-17 -17h-4zM84 966v16l20 20h13l17 -16v-20 l-24 -23h-10q-5 0 -16 23zM87 255v13q8 20 39 37q13 0 17 16v23q-8 30 -18 30q-6 0 -17 25q4 0 9 15l37 11h27v3l-27 46v4q10 16 43 30h3l27 -17q25 0 37 19v80l-11 11q0 -15 -17 -24h-23l-26 29q-19 0 -27 17v12l10 9h27q6 0 6 -9h33q21 6 21 26l7 19v10h-7q-10 0 -14 -42 l-3 -4h-10l-17 17v5q14 10 17 51l4 3v7l-31 26v23l7 7h20q40 -42 40 -53q46 0 46 14q-52 6 -52 13q0 27 -14 46v10l43 57v6l-3 -4h-7l-3 4h-3q-8 -30 -27 -30l-23 -13q-43 19 -54 47q47 31 47 59q0 17 7 17h3l27 -17v4l-21 30v6l4 3v4q-53 12 -53 36l-3 4v13q9 31 26 50 l-3 16v3l10 11h6l27 -20v6l-7 11v26l21 26h-14l-23 -9l-14 16v20q9 20 27 34l-4 2v4q21 30 24 63l4 3v260l6 6h262l7 -6v-133l7 -17h133l10 -7h49q5 -5 44 -9q94 -15 169 -56q100 -63 132 -177q16 -36 28 -113l2 -3v-40l8 -11v-225l-8 -10v-40q-5 -4 -5 -40q-6 0 -17 -62 q-7 0 -21 -54q-34 -67 -43 -67q-16 -31 -70 -72l-13 -8q-20 0 -36 41v33l7 10v16h-7l-10 -7h-26l-17 14h-8l-9 -10l13 -20v-30l-5 -10h5l10 7h14l53 -47v-6q0 -8 -20 -13q-20 -16 -61 -25l-16 -5l-2 -4l-8 7q0 -7 -13 -7q0 -7 -23 -7l-7 -6q-6 0 -6 20l-43 -24q-28 3 -44 17 h-3q-3 -23 -10 -23h-79l-8 6l8 10h-11q0 -16 -6 -16l-8 6h-22v-53q0 -6 30 -6l6 -11v-9l-33 -46l-17 -7l4 -17l-4 -10l79 -113q-18 -12 -35 -49l6 -7v-30q7 -8 7 -24q9 0 9 -6v-3l-30 -51l8 -9l-8 -7v-3q12 -32 21 -40l-57 -86l4 -17l-7 -6h-70q-5 -7 -42 -11l-4 -2h-77 q-106 -16 -123 -30l-32 -4h-38l-18 39v14l85 69l17 34l-7 10v10q13 16 16 36h4l-4 3v25q7 4 7 32q7 0 10 33l4 4v33l7 10v56q0 9 -30 17q-7 7 -7 23q-10 0 -20 16v4l3 4v4q-35 0 -50 26v36h-34q-29 0 -39 30zM108 644l9 6h17l6 -6l-14 -13h-5zM125 697v6l5 7h10l7 -7 l-13 -13h-4zM147 105l26 30h4l10 -10v-4l-3 -3l-11 -2v-4l4 -10l-4 -3h-19zM177 285q0 -30 20 -30q34 0 46 -30h7l14 7v209q0 5 -24 17l-4 -4h-2l2 -3v-10l-6 -10l10 -14v-3l-10 -10l-13 10h-23v-6l9 -38l4 -2v-7l-4 -4v-3l7 -6v-17zM184 683v4l6 6h10l7 -6l-10 -10h-7z M220 66v3h10l-7 -7zM220 321l7 7h7l6 -7l-6 -6h-7zM230 176l10 -11h10l7 7v4h-27zM253 1091h4v8h-4v-8zM266 1022l34 4h16l7 6h-46zM270 693h43l10 10l-36 4q-17 -4 -17 -10v-4zM270 902h10l-10 11v-11zM270 1069l7 -7h29l10 11q-35 0 -39 5h-7v-9zM323 590l10 -10h7 q5 34 26 34l10 5h3l47 -29h4l-13 45v9q9 30 26 39l3 20l-3 4h-7l3 -4v-3l-33 -23h-30l-16 13h-16v-16q8 0 16 -17v-4l-7 -9l4 -9zM323 919l10 -9l27 33l16 6h11q26 -7 26 -26v-4l10 10v10l-6 10v24q9 29 26 39l6 14l-6 6q-20 -27 -43 -30q-25 2 -40 17h-11v-3q0 -18 11 -30 v-10q-11 -27 -30 -44zM330 842h16v4l-16 8v-12zM330 1172h10l-10 10v-10zM344 757q18 3 18 16h-5l-13 -13v-3zM353 1275l17 3v10h-10l-7 -6v-7zM366 776h13l13 10q47 -18 47 -46q0 -10 7 -10h7q0 22 -23 43l-17 30v17q10 21 33 39l10 -5l10 5h27l9 -5v9l-32 13h-31 q0 -13 -30 -34q0 -17 -43 -19v-7l13 -16l-13 -7v-17zM366 1152q0 -7 24 -14v-3l-16 -10v-13h13l9 7l24 -14h3v7l-17 21l7 5v4q-5 13 -30 13h-17v-3zM406 1155h7v7h-7v-7zM413 510l4 -2h6v9h-3zM413 1168l4 -3h6v10h-3zM426 919q9 -20 23 -30l34 13v11h-11q-34 0 -46 10v-4z M433 524h23q4 7 40 7q0 9 -37 13l-3 3l-23 -13v-10zM433 567l16 -7h7l33 17v7l-56 4v-21zM436 1185l17 3h13v11l-17 6zM463 710l20 -17h6v10l-6 10v4q28 31 33 59l16 7h7l13 -13v-20l-6 -6l-10 6h-4v-10l27 -47v-13q0 -14 -37 -14l14 -30v-5q-17 -30 -34 -30v-4l7 -7h7 l23 24h24l5 -8v-5q-5 -17 -29 -17l3 -4v-3l34 3h17l17 -23l-17 -40h-21l-9 -7h-14l-49 21v-4l22 -33v-30l-6 -10h36l37 -29q14 -25 21 -25h5l37 12v2q-20 0 -26 7h-28q-5 30 -16 40l3 3v4l-6 6q6 0 6 20l41 43q20 -7 43 -29h13v6q0 7 -20 13l-7 10l3 4v3l-6 7v6q18 36 56 36 l17 8l4 3h13q0 -14 7 -14h9v7l-6 9l56 68l-4 9l4 4h7q6 0 6 -13h21v6q0 8 -25 13v10q18 50 38 83v7l-17 -13l-4 3v33l8 10v123l-8 10v27l4 3v4q-7 0 -13 49q-6 0 -13 31q-14 32 -50 60q-32 24 -87 32l-3 3h-33l-11 7h-17q8 -7 12 -46l-4 -17l7 -7l-3 -10l5 -6v-57l8 -10v-3 l-51 -40h-3q-9 0 -10 16h-33l-10 -9v-4l7 -9v-17l-7 -10v-3h20l10 6h7q32 -24 32 -33v-23l-52 -47h-10l-10 8h-17l-7 -8l20 -26v-4l-9 -30q-20 -23 -28 -23v-26zM485 1082q8 0 8 -20h3q0 11 13 16l-3 4v4q19 26 33 26l-3 4v3l3 2h3l10 -2h3v2l-23 17h-10q0 -14 -13 -26 q0 -17 -13 -17zM493 417h7q13 5 13 30v4h-11q0 -9 -9 -20v-14zM493 674q16 0 26 -8v4l-17 20h-9v-16zM493 1012l9 -10h11v10l-13 7h-7v-7zM506 919h3l17 7v17l-20 -20v-4zM555 168v10l8 7h5l14 -13l-14 -13h-2zM576 999h6q16 9 16 23h25v4l-12 9h-9l-13 -16q-7 0 -13 -17v-3 zM582 1292h3v33h-3v-33zM585 1335h8v6h-8v-6zM606 370l20 -5h23l6 5v4h-19l-21 4l-9 -4v-4zM610 593v4l5 7h4l7 -7v-7l-7 -6zM615 577l4 3h23l7 -6v-3q0 -7 -26 -11zM672 431h17q0 15 23 23h20q36 -22 36 -42h4l6 5q-24 28 -36 57v17q10 14 10 26h-3l-14 -20h-16l-11 7h-13 l-6 -13l6 -7v-20q-11 -26 -23 -26v-7zM762 534l10 -10h13l10 7h36v3q-25 0 -40 13h-13l-16 -6v-7zM762 577l16 -17q33 11 34 17q-7 7 -47 11l-3 -4v-7zM802 382h6v2h-6v-2zM821 417q21 7 21 30v4q-13 -7 -21 -20v-14zM838 590l9 11h-9v-11zM851 657q10 -2 10 -26v-4l-2 -4 v-4l9 -5h23q37 0 37 -34h10v10q-14 14 -30 46v21l10 23l-3 3h-4l-13 -17h-37zM928 531l7 -7l9 10v13h-6l-10 -10v-6zM948 547h7v7h-7v-7zM964 554l17 -17v10l-7 7h-10zM981 580q17 0 23 21h-6l-17 -8v-13zM987 514h17l-10 10l-7 -7v-3z" />
<glyph unicode="q" horiz-adv-x="1228" d="M-262 1019v16q7 13 36 27q2 13 11 13h19l20 -21v-5q-5 -14 -30 -27q0 -11 -17 -20h-26zM-223 792v13q0 7 17 11q17 -4 17 -11v-13l-13 -13h-7zM-172 856v6q6 20 27 20q13 0 22 -23q-6 -19 -26 -28q-17 8 -23 25zM-169 1161v20l13 13h20l13 -13v-20l-9 -10h-27zM-126 1011 v4l13 13l14 -13v-7l-7 -6h-9zM-113 520v6q14 29 27 34h23q22 -9 30 -30v-13q-9 -21 -23 -30h-33q-20 9 -20 23l3 3zM-113 872v30q7 17 24 23h26q16 -7 24 -23v-27q-7 -23 -34 -23h-20zM-73 643q13 26 21 26h5q8 -6 28 -6l10 -14v-13l-21 -13h-22zM-30 742v24q11 14 30 22h30 q7 0 27 -29q10 0 10 -13h13l11 10v40q10 26 32 26l4 4v4l-10 9h-11l-9 -8h-6q-18 7 -27 34l-17 17v20q11 23 44 23l-8 10v37q9 16 37 26v4l-7 6v20l10 9h24l10 -9v-23l-17 -20q17 -7 17 -30h3l10 7h16l11 -7v3q0 21 -24 53v11l43 45v38l-14 20l21 22l-4 4v24l8 9v46 q5 6 9 43l4 34q6 0 9 26h4l-4 4v13q51 147 93 184q57 70 130 96l90 26l66 4l4 -4v-192h3l4 2h3l-3 4v4l6 5h27l99 -2q0 -7 30 -7q0 -6 26 -10q12 -10 54 -10q11 -17 93 -76q9 -19 43 -54l10 11h30q14 -10 23 -30v-7l-30 -47h4q15 0 20 -13v-6q0 -7 -13 -7q0 -5 23 -17v-10 l-10 -13v-6q6 -8 6 -24h20l10 -10v-13q0 -7 -26 -20v-24q13 -23 13 -56l19 17h27q6 0 20 -23v-20q-6 -7 -6 -30q-21 -24 -50 -24l-17 -36v-60l20 -36v-24l-7 -9v-4l7 -7l4 -123v-408l26 -53v-30q-24 -39 -24 -74l-2 -3v-2q0 -56 -11 -67v-34l-6 -9v-34l-7 -10v-7 q6 -16 17 -16q2 -14 43 -37v-4q-37 -36 -47 -59v-39q8 -13 73 -34l4 -3v-233l-7 -7h-43q-63 20 -103 41q-74 51 -113 119l-4 4q-32 -27 -85 -47q-68 -26 -121 -37l-56 -19h-13q-12 3 -36 60v2q30 57 43 63l-3 4v137l6 5h57q41 13 73 47l3 4v17q-38 81 -106 105l-3 4 q-11 0 -11 6v94q7 6 7 27q15 5 17 13v30l-8 9v40l-5 10v24q86 -24 86 -60l6 -17q16 0 66 63l4 3v532l-6 10v7l6 10v5q-17 0 -17 12q0 8 17 9v100l-10 -7h-7l-19 20l19 20h7l10 -7v47h-4q0 -23 -32 -23h-27q-6 0 -20 30v3q9 24 40 32h3q11 -7 30 -9l10 4v3q-23 43 -26 60 l-4 13q-10 0 -30 13q-16 -7 -26 -33v-7h23l7 -6v-13l-14 -13h-3l-20 13q-13 -12 -13 -27q-11 -30 -17 -30h-26q-17 7 -17 32l4 4h3l-3 4v6l5 11v30q4 13 38 36q1 43 20 43h23l16 -13h7l-14 17v36q-10 0 -32 23l-20 7h-4q0 -24 -17 -30h-17q-16 6 -16 30q-19 0 -19 6v136 l3 17h-3l-11 -6l-29 19q-54 -19 -84 -99v-7l10 7h10l10 -11v-13l-10 -9h-10q-9 0 -10 17h-6l3 -17l-6 -10v-30l-8 -11v-165l8 -11v-13l-8 -9v-186q26 -75 54 -90q0 -11 66 -77l-6 -6v-7q9 -23 27 -30l9 -10q-6 0 -6 -23l-17 -22v-58l-7 -10v-33q0 -7 -13 -7l-3 -3v-3 q0 -12 23 -50q-23 -13 -23 -40l10 -14q-53 -11 -53 -39l-7 -10v-3q37 -9 37 -13v-4l-13 -27q7 -18 19 -19v-4l-30 -30v-9l17 -27q-36 -14 -60 -83q5 0 13 -31l30 -43l67 -30v-228l-7 -8h-20l-10 8h-40l-70 19q-133 52 -179 156q-20 20 -36 80q-6 0 -26 53q-10 0 -30 26 l-51 25q3 29 10 36v7q-46 9 -46 19l3 10l-47 30q15 17 70 40l57 56q-16 47 -47 64l4 23v23l-10 13v4l10 13v3h-4q-40 -12 -50 -36h-36l-20 -13h-3l-17 13v20l7 9l-4 11q17 26 27 26l30 -3l7 7l-4 3v6l6 11v19l-23 28v32q0 16 51 20l-4 4v19l4 4v3q-6 0 -14 30l-7 7v16 q0 14 47 27l13 16v4l-10 10h-16q0 -30 -54 -30l4 -4v-6q0 -26 -23 -40h-30q-27 20 -27 43h-17q-19 9 -30 23zM-22 534v22l22 25h13q23 -9 31 -31v-11q-7 -21 -31 -29h-13zM-13 941v7q8 22 30 30h17q9 -10 26 -10l7 -10v-6l-27 -37l-19 -3q-22 0 -34 29zM120 1228l3 2h4l7 -6 l-4 -3h-3zM140 607q17 0 17 -34h13l10 9v38l-7 16h-10q0 -24 -23 -24v-5zM150 905l10 -3q20 3 20 10h-23zM519 869v6q9 23 26 30l4 4h16l24 -27v-26l-17 -17h-27q-19 14 -26 30zM525 941v24l20 23v7l-13 16v51q10 30 23 36h27q26 -10 26 -36l4 -4v-23q-9 -30 -23 -43v-17 l6 -10v-24q-14 -18 -30 -26h-6q-22 10 -34 26zM628 875v14l7 6h7l13 -13l-13 -13h-7zM658 852v4l11 9l9 -13l-6 -6h-7zM674 885v20l28 27h30l23 -23v-31q-9 -14 -30 -22h-17q-22 8 -30 26zM778 898v4l6 7l7 -7v-4l-7 -6zM1011 1407v4q8 19 33 19l3 4h7l13 -17q-6 0 -20 -27 h-23zM1107 915v4l13 13h13l7 -7v-13l-13 -14h-3zM1130 1191v10l10 10h6l11 -10v-10l-11 -10h-6zM1143 1058v4l7 5h4l9 -9l-13 -9zM1143 1228l3 2h4l7 -6l-3 -3h-4z" />
<glyph unicode="r" horiz-adv-x="1128" d="M-435 217v7l13 13h17l9 -10v-10l-16 -16h-7zM-176 15v10l16 17h11l17 -17v-10l-21 -20h-3zM-80 250v11l8 6h5l13 -13l-13 -13h-3zM-76 135v13l19 20h11q26 0 26 -29q-7 -22 -17 -25h-20zM-57 198v6q12 23 17 23h27q6 0 20 -26q-11 -31 -40 -31q-12 9 -24 28zM-10 75 l20 19l20 -19l-20 -20zM-10 1092l13 18l7 -26l-10 -5zM10 25v6l10 11h4l13 -13l-13 -14h-4zM16 945v4h21l9 -11l-3 -3h-17zM26 1122l17 5l3 -2v-11l-6 -5zM33 915v4l7 6l20 -13v-7l-7 -6h-7zM33 1095v2l7 8l6 -8l-9 -5zM40 965v4l39 36h4l10 -7l7 7l19 -20l-59 -7 q0 -14 -14 -20zM40 1065v10h3l10 -10v-3l-7 -8zM50 92v2q11 24 16 24h23l17 -17v-17l-17 -16h-19q-6 0 -20 24zM56 -158l20 20h13q16 -7 24 -23v-4q-11 -23 -17 -23h-23l-17 17v13zM63 886v3l7 6l17 -35h-11zM63 1032v3l10 10h3q24 -12 24 -17q-7 -13 -17 -13q-13 5 -20 17z M73 45l6 6h4l6 -6l-6 -7h-4zM93 831v4l7 8h6l11 -12l-11 -9h-3zM109 105l21 19q0 -6 9 -6l4 -4v-9l-13 -13h-8zM117 8q4 0 9 21l13 6h26l12 -6h5l8 16v66l-13 24v13l13 30v329q0 30 16 53v20q-16 16 -16 30v2h6q0 -15 16 -22l17 17v9l-23 21l20 19l-20 27v26l6 10v10 q-1 6 -16 14l-14 -4q-22 4 -22 10v3l3 14l-3 13v10l5 7h17l11 -7h3q0 8 40 56v3q-36 57 -54 57l-9 7h-8q-9 -6 -35 -51l-13 14v3q7 22 22 27l13 37v7l-13 16v6l8 7h13q5 0 5 -16h8l53 16l6 -9l-13 -11h-16v-6q23 -61 23 -74h33l23 34q5 23 24 30v7h-27l-6 6l6 7v3 q-34 0 -47 30q4 13 13 13v4l-16 20v20l16 19q-19 25 -19 54h-4l-13 -3l-3 3v2l6 11q-6 0 -6 30q-14 0 -16 66v452l6 6h216l6 -6v-252h143l11 -7h3l89 -3q0 -7 80 -20q0 -6 47 -17q0 -6 22 -10q89 -48 137 -130l14 -23v-4l-4 -2v-4q26 -33 40 -130l3 -3v-33l7 -10v-60l7 -9 v-134l-7 -9v-57l-23 -116q-21 -36 -23 -60q-53 -89 -91 -113l-3 -3q0 -7 -10 -7v-7l8 -10v-3l-8 -10v-6l17 -17v-3l-9 -10l-13 23h-8q0 -17 -9 -17h-14l2 10l-2 17l-16 -3v-20q9 -9 16 -67q6 0 6 -20l13 -23v-3l-3 -4v-3q7 0 16 -46l8 -24l6 -37l3 -3v-27l-3 -3v-2 q30 -51 63 -81v-3l-3 -3v-4q7 0 7 -19l53 -67q57 -34 57 -50l6 -17q0 -4 -53 -35l-20 -24v-34q13 -21 20 -63l23 -69v-3l-3 -4v-4q7 0 16 -46l4 -3v-14l-7 -6h-165v-531h-12v531h-32q-9 -7 -63 -17l-3 -3q-12 14 -24 84l-4 2v20l4 4v4q-5 0 -20 72q-11 10 -13 50 q-7 39 -107 102v4q13 13 25 13v30q-7 25 -47 53l-11 4q0 -10 -16 -17h-17q-14 9 -23 30v4q9 20 23 29h13q20 -6 20 -20h11l16 7l-13 53l-3 3v4l22 56v17l-13 17l7 9v4l-16 50h-8l-16 -27v-7l13 -23v-3l-6 -10v-6q22 -25 22 -30q0 -26 -46 -41q0 -13 -9 -13q-11 0 -11 33 l-17 13q0 -6 -32 -17l-20 4l-7 -9v-8q0 -5 20 -13l3 -46q-7 -30 -23 -30v-7q23 -18 23 -26l-10 -23v-34l-19 -23v-9h3l10 5h16l36 -35v-13l-15 -14h-40l-10 6v-256l-7 -6l-7 6v250h-212q0 -15 -24 -30h-27l-18 20v24q7 15 43 30l9 35q-24 0 -56 40zM117 231q5 0 5 10l4 3h23 l7 -7v-13l-13 -13h-13zM122 809l4 4h9l12 -11v-3h-13zM139 1052v2l4 4h4l2 -4v-2l-2 -4h-4zM163 1071v4l14 17l-8 5l8 8l-4 4v5l4 4v4l22 -4h7l-3 -23q6 0 6 -14q10 0 10 -6v-4l-10 -9q-1 9 -27 9l-17 -4zM219 1058v4h7v-4h-7zM429 350q0 -9 23 -9q0 -17 57 -27l2 -3h4 l33 33v19l-10 11h-80q-29 -12 -29 -16v-8zM429 792q0 -6 19 -13v-40l-6 -10v-57l10 -13v-6h-10v-43h30l16 6v8q-14 0 -20 13v3q0 5 24 10q32 -12 43 -25q0 25 16 25l21 30l-14 16v30q-14 0 -33 13h-20l-26 -20h-4l-7 7v3l20 14l4 16l-11 33l17 -3h4q8 8 39 10l4 -3v-14 l-7 -10q20 -38 39 -63v-13l-2 -10h16l11 7q0 -7 9 -7l4 -3v-3q-8 0 -10 -27h-3l-11 6h-14q0 -12 -26 -43h4q25 0 69 17v4q-13 0 -13 5l13 14l11 -10q59 13 66 73v10q0 11 -37 14l-19 -10q-8 0 -8 10q0 20 17 36l-22 23v3l16 13q33 -21 33 -29l20 10l10 -17v-3l-7 -10v-34h10 q8 47 14 47l2 91v79q0 205 -132 236l-34 3h-16l-10 7h-63l-13 -10h-7l-13 10h-13v-54l6 -9v-10l-6 -11v-69l6 -10v-3l-6 -10v-24h19l7 -6v-4l-7 -6h-19v-139q13 0 36 -30q14 0 14 -8v-6l-7 -7q-27 15 -27 30h-10l-6 -6v-24zM435 1157v7l7 7l6 -7v-7l-6 -6zM442 317l16 -6h4 l-4 13h-16v-7zM445 875v3l13 17h7l7 -6q-12 -24 -17 -24zM448 852v8h4v-8h-4zM452 1135v6l6 7h7l14 -13l-7 -8h-14zM462 94l6 7h11l6 -7l-6 -10l9 -13l-9 -10h-4l-10 10l3 17zM465 261l7 6l-4 4h-3v-10zM472 1048v10h9v-10h-9zM475 -58l4 4h2l7 -8l-3 -3h-4zM475 912v13 l6 10v14l-6 9v13l6 7l54 -16q0 13 20 20q4 16 9 16l11 -10v-10q0 -7 -27 -20q0 -13 -7 -13l4 -3v-13l-4 -4v-3q7 0 14 -36l52 -21l-26 -13h-9q-7 0 -47 47l-31 13l-6 -7h-7zM481 198l17 -14h11l9 11v6l-7 16h-26zM488 625h6v4h-6v-4zM488 1101v17l6 7h31q11 -2 23 -46l7 -8 v-9l-7 -8q-17 12 -46 17l-10 13v4l2 4v3zM558 829l10 6h30l9 -6l12 2l1 -2v-3l-15 -10l-7 6h-34zM558 1025v20l6 7q11 -30 27 -47v-4l-10 -9h-4q-2 14 -19 33zM619 713v13h9v-10l-8 -7zM691 782h7v4h-7v-4zM834 -441l9 7l12 -9v-4l-8 -7zM1163 420v11l6 6h7l13 -14l-13 -9 h-7z" />
<glyph unicode="s" horiz-adv-x="1074" d="M-709 -683l8 8h9l10 -11v-2l-17 -14l-10 14v5zM-606 570v10q12 24 17 24h27l19 -17v-13q-13 -26 -19 -26h-20q-16 6 -24 22zM-532 -185l6 8l7 -8l-4 -1h-9v1zM-216 -257l17 17h5l13 -17v-10l-9 -10h-17l-9 10v10zM-207 -430q6 13 26 24l21 -20v-13l-9 -11h-21l-17 16v4z M-147 454v13l20 17h10l17 -17v-13q0 -6 -24 -20zM-73 410v21l13 13h16l14 -13v-23l-11 -11h-19zM-67 -51q66 32 66 50l-6 10l16 10h41l13 6l126 4l6 6h44l35 11l4 4h40l14 5l76 4l6 6h40l14 -14v-5l-7 -11q17 -30 23 -30h10v20l16 17h25q18 -8 18 -26q0 -31 -39 -37l4 -3v-7 q-12 0 -47 -33l4 -4v-13q-11 -21 -34 -33q0 -8 -56 -57q16 -45 50 -69l6 7v90q20 20 40 29l10 -7h32q0 16 45 33q52 61 52 134l7 5v61l-16 70q-13 45 -43 100l-41 69q-11 0 -19 23h-7q0 -13 -47 -36q-16 12 -46 17q-17 0 -23 46l-43 17h-21l-9 -8q-8 23 -43 47v7l5 10 l-35 36l3 4q-3 28 -17 39q-12 45 -36 97q0 39 -43 117l-50 113q-7 39 -44 102q13 27 57 51l10 35v4q0 61 23 90l10 -4v7q-10 0 -10 7q7 26 53 97h4l6 -8l-6 -9v-8h33l16 -13l8 10v15q-14 0 -14 9v4q14 46 32 46l17 6h34v3q0 7 -26 7l-8 7h-13l-53 -50l-6 7v3q64 65 162 96 q17 7 47 7l3 4q10 0 10 6v69q0 8 10 8v5q-10 0 -10 8v43l7 7h96l76 -20q0 -5 43 -21l40 -26q98 -84 98 -113l32 -56l-3 -11q12 -7 23 -69l3 -21l7 -5v-21l-3 -3v-3l7 -7v-53q0 -7 -11 -7v-10q11 0 11 -6v-7l-7 -7h-30l-10 -6h-10l-56 -4q-25 41 -37 50l-3 4h-11l-9 -11v-3 l6 -10v-6l-6 -10v-4l6 -6q10 0 10 13q23 -4 23 -13l-9 -11h-50q-5 -5 -43 -9l-4 -4l-7 11v52l-6 11v43l-7 10v32q-16 17 -39 68q-57 21 -67 33h-7l-10 -7h-30l-13 -10l3 -3v-77q0 -6 -13 -6v-17q13 -1 13 -10v-13q0 -7 -13 -7v-3l7 -10l-10 -10h-7l-9 3v-3l-11 -13h-33 l-10 -11l13 -22v-21q14 0 14 -7v-6l-7 -10v-36l-7 -10v-11l4 -17h-7l-10 8h-16v-8q19 -17 46 -69q41 -20 50 -46h13v6q-10 0 -10 7v13l7 7q12 -37 79 -73l84 -69v-14l-7 -11v-5q0 -8 13 -8l3 -3v-6q0 -10 -16 -10q52 -67 63 -73q0 9 13 16h34l23 -23v-20q22 0 30 -17v-13 l-23 -19l2 -13h30l44 -28l10 7h3l17 -17v-9l-10 -11h-20q-6 0 -6 11h-4q-26 -15 -26 -21v-10l59 -109h4q2 10 26 10h4l16 -16v-14l-20 -46v-8l20 -30l-13 -22v-20l6 -11v-16l24 3h6l20 -17h14l10 7h3l23 -13h9q0 27 30 36h11q21 -7 30 -30v-6q-11 -21 -27 -33h-16l-24 13 l-6 -10v-13l6 -10q-5 0 -9 -21l-14 -5h-16l-31 46h-3l-16 -3l-20 3l3 -3v-24l-3 -16q20 0 20 -7v-7l-11 -14l-2 4h-7l3 -4v-1l-7 -28v-30l-6 -10v-16h23q21 -14 30 -37v-10q-14 -33 -40 -33q-26 3 -26 17h-7q-30 -74 -71 -119q-79 -87 -128 -101q-21 -12 -87 -33h-17 q-45 -76 -52 -133h-4l4 -3v-67l-4 -3v-3q7 0 7 -13l2 -4q0 -21 71 -30v-3l-3 -4h-40q-29 10 -50 54v73l13 52q7 0 9 30l34 51v3h-4l-9 -7h-90l3 -3v-126l-6 -7h-20l-73 24l-42 22l-84 -63q-20 -15 -73 -35h-10q-21 8 -30 22v57q6 4 6 40l57 93l9 10v6q-24 28 -36 73 q-5 2 -23 59q-35 38 -51 38q-6 0 -43 56q-15 16 -69 27l-20 6l-3 4v3zM-30 -283q0 5 23 20h10q26 -9 26 -37l-23 -26h-13q-23 6 -23 32v11zM-27 358v6q11 24 16 24h31l16 -17v-13q-14 -27 -20 -27h-17q-19 8 -26 27zM119 -463v-53l17 -16h6q51 17 123 72l21 21v3 q-44 40 -74 53q-13 41 -27 46h-7l-36 -59q-16 -33 -16 -56zM136 328v14q7 16 33 16l16 -16v-21q0 -6 -23 -20h-3q-13 5 -23 27zM149 -755q0 47 56 129q18 31 37 50q0 18 19 31q10 31 30 52v7h8v-3q0 -9 -77 -137l-50 -79l4 -4v-3l-14 -30v-10l124 30l32 4q40 0 53 -47v-37 q-10 -30 -20 -40l4 -3v-6l-21 -40v-41l-9 -9l-4 4v48l37 87v40q-7 22 -33 30h-26l-80 -20l-17 -7l-24 -3l-6 -6h-13q-9 0 -10 13zM162 1046h3l13 16h-6l-10 -10v-6zM178 1142l14 -17v-20l-7 -9v-7h20l10 -7h27v23q36 45 36 60h-4q-5 0 -5 -17q-11 -13 -60 -13q0 5 -24 17z M178 1222h11v13l-11 -10v-3zM209 291v13h6l13 -13l-6 -6h-7zM209 371v7l10 13l-4 23l4 4h20l6 -8v-13q0 -6 -13 -6l3 -3v-14l-13 -13h-3zM212 956h7v7h-7v-7zM222 949l17 -3v3l-7 7h-10v-7zM245 1059h11v16h-4zM261 1218l13 -23h4v19l-13 14h-4v-10zM265 1052l4 -23h30l9 9 v8h-17zM286 165l13 10h5l8 -7v-9l-9 -11h-4zM318 1209h11l46 43l39 -30h7q-2 35 -9 43v9l36 54v3h-7q-19 -21 -40 -29h-20l-39 16v-10l13 -23v-20q-12 -34 -30 -34zM325 1145l9 -10h4v10h-13zM342 1059h16v13h-3zM371 -143q7 0 7 -11q11 11 20 11v2l-20 14zM425 -91v-6 l10 -10l23 26h-7zM435 202v20l16 16h30l16 -16v-27l-13 -17v-6l7 -11v-13l-20 -20h-7q-23 12 -23 17v16l7 11v6zM435 1367l3 -2h3v10zM441 434l3 -3h14l-14 20h-3v-4l3 -9zM461 1335l10 -7h7l6 7l-13 10zM491 1375h3l14 16h-7l-10 -10v-6zM522 1411h1v10h-1v-10zM538 119v26 l15 16h4q15 -3 40 -39v-16l-13 -13h-10q-21 26 -36 26zM544 1428h4v6h-4v-6zM570 38v4l17 17h7l17 -17v-4l-17 -16h-3zM574 1308l10 -10v10h-10zM597 1328l7 -7h7l9 7l7 -7l7 7l-23 10q0 -7 -14 -7v-3zM631 -480h10l-7 -6l-3 3v3zM650 1212l4 -3h3l17 16v3h-24l4 -3v-7 l-4 -4v-2zM657 683v14q0 20 30 32h7q6 -5 33 -5l27 -24v-13q-5 -16 -37 -27h-37zM657 1142l13 -7h4v7l-13 3h-4v-3zM680 -583l14 11h9q23 -11 41 -34q13 -49 15 -49v-47l-5 -7l-8 26v34q-5 7 -13 50q-13 0 -13 10h-33zM680 1244h7l27 17h3l3 -4h4l-4 -1v-4l21 -13v17l-8 9v4 l8 9l-11 10h-13q0 -10 -7 -10q0 8 -23 10v-3q0 -16 -7 -16l4 -4v-4zM687 776v13l7 8l6 -8v-5l-6 -8h-7zM700 577q17 -24 17 -33l10 9v4l-7 20h-20zM741 1139h3l6 6h-9v-6zM741 1222h9v6h-9v-6zM763 1205l13 -10h17v10h-17l-9 7l-4 -3v-4zM773 604q10 22 28 29h13 q15 -7 22 -23v-10q-11 -26 -26 -26q-25 0 -37 30zM840 395v15l27 28h13q26 -10 26 -34l4 -3q-15 -28 -30 -33h-7q-22 10 -33 27zM843 1135l10 10h-10v-10zM873 551v2l7 8h6v-17h-6zM920 308v9l16 17h16l17 -17v-9q-7 -16 -23 -23h-3q-16 7 -23 23zM920 361v7q9 20 23 20 q14 -5 20 -17v-10l-17 -16h-10zM979 -51h7v-3h-7v3zM1122 -696l4 4h3q20 -27 20 -43l13 -20v-7l-6 -6l-21 50zM1162 -779l7 7l13 -56l4 -4v-120q10 0 10 -6l-10 -7l-17 30v127l-7 27v2zM1222 265v4q7 6 7 22l23 13h22l25 -22v-27q-10 -14 -30 -24h-11q-24 10 -32 30z" />
<glyph unicode="t" horiz-adv-x="991" d="M-243 381v6l10 10l10 -10v-4l-14 -13zM-87 411l11 9h5l8 -7v-2l-11 -11h-2zM-1 1579l7 8h10l13 -4l10 4v-4l4 4h6v-4q0 -6 -23 -17h-13zM13 -121l16 16h30l17 -16v-27l-20 -19h-23l-20 19v27zM19 1536v4l7 7h23v-7l-10 -10h-13zM56 1536l10 4v36l20 20l-6 7v3l9 11l4 -17 l16 17l-7 5q7 5 7 41l3 3h17q6 0 27 -40q26 -25 26 -43h34q5 34 22 34q14 9 17 43l4 3l-17 17q4 16 10 16h10q10 0 10 -14h23q34 11 40 31q13 0 13 10l10 3q0 7 -23 13l-10 17v10l6 6l21 -13q0 -20 26 -46l10 10h4v-21q15 0 26 -20v-6l-7 -7h-2q-28 12 -28 27l-3 3h-23 l-40 -49h-7v-20q17 0 17 -24q14 -23 97 -23h69v9q-21 27 -34 27l-18 -2h-8q-6 0 -13 49l9 7h25q17 0 30 23l9 13l4 4h36l23 -14l-6 -6h-4l-9 6h-14q-27 -9 -43 -36l4 -3v-4l-4 -13q17 -39 40 -56v-4l-7 -7v-6h13l11 6h6l13 -13v-20l-13 -13l-10 6h-17l-10 -10l4 -9l-13 -14 v-76l16 -7l10 7h10l17 -13l-24 -15h-20l-9 8v-23l9 6h7q5 -6 37 -6l66 -33l3 -4h7l23 13l3 -4v-2l4 2h7v-5l-7 -10v-4h116l14 4l13 -4h26l7 -7v-66q10 0 10 -6v-7q0 -7 -10 -7v-30l7 -10l-7 -10v-87h26l38 11l32 6l7 21v17h9v-25l14 -3q19 0 100 33q29 20 40 54v43l-17 17 h-20l-33 -23v-20l7 -11l-7 -6h-4l-9 10v36q2 12 46 27h20q23 -9 30 -27v-46l-6 -10l2 -10q-26 -46 -92 -64q-54 -26 -176 -43v-3h36l4 -3v-3l-8 -7h-9l-4 3l-16 -10h-7q-13 8 -13 23l-10 -6h-56l-10 -7h-7l-10 7l-7 -7l-10 7h-30q0 -10 -5 -10h-4l-13 10h-34l-37 10l-3 4 l-6 -11v-43q0 -7 19 -13l4 -11h30l32 24l12 -10v-10q-25 -20 -25 -43v-24l8 -9v-7l-4 -3v-3l39 -13l14 3l3 -3v-4q-4 -10 -34 -21h-5l-13 13v4l3 4v4q-33 9 -33 26l-27 9l-23 -26v-66q11 -20 36 -20q0 -8 23 -14q0 -24 21 -36v-11l-4 -2v-4h4l18 17h15l19 -20v-20 q0 -6 -30 -17h-22l-11 10v10l7 11l-10 9h-11l-13 -9h-3q-12 9 -30 9l-9 -13q48 -36 83 -40v-3q-7 -2 -30 -36v-4h2l30 17q0 -7 25 -10l16 -28v-13q-8 -20 -29 -30h-21q-22 9 -30 30v17l7 10v3h-7l-17 -30q-16 -16 -16 -36v-10l42 -10l21 4h9l12 -10v-10l-8 -11l21 -26h3 l-3 13q2 11 29 27h17q20 -9 30 -23v-34q0 -12 -54 -29v-4l27 -30q7 16 23 24h17q23 -12 23 -16v-28q-6 -19 -20 -19v-11l6 -10v-3l-16 -17h-10q-8 11 -26 11l-11 13v6l14 16v25h-3q-3 -14 -20 -34l3 -9l-7 -8v-3l10 -13v-17l-16 -20v-16l6 -10v-50q0 -18 10 -30v-22l-16 -17 h-28l-9 5h-26q-37 -22 -40 -35v-8l57 -79q33 0 33 -17v-6l-16 -17h-12l-19 17l-30 -4v-20l-36 -40v-491l-7 -7h-73l-7 7v240h-166l-7 5v187l-6 16h-4q0 -27 -20 -27l-3 -3h-3q-23 13 -23 16v25q16 22 23 56q36 9 36 16v27q-4 13 -69 27l-50 67q0 9 -37 52q-17 26 -43 26 q-17 0 -17 11v3q82 43 89 53q64 37 91 113v21l-7 9v7l7 10q-16 32 -77 56l-2 3q-12 0 -12 7q42 34 42 57q45 0 66 26q5 0 19 23v90q-14 0 -19 13q5 14 19 14v89l-6 10v3l6 11v57l-19 49q-15 0 -53 49v8q14 23 19 23h20q20 -13 20 -33l3 -4h4l6 17v70q-10 18 -23 27l-10 -8 h-10l-7 8v5l7 8l-10 17v5q0 8 36 11q4 16 24 30l6 19l-2 4v3l2 10q-14 16 -30 23q0 21 -29 23q0 -4 -30 -19q0 -19 -21 -30h-5v6q0 7 13 7l-8 10v7q21 19 31 50v9l-17 26l11 12h9l23 -14h17l-27 30l4 10h-4l-33 -13h-2l-4 3h-4v-3l8 -11l-8 -6h-20l-10 6h-4l-32 -16 q0 -11 -14 -17l4 -3v-10l-4 -17l7 -6v-14l-7 -6l-6 16h-13l-10 -7l-7 7v20q-13 0 -13 10l26 16h17q0 9 23 27v7l-19 -7q-10 -11 -61 -16q0 -7 -16 -7l-3 4v3q0 6 9 6v17l8 9v44l-11 -6h-3l-7 6v7l21 33v10q-8 4 -8 40zM80 1440h6v6h-6v-6zM109 18v10q12 24 17 24h19 q6 0 20 -24v-3q-11 -24 -16 -24h-23zM119 1609q12 0 26 -9h11l-21 19h-9l-7 -6v-4zM126 616v20q7 22 30 29h17q20 -6 30 -29v-20q-5 -14 -38 -30h-3q-30 11 -36 30zM149 1680v2l7 7l3 -3v-4l-7 -6zM175 1247v4h7v-4h-7zM205 723v23l11 10h22l17 -17v-13l-20 -20h-14z M205 1211v3h7v-3h-7zM216 1699v7h5v-7h-5zM229 1191l6 6l7 -9l-4 -4h-3zM238 1579l4 4h80l3 -4h4v4l-4 4q-10 9 -24 9q-3 23 -29 23h-4q-19 -9 -19 -23l-11 -13v-4zM242 819l13 13h4l9 -10l-13 -13h-3zM249 1107v8h10v-8h-10zM308 1145h10v13l-10 9v-22zM312 1785v4h10 l-7 -6zM315 1307q5 0 16 -43h17l7 17q-24 29 -24 40h-9zM378 1759l14 20l30 13l-4 17l7 6h2l12 -6q0 23 5 23h4q20 -17 30 -17l4 -3v-3l-8 -7v-6l17 -27v-3l-13 -7l-30 30l4 10h-4q-14 -23 -37 -33q-7 -30 -16 -30q-5 0 -17 23zM401 1596v4l17 17l4 -4v-10l-13 -13z M468 1832l6 7l8 -11l-4 -2h-4zM491 1745l13 11q0 -13 10 -13v-7l-13 -7zM495 1337h79v4q-4 23 -13 23h-47l-19 -17v-10zM495 1547h3v9h-3v-9zM521 1743l7 6h3l6 -6l-6 -7h-3zM548 1590q4 27 13 27h6l11 -11q-7 0 -7 -27l-10 -6h-3q-7 0 -10 17zM550 1520l8 6h9l11 -9v-4 l-7 -6zM571 1680l13 13h3l10 -11l-6 -16l20 -14v8l-10 13l3 3h16l24 -24l-7 -9v-26l7 -11l-3 -3h-8q-19 13 -19 32l-3 4h-10v-17l-17 -13l-3 4v26l6 11zM578 1437v7h9v-7h-9zM581 1500l20 9h32q1 17 11 17h3q8 0 11 -17l-14 -13v-29l23 -30v-7l-6 -6q0 13 -41 36l-6 -7h-13 q-7 0 -7 30zM584 792h3q0 22 10 30q-6 20 -13 20v-50zM617 154v10l14 13h6l13 -13v-2l-19 -17h-3zM624 1647h7v3h-7v-3zM628 852l26 23q1 12 13 21h30q23 -12 23 -17q0 -7 -19 -10l-17 2q-19 0 -40 -29h-3zM658 1579l5 8h25l9 -11l-34 -6zM661 1414v6l15 -17v-4zM663 18v3 q14 24 21 24h20q4 0 16 -24v-3q-12 -23 -16 -23h-20q-7 0 -21 23zM663 145v6l13 20h21l20 -20q-13 -27 -20 -27h-13zM663 1377l8 7h4l5 -7v-7l-5 -6zM671 1533v7l5 7l4 -4v-10h-9zM676 1052v3l12 10q28 -26 49 -33l7 -17h53q0 15 17 23l6 -6q0 29 13 29q7 0 7 -9l3 -4h7 l10 7l17 -14l-8 -6l-9 6h-10q-32 -13 -47 -46l4 -3v-4l-4 -10q38 -37 44 -52v-17l-7 -8q-8 0 -17 28l-26 29h-30l-23 -19h-7l-6 6q20 14 29 37l-20 29l-13 7l-10 -7h-3l-7 7l3 4v2l4 -2h6v2q-6 17 -29 17q0 7 -11 7zM680 1098h21v4h-21v-4zM691 1394v9l6 -5l-4 -4h-2z M714 1430l6 7l-3 9l3 4h14l6 -6q-10 -30 -17 -30h-6zM720 1351v9h7l10 -9v-4zM723 98q12 23 17 23h27l13 -20v-6q-7 -17 -23 -24h-13q-7 0 -21 27zM731 682v21q7 16 23 23h16l24 -23v-21q-16 -22 -34 -22q-12 0 -29 22zM731 862l6 7q27 0 43 -20v-4l-7 -6q-42 13 -42 23z M737 214v23l17 17h23l17 -17v-19q0 -7 -24 -21h-10q-23 12 -23 17zM744 1460v7l16 13h4l6 -6l-13 -21h-7zM747 287v7l7 7h6l7 -7v-4l-10 -9h-3zM747 1098h26v4h-26v-4zM757 809v7h3v-7h-3zM773 360v7l7 6h14l6 -6v-7l-6 -6h-14zM797 257v7l6 7h7l7 -7v-7l-7 -6h-7zM810 812 l10 10h3l10 -10l-10 -9h-3zM810 1347v7h4v-7h-4zM814 539v7l6 7h10l7 -7v-7l-7 -6h-10zM843 896v3h10l-6 -7zM856 513v10l13 14l13 -14v-7l-13 -13h-2zM873 459v4l13 17h25l9 -9v-14l-13 -14h-21zM880 918v24q31 39 31 46v20l-15 16v8l7 6h17q9 0 9 -14h44l10 8h6l7 -8 q-17 -12 -20 -32q-15 -7 -17 -14l14 -13v-13l-7 -7q-8 16 -29 16q-19 0 -51 -47h-4zM886 1191l4 3h4l5 -6l-3 -4h-2zM896 188v5l7 8l4 -4v-9h-11z" />
<glyph unicode="u" horiz-adv-x="1007" d="M-396 369v23q7 19 26 27h23l27 -27v-16q-9 -23 -27 -30l-3 -4h-20zM-254 -86l7 6h10l6 -6v-7l-6 -7h-10l-7 7v7zM-220 585v6h6l7 -6l-7 -7zM-134 412v23l23 24h13q30 0 40 -30v-13q-7 -22 -30 -31h-19zM-127 4q7 19 26 26h20l23 -22v-21q-12 -30 -32 -30q-22 0 -37 23v24 zM-75 598v4q0 6 28 19l19 -23l-13 -20h-23q-11 4 -11 20zM-18 -36l13 14l13 -14v-7l-5 -7h-14l-7 7v7zM42 399l8 7l5 -7l-5 -7zM51 166v47q3 10 87 40l23 26v13l-29 34v10l6 6l-3 4v20l3 3v3l-13 13v4l13 13l-3 4v19l3 4v3l-13 14v3l13 14l-3 2v14l3 2v4l-19 21v3l6 10v26 l-6 10v7l19 20l-3 3v13l3 4v2l-3 4h-3l-17 -13h-13l-20 20v13l16 17h17l14 -10l9 6l-3 4v20l3 3v3l-6 7l16 13q0 12 20 26l17 28v751l7 6h262l7 -6v-754q62 -74 87 -74q16 -4 16 -10l-13 -13l19 -13v-7l-6 -10v-7q16 -1 16 -10q-29 -14 -29 -20v-10q0 -9 36 -26v-3l-7 -7 l14 -13v-8q0 -13 -30 -13v-3q23 0 23 -10l-36 -17v-16q5 -17 16 -17l7 -10v-3q-17 -1 -17 -10q7 -6 30 -6l37 -40v-4q-12 -15 -24 -53q-55 0 -103 -99v-13l8 -11l-8 -6l13 -27v-6l-5 -11v-49q0 -6 -25 -20l-13 -20q6 0 17 -64q12 -34 51 -72v-180h18q42 12 74 46l19 34l-2 4 v6q12 20 16 53l3 3v34l7 9v329l-7 10v50q-10 0 -17 13v4q0 9 17 10v3q-7 25 -30 46q0 13 -43 34l-7 10v13q0 14 44 30q0 36 6 39v21l-13 26l7 7v43l-10 4l3 23v30l-10 13v4l7 5l-3 17v38l30 39q-10 0 -14 33l-3 4q11 6 17 56h2l-2 3v24q6 6 6 30l13 3v16l7 11v372l7 6h120 l9 7h4l9 -7h114l6 -6v-77q0 -11 -30 -59l-3 -27l33 -73v-37l-4 -192q4 -49 11 -54v-46l6 -10v-565l-6 -10v-90l-7 -10v-70l-4 -139l-6 -6v-31q-7 -4 -13 -65q-7 0 -17 -58l-30 -65q-42 -76 -102 -113q-91 -54 -157 -54l-7 -6h-46l-22 -4l-4 4v162l-104 24q0 5 -32 16 q-92 50 -125 120q-8 0 -45 92v8l3 2v4q-13 14 -23 83l-7 36l-3 3v34l3 4v3q-6 0 -10 39q0 32 -133 57zM82 738v4l13 13h7l7 -8v-13l-7 -5h-10zM119 -172l23 23h26l24 -23v-30l-24 -24h-23l-26 28v26z" />
<glyph unicode="v" horiz-adv-x="975" d="M-976 -350l20 20h23q23 -15 23 -37q0 -10 -32 -33h-4q-21 10 -30 24v26zM-814 298v4q0 36 38 36h13l23 -23v-27q-9 -14 -30 -23h-14q-30 12 -30 33zM-557 -210l6 6h7l13 -13l-13 -10h-7l-6 6v11zM-212 647v6l10 10h30q5 0 14 -40l2 -3v-3l-6 -7q-27 11 -27 26 q-23 5 -23 11zM-205 504l20 6l6 -10l-3 -3h-17zM-175 490l17 14h2v-7l-13 -13zM-145 517v13l6 7h7v-3l-4 -17h-9zM-145 584v9h9v-9h-9zM-139 700l11 7q17 -4 17 -11l-4 -3h-17zM-126 733v7l7 6h8l5 -6v-4l-9 -10h-4zM-110 -15l25 24h13q28 0 36 -26v-13q-9 -25 -27 -30 l-3 -4h-14q-20 6 -30 30v19zM-93 577v13l13 13l12 -10l-17 -16h-8zM-85 517l5 6h4l10 -9l-2 -4h-12zM-76 839v7h4v-7h-4zM-72 430l9 11h4l7 -7v-4l-7 -5h-7zM-63 -141l21 20h13l20 -20v-20q0 -5 -24 -16h-6q-24 11 -24 16v20zM-63 617v3l14 33v8q-14 0 -14 5v17h8l29 -17h7 q33 13 49 44h4l3 -3v-7q-16 -39 -50 -39q-16 -1 -16 -12v-2q0 -11 23 -11l6 -9v-10l-6 -7l-7 7l-3 -3h-3l-23 9h-10l3 -3v-10h-6zM-59 759v11l7 -7l-3 -4h-4zM-49 484v10l7 6h6l30 -10l6 -13l-6 -6l20 -20l-7 -8h-3l-37 17zM-49 819v4l7 6h13q29 -9 29 -20q0 -9 14 -29v-8 l-7 -6h-3l-17 17l-16 -3h-7q-6 0 -10 36zM-42 956v3h6v-3h-6zM-19 976l3 3h3l7 -7l-7 -6zM-2 593v7l6 6l10 -9v-4l-7 -6h-3zM0 839v3l11 11h3l7 -7l-7 -7h-14zM7 510v7h4v-7h-4zM17 574l11 10l2 -4v-3l11 3q13 -5 13 -10l-10 -6h-16zM17 759l4 4h3l13 -17v-10l-7 -6zM21 357 v4l7 6l2 -2v-4l-6 -7zM24 534v3l6 7l7 -7v-3l-7 -7zM24 863v3l6 6l7 -6v-3l-7 -8zM24 902l4 4h23v-8l-14 -5h-3zM41 274v4l13 13l13 -13v-7l-6 -6h-10zM41 1305v20l6 6h253q6 0 10 -33l3 -3v-37l6 -10v-33l-3 -4v-3l7 -6v-34l7 -9v-41l6 -10v-36l7 -10v-33l6 -10v-30l-3 -3 v-4l7 -6v-40l7 -10v-33l6 -10v-41l8 -9v-30l5 -10v-4l-4 -2v-4q62 -68 118 -83q0 -37 6 -39v-17l-3 -17l10 -7h3l-3 3v30l7 10v60l-7 10v24q20 14 20 46l6 6v24l-3 17l7 5v38l6 9v4q-22 51 -40 70q34 39 34 49v17q0 23 -37 60l33 27l4 19v14q0 26 -40 63l6 10v30l-19 30 l19 23l-3 9q42 59 47 94q20 0 20 33l2 4h38l9 9v40l8 13l2 77l3 4h263l7 -8v-22h76l10 5h40l67 17q0 7 33 13q96 56 96 101l3 3q0 51 -112 80l-16 6h-31q-5 0 -16 -23q9 -33 63 -33v6q-16 0 -16 7v3l5 7h8q22 -11 22 -17l-6 -17h-50q-22 10 -37 30v4q0 43 24 43l3 4h27 q4 -6 43 -11q85 -31 99 -72l7 -14q-7 0 -10 -33q-63 -85 -169 -106l-40 -11l-4 -3l-112 -3h-7q-7 0 -10 -26h-3l3 -4v-23q-7 -4 -7 -40q-6 0 -9 -40l-4 -3v-64l-8 -9v-63l-5 -7l4 -4v-23l-4 -3v-4l5 -6v-13l-5 -7l4 -3v-30l-4 -4v-3l5 -6v-13l-5 -8l4 -3v-10l-8 -9v-4l8 -9 l-4 -12l5 -5v-4l-9 -13v-13q0 -31 34 -47v-6l-4 -4l30 -46l-6 -7h-67q-56 -21 -56 -66l-14 -74h-3l3 -16v-7l-17 -76l-6 -37l-3 -4v-30l-7 -5l3 -4v-23l-17 -77l-6 -36l-3 -4v-29l-7 -7l3 -4v-22l-6 -11v-30l-7 -10h10q0 10 16 17q0 -7 14 -7q1 -19 20 -19l13 -34 q-30 -40 -40 -40h-16l-24 14h-6v-20l-7 -7l4 -3v-23l-4 -4v-3l4 -3h16l10 6h7q7 0 9 -20l-16 -13l3 -17q-10 -20 -43 -20l7 -10q-9 -7 -20 -39v-7q17 0 36 -27v-13q-14 -29 -33 -29h-14v-21l-5 -9v-7l13 10h36q14 -10 23 -30v-13q-10 -21 -29 -30h-24q-23 7 -23 23h-4 q-6 -57 -13 -57l4 -4v-22q-13 -28 -21 -103l-9 -33h-123l-10 -7h-10l-10 7h-40v-263l-6 -7h-28q-6 0 -13 47l-3 3v31q-14 32 -23 126v13q-7 0 -20 103q-7 0 -17 105q-6 0 -6 25q-7 0 -7 36q-7 0 -7 10q0 56 -32 192l-7 7v17l7 9l-7 11v33q-23 66 -50 93l7 10v26 q-9 27 -24 41q0 5 -17 5l-3 4l-10 4v4q-6 0 -47 -42l-6 8v9l14 17l-8 8v13q0 9 25 9l5 20l-13 13l8 7q30 -7 30 -23h5q0 13 24 13v23q-6 6 -11 44l-5 16l-4 3v24h-26v3l3 16q-11 4 -11 21l11 9l2 -3h4l8 14q-8 0 -12 40l-2 3v6l6 10v67h-4v-10h-9v3q0 33 -17 43l8 7h9l4 -4 h3v11l-20 106q-21 90 -21 136q-9 0 -29 163q-6 5 -10 43zM47 371v3l17 30l19 4q0 -7 30 -17l11 -26q0 -22 -20 -34h-24q-25 0 -29 36zM51 717v3l13 13l10 -13v-7l-7 -6q0 6 -13 6zM67 898v8h3v-8h-3zM77 683v4l6 6l14 -14v-2l-6 -7zM77 743v3q14 41 31 41h2l3 -4v-7l-30 -40 zM94 597v3h10l-7 -7zM100 72v16l10 11h14l10 -11v-13q-2 -7 -17 -13q-17 5 -17 10zM100 294v4l8 6l5 -6v-4l-5 -6zM108 -8l13 17h17l13 -17v-9q0 -6 -25 -17l-18 13v13zM124 302v6q15 23 43 43h6q8 0 8 -17q13 0 19 -19v-13l-27 -28h-13q-36 21 -36 28zM156 487q8 -5 8 -36 l3 -4h10l-4 34v16h-6zM426 318l7 -10v-34q4 0 20 30v4l-7 10v3q9 17 30 17q0 40 37 70q0 8 19 17l10 13v17l-16 59h-4l-13 -14v-13q15 0 17 -30l-17 -36l-16 4q-35 0 -67 -74v-33zM433 255l6 -7v-24l-3 -16q13 -23 30 -23v36l6 11v49h-13q-26 -11 -26 -26zM449 88h10v34 l-10 -10v-24zM502 570h4v7h-4v-7zM509 530h10l-10 10v-10zM509 547h4v10h-4v-10zM721 138l4 4h10v-10h-7zM735 427l10 7h3l7 -7l-10 -6h-3zM751 451l24 6v3l-10 14v10l7 10l-7 10v6l7 7q11 0 53 -33v-7l-13 -26h-4l-23 9l-13 -17h-14zM775 321v3l3 4h4l3 -4v-3l-3 -3h-4z M782 302v6q0 7 13 7v6l-7 10l3 3h11l13 -13v-10q-8 -16 -24 -23zM817 441v10h12v-8l-8 -5zM847 413l4 4h4l5 -5v-8h-1z" />
<glyph unicode="w" horiz-adv-x="1390" d="M42 -463q10 16 23 16l14 -9v-20l-17 -14h-4l-16 17v10zM42 1434v40l6 7h233q7 0 10 -34l3 -3v-43l7 -10v-43l7 -11v-46l6 -10v-43l-3 -3v-3l6 -7v-44l7 -9v-46l7 -11v-44l6 -9v-50l8 -10v-29l-4 -17l6 -7v-43l7 -10v-47l7 -10v-79l6 -10v-67l7 -10l-3 -16l13 -24v-39 l13 -24v-6l-6 -10v-14l6 -10v-79l-6 -10v-23h23l13 -13v-8l-6 -9v-51q9 -23 30 -33q9 0 9 -13h21l13 -13v-7l-13 -13h-13l-17 13q0 -10 -37 -63v-99q6 -6 10 -44l3 -3v-7l-3 -3v-3l3 -3h3q0 26 8 26l-4 3v39q21 57 34 71l-4 3v7q0 17 83 57l10 9l-4 17v7l37 63l-26 23h-11 l-13 -8l-13 12v4l23 29q-13 0 -13 6l20 20v3q-27 0 -27 14v6l20 24q-13 0 -13 9v4q36 53 112 53v26l-6 11v6l3 4v4l-50 26q-27 0 -98 66l2 17v36l7 10v47l7 9v51l6 9v50l7 7l-3 17v23l6 9v74l7 9v47l6 10v44l7 9v43l7 7l-4 17v29l7 11v44l6 9v47l7 9v44l7 10v36l7 7h49l7 -7 v-282l-3 -4v-3l26 -10l54 -3q67 0 142 43q17 14 17 33l3 3h3l-3 4v3l3 17q-37 62 -102 113l-10 7h-13q-21 -33 -21 -45l-3 -2v-29l11 -12q0 13 6 13h36q26 -13 26 -18v-8l-13 -13h-39q-30 14 -41 38v35q22 54 44 54h10q46 -26 96 -89q17 -16 26 -47v-14l-9 -33 q-22 -37 -93 -53v-20l6 -10v-41l7 -9v-40l6 -10v-30l8 -10v-23l-4 -17l7 -6v-40l6 -10v-29l7 -12v-39l7 -9v-11l-3 -3v-3h3q17 13 30 13h9l11 -7q0 6 30 16h2q30 -9 38 -22v-57l-8 -10v-7h11l10 7h3l30 -23v-3l-10 -14v-3h3l17 13h13q14 0 14 -36l10 9v34l6 7l-3 16v37l6 9 v51l7 9v51l7 9v44l6 10v49l7 7l-3 17v36l6 9v51l7 9v34l7 7h232l10 -10v-10l-6 -10v-33l-7 -10v-41l-7 -9v-34l-6 -10l-4 -79l-7 -7v-33l-6 -9v-34l-7 -10v-30l-6 -10v-23l3 -17l-7 -7v-33l-7 -10v-33l-6 -10v-36l-7 -10v-33l-6 -11v-16l3 -17l-6 -7v-33l-7 -9v-67l13 -58 l-6 -5v-34l6 -9l-6 -11v-46l-20 -33v-7l6 -10v-10l-13 -23v-17l7 -10v-4q-9 -9 -17 -56q-7 0 -7 -19q-6 0 -6 -37h-4l4 -3v-4l-17 -33v-13l7 -10v-13l-28 -36v-25l4 -16l-5 -6v-34l-8 -9v-31l-7 -10v-33l-6 -10v-40l-8 -9v-17l4 -17l-6 -6v-30l-7 -11v-39l-6 -10v-34l-7 -9 v-33l-7 -13l-3 -77l-7 -7v-33l-13 -23h-229l-14 20v17l4 17l-7 5v38l-6 9v34l-7 9v23q-11 0 -40 30h-10q0 -8 -17 -16h-13l-36 29q-11 0 -11 8l8 9l-17 7q-10 0 -10 -27l-27 -17h-10l-26 28v13q11 23 16 23h31l9 -7h4q8 47 33 47l2 4v2l-22 30h-8l-9 -6h-20l-10 6h-23 q0 -23 -13 -23q-33 8 -44 26v17q7 8 7 23l23 14h30v23l24 23h19q28 -15 28 -30l-4 -3q6 0 13 -33h40l30 26h13l10 -6v23l-6 10v34l-7 9v10l3 17q-29 18 -33 32v8q10 17 20 17v43l-7 9v34l-7 10v30l-6 9v21l3 3v3l-6 7v53l-7 10v30l-6 9v41l-8 10v23h-3l-10 -7h-20v-30l7 -10 q-14 0 -67 -19q-19 0 -46 -34l-6 -13v-37l-7 -10v-46l-4 -4q0 -9 13 -9l4 -4v-53q0 -6 -23 -20l-7 -19v-47q43 -8 43 -40v-3q-8 -31 -43 -31q-13 0 -13 -6v-7q26 -29 26 -43q-36 0 -36 -37v-20q-7 -5 -7 -32l-3 -4h-226l-13 17v33l-7 10v23l-7 27v16l4 4v3q-7 0 -10 40l-3 3 v34l-8 9v34l-5 9v34l-8 10v16l4 17l-7 6v30q-7 22 -31 30h-13l-26 -13h-33q-6 0 -20 23q-12 0 -23 33v7l4 4v3l-8 6l8 10v7l-8 9v47l30 27v17l-6 10v9l17 14v17q-32 36 -67 63l-3 2v21l7 8l-4 1v12l10 32q16 4 16 10v23l-6 10v10q36 19 36 27v36q-36 37 -66 37v7l7 10v26 l-14 21v3q0 6 27 10q55 34 63 59v13q-9 33 -47 80v16l24 41v33l-10 40l-4 3v34l-6 9v27l4 3v3l-8 7v33l-6 11v33l-7 10v30l-6 9v33l-7 11v26l4 4v3l-7 7v32q-6 6 -10 43l-4 4v34l-6 9v24l-7 26v17l3 3v4zM207 -642q9 21 30 30h12q20 -8 29 -30v-7q-11 -30 -41 -30h-3 q-14 4 -27 30v7zM237 -456q11 20 25 30h26l20 -21v-22q-8 -20 -27 -27h-14q-18 11 -30 29v11zM364 -653l10 11h17l13 -13v-7l-13 -13h-14l-13 13v9zM394 -476l16 13l11 -13v-7l-11 -10h-2zM434 -672q7 21 30 30h22q28 -18 28 -40q0 -34 -33 -47h-13q-34 14 -34 41v16z M477 -433q8 23 30 23l36 -3q9 14 30 24q22 -11 34 -28v-22l-20 -21h-27l-10 8h-7l-19 -17h-30l-17 17v19zM484 301v20q7 16 33 16l23 -22v-14l-20 -20h-17zM514 -603l3 4h3v-9zM596 -516q10 14 31 23h16q27 -12 27 -23h4l18 13h28q5 -1 23 -30v-10l-13 -52l-17 -8h-13 q-26 17 -26 34l2 4v2l-10 7l-23 -17h-16q-21 9 -31 24v33zM613 -110q8 18 27 26h20q5 -1 23 -30v-4q-7 -6 -7 -22l-23 -14h-10q-20 11 -30 31v13zM620 69v13l13 14h13l14 -21v-3l-14 -17h-13zM649 -363l4 4h4l3 -4v-4l-3 -3h-4l-4 3v4zM660 504q5 -5 10 -43l4 -4v-20l-4 -3 v-3l22 -60l14 -26v-11q-40 -29 -40 -39l4 -10h6q0 19 37 23l17 -4v33q-8 5 -8 42l-22 22v9l17 21v10q-38 26 -43 47q15 41 32 49l-2 17v3l2 16l-16 -3h-30v-66zM670 680h6l16 16v80l-5 10v113h-4v-60l-7 -6v-77l11 -19q0 -21 -17 -30l4 -17zM676 122q5 13 11 13h9l10 -9v-12 l-14 -13q-16 11 -16 21zM679 444v3l8 7l9 -10l-6 -7h-3zM692 -164q17 24 34 24q22 0 37 -24l-3 -10l6 -7l-6 -6l3 -3v-4q-12 -17 -33 -26q-30 9 -38 23v33zM704 -21l5 7h4l7 -7l-11 -7zM704 -476l5 7h8v-4l-11 -10l-2 3v4zM743 -420h26l-9 10h-7zM766 -337v-6q0 -7 43 -11 l4 -13h6v26h-19l-17 14h-7zM779 -426l10 -7v7h4l-4 9zM800 -535l13 13h2l17 -13v-14l-9 -11h-14l-9 11v14zM809 -413v-4l17 -3v3l-3 14l3 10h-7zM813 -696l23 24h20q26 -14 26 -33v-17l-16 -17h-36l-17 17v26zM852 756q14 0 27 -26l3 -4h14v34h-44v-4zM869 65l7 -19l20 -7 v23l-27 7v-4zM869 143l10 5h6l24 -13h6l17 17l-9 33l-8 6l11 4v23q-18 23 -41 77h-6l-3 -17v-53q33 -4 33 -34v-3q0 -17 -16 -27h-24v-18zM898 354l11 -9v9h-11zM906 35h3q17 0 36 -36v-23q13 0 13 -7l-13 -13v-14l8 -9v-56l5 -12v-62q7 -5 11 -43l10 -7v36l-7 10l3 11l-6 6 v10l6 7l-3 3v7l13 17q-16 9 -16 49l-7 7v4q20 49 30 59v7q-11 19 -43 30q0 33 -23 33l-11 6h-9l3 -9zM940 375h5v4h-5v-4zM940 616l22 -35l-4 -11h4q17 2 17 16l13 21q13 0 13 7v2l-13 13h-10q0 -13 -7 -13l-17 17q-13 -4 -18 -17zM966 464h13l-10 10h-3v-10zM969 -303v-43 h6v43h-6zM1029 534l9 -10l7 20l-7 7h-3zM1035 573h10v13l-10 -9v-4zM1215 -61l6 -6l-3 -4h-3v10z" />
<glyph unicode="x" horiz-adv-x="954" d="M25 429v28q9 23 50 23l7 7h20q5 0 16 -24v-4q-9 -22 -39 -46l-13 -6h-11q-29 18 -30 22zM39 -262q15 44 19 44l-3 3v14q13 24 30 86h3l-3 4v6l30 87h3l-3 4v1q29 91 33 91l-2 3v10l5 10v13h-3q0 -10 -23 -19q-22 9 -33 26v13q7 16 23 24h17q23 -9 23 -40h4q8 45 18 59 l-1 3v8l5 9v8q0 12 -17 30v5l17 21h21q0 13 6 13l-2 10l5 13v3h-3q0 -13 -10 -13h-26q-7 0 -21 23v4l8 10h-11q-6 0 -6 -37l-17 -13h-26q-5 0 -17 23v17q3 11 36 30q0 15 33 36h10q16 -7 16 -30q38 -11 38 -30h4l13 53l3 4h3l-3 3v3q20 44 30 88h3l-3 1v8l29 86h4l-4 3v7 q13 22 21 63q5 0 9 30h4l-4 4v3l7 10q0 24 -10 26l-10 -6l-7 6h-19l-11 -6h-13l-20 16v17q6 13 27 23l23 -13h24v6l-21 47v7l4 3v4q-5 0 -33 89l3 4v3q-8 0 -13 40q-11 17 -40 17q0 4 -43 19q0 23 -24 33v7h-6q-12 0 -54 -46l-6 6v3l30 63v11l-10 -7h-7q0 8 34 60v2 q-7 14 -17 14l-17 -3l-13 17v10l23 43v9l-6 11v36q18 17 36 60v43l-20 34v3l3 2v4q-4 0 -13 30l-17 47l-3 3v4l3 3v3q-6 0 -16 46l-6 17l-4 4l4 3h72l17 13h9l34 -10l4 -3h96l17 13h13l53 -20v-50l-3 -13l3 -13v-27q41 -43 66 -93l67 -113v-3l-24 -34v-9l24 -26l-24 -12v-29 q10 0 24 -19l-24 -10v-30l10 -14q0 -18 -23 -33h-6l-11 7h-9l-39 -47v-53q28 -26 56 -26l3 -4v-26q0 -11 -46 -17q0 -7 -12 -7l-1 -3v-174h5q1 17 10 17h16l12 -9v-10l-14 -13h-14l-10 6v-17q13 -30 24 -86h6v3l-4 17q8 0 14 53q7 0 11 34l3 3v14q0 5 -20 13q0 12 -10 26v10 l30 43q0 50 26 50q15 0 26 90q7 0 11 26h3l-3 4v13q7 24 33 33l-3 4v59l6 10v49q19 52 23 88h4l-4 2v11l7 6h259l7 -6v-7l-16 -64q-12 -15 -44 -139l-34 -99l-82 -266l-3 -24q-9 0 -10 -33h2l8 -7v-9q0 -10 -24 -10l-14 -37v-16l21 -23v-37l-21 -23v-14l8 -10v-9 q0 -8 -37 -34v-50l-3 -13q40 -151 76 -223q8 0 17 -33v-46q7 -5 7 -40q12 -16 36 -109q13 -31 30 -108q17 -18 17 -56q6 0 6 -20q10 0 30 -13h23l10 7h28l42 -50l40 -60q0 -14 -53 -66q-28 -76 -33 -76l-27 22h-13l-11 -6h-36q-7 -7 -23 -7v-6l46 -70v-3h13q11 10 56 10h4 q92 0 123 -80q11 0 11 -20l3 -24l6 -6v-33l10 -10q0 6 61 13l46 26q60 53 93 107l-4 4v6q13 13 17 43l3 4v59q-20 64 -53 90l7 6q18 0 49 -62q3 -29 11 -37v-54q-8 -7 -11 -49l-63 -92q-80 -74 -166 -74l-6 -20v-3q0 -88 -70 -170q66 -54 106 -76l59 -27h54q56 26 56 63l4 4 v39q-11 36 -56 97l6 6q31 -16 63 -99v-47q-23 -66 -56 -66l-17 -10h-55q-50 15 -91 43q-49 32 -80 63l-77 -47l-96 -22q-64 6 -93 26q-62 47 -90 110q0 14 -13 30v3l4 3v3q-7 0 -7 27q-6 0 -6 23l-7 7v40l-7 10v23l7 10v33q7 4 7 41q5 0 16 39l36 59v4l-3 -4h-33 q-10 3 -10 28v9l7 7l-4 3v36l4 4v4l-7 6v93l-26 83v13l3 4v3q-11 11 -14 51q-5 0 -16 48l-3 4v10l3 3v4q-5 0 -16 59l-17 50v10l3 4v3q-7 0 -17 56q-34 47 -103 84v3q12 16 43 37q0 7 21 29v4l-4 33h-6v-10q0 -39 -74 -63l-16 -17v-63l20 -22v-4q-14 -27 -53 -214 q-8 -35 -14 -35h-259zM122 606v7l13 16h26q11 -3 11 -20q-3 -23 -11 -23h-26zM135 437v20q7 23 33 23l17 -4l30 30h9q20 -7 27 -26v-13q-17 -25 -30 -25l-19 4q-11 -33 -41 -33q-15 6 -26 24zM135 931v21l16 13h4q16 -7 22 -23v-3l-16 -17h-15zM161 895l15 14l13 -14 l-12 -10h-5zM177 536q3 40 12 40h9q6 0 17 -23v-17l-9 -10h-17zM232 603v3l6 7l7 -7v-3l-7 -7zM255 663v10q11 26 26 26q24 0 37 -26v-8l-27 -26h-13q-16 8 -23 24zM351 97l6 -6l34 27v3h-4q-22 -20 -36 -20v-4zM395 121h9v3h-9v-3zM404 134l8 -6v19h-8v-13zM481 928v24 l19 13h7l20 -17q0 -21 -20 -34h-7zM587 -816l3 -67q7 0 7 -30q5 0 36 -88q72 -88 107 -88l23 -3l7 -6h30l36 9q39 9 87 41q12 0 26 19q-79 85 -110 143h-3q0 -70 -47 -70l-19 -13h-27q-39 13 -64 60q0 32 -5 36q4 0 13 63q20 46 63 90v7l-24 76l-16 33l-61 -20l-29 -49 q-33 -77 -33 -143zM644 350v13l9 10q0 -6 13 -6l4 -4v-9l-13 -14q0 7 -10 7zM674 416v25q2 9 26 9h13l17 -17v-13l-20 -20h-20zM674 526v4l9 9h4l6 -6v-7l-10 -10zM687 -866v-13q21 -70 46 -70l13 -7h24q44 19 53 47v13q-9 14 -30 23q-23 -11 -23 -16l6 -10v-3l-6 -7l-13 17 v3q11 23 15 23h41l20 -17h3v4l-64 110l4 4v2q-7 0 -13 27h-6q-64 -59 -64 -123zM730 -607v-2l36 -100h4q0 14 53 36v3q-53 60 -53 77q-40 -3 -40 -14zM770 -722v-8l36 -73l17 -36q66 -103 106 -146l30 -33q17 8 57 82l-4 4v6l10 30l7 37l3 3v13q0 6 -50 17q-83 50 -146 136 l-3 3h-10zM850 -677v-6q6 -20 65 -73q54 -56 84 -56l13 -11h20v37q-25 74 -63 99l-37 17h-56l-10 -7h-16z" />
<glyph unicode="y" horiz-adv-x="1033" d="M-243 1475v26l16 21h27q25 -21 36 -43v-21l-19 -19h-25zM-168 844v7l7 6h13l7 -6v-11l-10 -9h-3zM-131 1130v20l23 23h7q30 0 40 -30q-10 -33 -24 -33l-19 -4q-15 6 -27 24zM-124 1526v13l7 5l13 -13l-13 -13zM-85 1388v17l14 14h26l14 -20v-11q0 -6 -27 -19 q-27 13 -27 19zM-71 708v6l6 7l7 -7l-10 -9zM-65 489v9l17 17q25 0 27 -10v-23l-10 -10h-20zM-48 758v20q0 5 24 19l26 -22q0 -19 -17 -27h-23zM-45 1199q0 14 24 23l19 -19v-13l-13 -14h-13q-10 3 -17 23zM-45 1528q0 27 30 27h13l17 -16v-21l-20 -19h-23q-17 9 -17 29z M-18 1137v26l11 10h30q3 0 15 -23v-11l-23 -22h-7q-26 13 -26 20zM-11 980v14l13 13h21l9 -10v-24l-13 -13h-11zM-11 1316v13l19 20h16l14 -13v-27l-15 -14h-15zM-5 1273v9l7 8l6 -8v-9l-6 -8zM32 469v3q0 30 30 40h13q19 -16 53 -30v-23q0 -11 -33 -11l-20 -13h-13 q-30 12 -30 34zM49 1399l4 4h2l7 -7l-4 -4h-3zM62 887v7l23 23h20l20 -16l37 3q16 -17 46 -20q8 -8 17 -44q14 -3 30 -48v-8l-13 -13h-51l-16 -13h-7l-17 17v18q0 6 24 17v12q-25 38 -47 45h-7l-16 -13h-20q-23 7 -23 33zM62 1222v51q0 10 9 22v25l-5 9v17l19 13h7 q22 -9 36 -30l7 -13l-7 -10v-33l7 -10v-30q-10 -22 -27 -34h-23zM92 1569v3q0 30 26 30l3 3h7l10 -7h243q6 0 23 -113q7 0 10 -33q27 -139 33 -146v-11l-3 -2v-3q6 0 23 -94l3 -29l8 -7v-13l-4 -4v-4q6 0 6 -22l7 -7v-20q23 0 23 -17q43 -57 83 -166q-29 -17 -29 -46l-4 -4 l7 -6v-3l-3 -4v-4q6 0 6 -13l17 -5v5l-7 11q7 0 7 16q15 13 30 13v3l-11 17l37 172l4 4v27l-11 27l4 13q-10 0 -10 37v115l6 8l-2 3v16l16 57q13 0 39 13h8l9 -7h86l24 14l-3 2v17q11 11 56 27l10 10q45 -10 63 -37l17 -23v-3q0 -7 -34 -17q-8 -13 -33 -13v-3l7 -10v-30 l-30 -60v-16q24 0 43 -34v-6l-6 -7q-25 33 -64 33v30l-3 33h-6v-6l3 -4v-4q-7 0 -7 -26l-6 -6v-13l23 -40q13 0 17 -47l33 -33v-7l-4 -3v-3l7 -7v-4q0 -21 -36 -126l6 -6q-15 -16 -33 -93l-3 -3l9 -4v-6h-6v-3h10q8 0 13 35q10 0 20 11l7 -7v37l-7 9v4l7 7h30q6 0 43 -67 l13 -13v-13l-7 -7l-19 36q-10 0 -27 17q0 -7 -27 -10l-3 -4v-3l10 -13v-19l-16 -21v-13q12 -21 33 -21q31 0 43 34v4l17 -4l5 8q25 -14 51 -47l-4 -4h-3l-10 7q-6 -20 -13 -20h-13l-13 20l13 15v8l-8 7q-9 0 -9 -24q-21 -11 -30 -39v-21q13 -33 30 -33h47q0 10 30 23l9 27v4 l-9 13v3l6 6h7q7 0 7 -13h16l4 -3l19 -30v-13q-10 0 -26 13q-33 0 -33 -26q-28 -7 -47 -27q-30 -5 -30 -13l86 -30l24 -13h3l10 6h13l7 -6l-13 -21l6 -5v-30q16 -34 40 -34l7 -10l-17 -17h-13q-5 0 -13 23q-14 0 -23 24h-17l-10 6h-10q-13 0 -30 -59h-7v-20l20 -14h7l-7 10 v10q7 16 23 23h11l22 -23v-10l-16 -19h10q26 15 40 36l23 3q15 -6 17 -13l-20 -13h-24q-14 -20 -19 -53q6 -1 36 -51v-5l-6 -8h-4q-7 0 -23 30l-14 10h-6q0 -13 -7 -13q-6 0 -6 13h-23q0 -19 -7 -19h-17v6q9 16 24 16v21l3 3l-10 33h-23q-11 0 -13 23h-25q-32 -21 -32 -49 l-7 -14v-3q15 -36 21 -36h32l14 -13q-18 -21 -41 -21h-5q-42 53 -57 53h-10l-4 -13l14 -27q23 -15 23 -34v-13h4l18 8q10 22 14 22h3q59 -13 114 -49q43 29 43 57l3 4h4l3 -4h3q0 -56 -47 -70q-13 -13 -13 -27l-3 -3h-3l-10 7h-7l-36 -57l-8 6v17l31 27v36q-11 0 -27 26 l-4 4h-46q-20 -22 -29 -46v-7q15 -14 15 -34q12 0 21 -19v-4l-7 -9l7 -10l-4 -4h-3q-19 43 -29 46l-17 7h-17l-10 -7l-13 14l7 7v13q-8 27 -33 27l-11 13v4l4 2v3l-27 8q-43 -35 -43 -60q12 -50 43 -50q20 0 20 -10q0 -6 -30 -17h-13q-7 0 -20 27q-16 18 -46 26 q-18 0 -41 -62v-14q26 -25 55 -33h1q25 12 47 47q61 -2 61 -17l-4 -4h-36q-13 -9 -24 -9l-3 3l-13 -54l13 -13v-9l-10 -11l-19 11h-21l-34 -24h-5l-4 3h-4q0 15 21 21l9 19v11q-6 21 -36 32l-17 20v-109h17v-7q0 -10 -17 -10v-27h23q27 -22 55 -22l5 -7q5 7 40 7l-3 9l17 27 l6 -6l-6 -11l6 -6q-13 -25 -30 -30l-13 -47l-17 -6l-5 6v13h5v7l-22 -20q-14 0 -17 47l-27 26h-17v-146q24 0 44 -30q0 -6 13 -6l4 -4v-7l-8 -9v-24q0 -6 17 -6q0 -12 -23 -40l3 -3v-36l-10 -38q-9 -5 -9 -20q-7 0 -11 -23h-3l3 -3v-17q0 -17 -82 -36l-50 -37h-50l-17 13 l-9 -6h-4l-21 14v13l4 3v3l-7 7v7q11 25 11 47l6 5v17l-6 9v38l26 13l30 43l-4 3v44l4 3v3q-46 0 -93 50l-3 4v3l-10 -7l-4 4v86l-9 -7h-14l-7 7v4l14 16v6l-21 27l4 4h33v93h-9q0 -15 -24 -24h-13l-7 7q17 5 37 36v11q-7 6 -7 22h-16l-37 30h-13l-37 -52q-21 0 -21 -11 q15 0 25 -14l-8 -5l-3 2l-30 15q-1 16 -16 26v6q0 7 66 37l10 10l3 -10h4v13q-25 66 -43 66h-24l-26 -16h-6l-8 7l30 30l-13 23l47 13q0 12 30 32l9 12h24l76 -30h14l29 26v6l-26 67h-3l-10 -7h-11l-9 10v14l3 3l-10 20v10l7 7l9 -7h31v16l-7 10v4l3 3v3l-6 7l6 60 q-6 0 -6 27l-30 -21q-47 15 -47 40l-3 16l-4 4h-39l-10 -6h-11q-17 12 -26 33q9 30 39 30l14 6l-23 34v13q8 19 26 27h17l10 39q-17 25 -23 64h-17q-18 4 -30 36v17l4 3v3h-17l-13 -10h-37q-5 0 -16 23v20q12 24 43 24q11 0 31 -31q13 0 13 -22h2l30 13l-10 33v50 q-22 21 -22 34l-17 -14h-4l-9 10v6l9 14v2q-37 39 -37 51l14 20v17l-20 -10l4 -17v-3l-11 -11h-10l-10 11v16q0 6 10 6v4l-29 47v26q9 23 36 23v7l-13 27v4l3 2v3q-6 0 -17 54q-16 32 -26 99l-10 4l-20 -4h-3l-17 17v14l33 26l-16 47q-20 0 -20 30zM98 1622v2l10 11h4l6 -7 l-13 -13zM115 1110v10l13 13h7l14 -13v-7l-14 -13h-10zM121 1412v7l7 7l7 -7v-7l-7 -7zM162 711v13q0 7 26 21l24 -14q0 21 9 23h23l16 -16v-4l-16 -16h-16l-16 3l-8 -7l4 -3v-6l-20 -14h-7zM191 286l10 6h3l8 -6v-7l-8 -6zM225 119v8h3v-8h-3zM225 389v7h3v-7h-3zM234 406 l25 26h9l9 -10v-3l-5 -10v-7q6 -18 18 -20q0 -19 17 -19q30 -6 30 -13v-4q-8 -17 -26 -17h-7l-10 9v21h-6v4l-3 -4h-4l-9 10l5 10q-37 15 -43 27zM242 97l9 -10h13l-5 14h-17v-4zM242 1624v11l9 10h13l13 -17q-5 0 -5 -10l-4 -3h-17zM277 249l44 -63v-3q22 0 30 29 q17 10 26 37v20q-8 23 -26 30h-27l-9 -7h-4l-9 7l-25 -40v-10zM302 17v10l5 6h11l33 -9v-7q-2 -10 -27 -10h-13zM302 462v3h5v-3h-5zM318 -20l3 3h16l7 -6l-10 -7h-6zM337 688l27 -17h4l-4 17l4 3l-14 27h-10v-17l-7 -10v-3zM354 452v10l7 7l16 -17l-9 -10h-4zM361 143 q26 -27 26 -33l17 4l3 -4v50l-13 -10h-17l-16 3v-10zM368 363v6l16 16l7 -6q-7 -14 -14 -16h-9zM368 628l32 -16q11 0 11 -10h10v10l-40 39h-7l-6 -20v-3zM381 199q14 0 26 -13v40q-12 -14 -26 -14v-13zM583 595l17 17v3h-7l-10 -16v-4zM600 675q19 -14 19 -34h4l7 17 q-13 20 -13 30l-17 -6v-7zM600 784q6 -17 23 -23l17 17v10h-4q0 -10 -6 -10h-13q-5 0 -11 14l4 16l-10 -11v-13zM613 808l23 -3v3l-9 10l-14 -4v-6zM619 691h31q10 3 16 23q-6 0 -6 20h-4l-20 -6q0 -10 -17 -27v-10zM666 186h4q0 20 23 40l13 23v17l-17 26h-13l-10 -10v-96z M683 -122l14 16h5l8 -7v-7l-21 -23l-6 10v11zM697 379q22 12 22 17v16h-6q-6 0 -16 -27v-6zM716 303l28 -13h18l24 13l-13 26v30l-24 23q-30 -11 -30 -16q11 0 21 -24v-13q-10 -23 -24 -23v-3zM727 482q15 0 22 -17v-19h4l50 46q0 -5 43 -13l3 -4h20v23q0 6 23 20l7 13v11 h-10q0 -11 -13 -16h-13l-8 5v4l31 38q0 10 -44 42q0 16 -29 16q-37 -38 -37 -58q8 -47 33 -47l4 -4h33l7 -7q-7 -9 -37 -20h-13q-24 7 -24 31q-9 0 -26 16h-8l-18 -57v-3zM770 618q16 12 26 33v7q-7 8 -7 24q-8 0 -13 -27h-3l3 -4v-10l-6 -10v-13zM783 30v7l6 6h3l14 -13v-6 l-6 -7h-4zM786 439q37 -7 37 -37h6q13 13 43 17l4 3v3l-13 27h-4l-4 -4h-2l-11 11h-39l-17 -11v-9zM800 714q9 0 9 -36q7 0 7 -13h3l7 17v2l-7 11v6l14 13h6l10 -6l23 26v27l-9 10l-10 -7h-4q-30 15 -30 24h-3l-7 -17v-7l14 -16l-23 -14v-20zM813 586v5l13 13h10l10 -9v-4 l-13 -13h-14zM816 0q26 13 26 40l37 36v17l-24 37v3l8 7q0 -7 36 -17h23l24 4l9 -13q-13 -11 -17 -43l-13 -12h-9l-10 8h-7q-12 -13 -30 -13q0 -19 -30 -47q-3 -20 -10 -20h-3l-10 10v3zM819 -23l7 6l3 -3v-3h-10zM833 668l3 -3h3l10 17h-13zM846 635l26 -10l37 23h3l26 -13 h4l17 16v7q-9 21 -23 30l-7 -6h-20q-6 0 -10 16l7 16l-4 4h-13q0 -13 -20 -13q0 -25 -23 -57v-13zM853 306l10 10v22h-4l-6 -13v-19zM855 203q15 13 24 13v-4l-16 -15zM929 531l30 -46v17q-10 30 -26 40h-4v-11zM942 569l39 -54h8q38 42 46 63v17q-13 26 -24 26l-9 7h-21 q-6 -7 -22 -7q0 -8 -17 -26v-26zM951 143l14 20h3l4 -3v-3q-7 0 -7 -17l-2 -4h-4zM959 223v13l6 7h7l13 -14v-3l-13 -14zM995 236v7h7l7 -7v-3l-7 -7zM995 509l11 -4v4l-8 6h-3v-6zM1075 385h7v4h-7v-4zM1085 226v10h6l7 -7l-3 -3h-10zM1118 671v17l7 7l3 -4v-20h-10z M1125 651l3 4h4v-10zM1155 312v8l6 5l7 -5l-10 -12zM1155 638l3 3h3l7 -6l-3 -4h-4zM1172 366l15 16h8v-16l-13 -14zM1178 615l4 3h9v-10h-6zM1191 539l4 3h4l5 -7l-3 -4h-2zM1199 385v4h5v-4h-5zM1212 448v7q35 -4 35 -16v-20l-5 -7q0 7 -21 10l-4 -3l-2 3v17l6 9h-9z M1221 574v4h8v-4h-8z" />
<glyph unicode="z" horiz-adv-x="1044" d="M-315 917v13q12 30 34 30h2q37 0 37 -37q0 -22 -34 -36h-3q-32 12 -36 30zM-202 1113v20l20 20h20l16 -17v-23l-16 -17h-24zM-76 295l7 7h10l23 -17v-13l-13 -13h-10q-10 0 -14 34zM-45 1172v11q9 24 30 33l1 3h12q21 -9 35 -30v-23q-6 -22 -30 -30h-18q-15 4 -30 36z M-15 923l5 7h8l5 -7l-5 -6h-8zM20 262v3h8v-3h-8zM50 53v6l14 16h13l10 -9v-13l-17 -17h-3zM54 505l6 7l10 -11l-3 -3h-7zM80 518v29l3 13l-3 15l10 10h4l9 -8h8q6 0 6 17q10 13 43 17l3 4h7l10 -8h3v4l-3 10l20 16v-3l-4 -10h4q21 -3 21 -9v-4q-11 -17 -28 -17l-10 11 q-6 -5 -9 -45l-27 -26v-13l23 -33h34l9 -10q0 -9 -33 -13l-4 -3h-6l-50 53l-17 6l-3 -3h-3l-3 3h-4zM90 87v18q3 12 23 17q13 0 27 -18v-15l-16 -16h-21zM90 385v13q0 7 40 10q0 18 40 43q56 -3 56 -16v-3l-5 -7h-15l-10 7h-9q-44 -14 -44 -44l-6 -13q10 -4 39 -47v-17 l-6 -5h-7q-6 0 -6 13h-4q0 -14 -13 -21h-23l-14 13v29l8 9v6q-17 0 -17 27zM97 -34l46 117l50 132v14q-17 0 -17 10v17l4 16h-10v4q17 13 17 35q17 13 60 74v13l-17 20v7l9 10l-3 10l3 36l-9 17v3l22 41v5l-5 21q-30 7 -30 13v4l5 5h8l22 -18h31l49 49q-8 3 -23 33 q-11 0 -23 24q-11 0 -17 22q-5 0 -13 -19q-26 -18 -26 -40h-13l-8 7q27 20 27 43l11 16v10l-4 23l9 7l12 -7h29q39 22 39 47h37l7 -6v-7q0 -7 -33 -10l-24 -24l4 -3v-6l-14 -27v-10q10 -15 10 -30l-3 -3l3 -4h34q20 0 49 90q9 0 21 53q5 3 19 43l3 4v4l-16 6l-14 -14h-6 l-7 8v19l7 7h17l6 20v3l-20 -13l-6 6q0 -23 -37 -36h-9q-34 14 -34 40q0 25 34 39h16q39 -16 39 -30h21l9 -6h8q22 10 22 30q8 0 8 -10h3q0 10 6 10h7q0 -26 -16 -26v-64l16 -16l17 33v96l-11 -6l-3 3v3l14 23v56q10 34 39 34q19 13 34 13v4h-60l-10 -7h-31l-9 11v224h-64 l-9 -5h-27l-10 5q0 -13 -7 -13h-26l-10 8h-57l-9 5h-64q0 -13 -6 -13h-3q-7 0 -7 13h-33l-7 8v72q10 14 10 47q-17 0 -30 30v17l27 30v14l-7 9v26l7 7h136q0 20 16 30h10l17 -13v-17l17 -7h132l8 -6v-90l5 -10v-20l-5 -9v-97h172q5 19 51 63h1q117 -56 180 -56l4 -3v-47 l-10 -34l-3 -3v-19l9 -37l4 -3v-21l-4 -2v-4q11 -12 17 -63l7 -20l2 -4v-6q0 -7 -13 -7l-5 -17v-22q9 0 9 19l13 11l8 -11v-6q-3 -27 -25 -27v-30l8 -10v-13q-12 -26 -24 -26v-7l24 -27l-27 -27q-16 8 -23 24l13 23l-30 7q-30 -39 -37 -63v-13q0 -6 37 -25l10 -9h7l10 7 l10 -14q0 -9 -44 -19v-4q0 -9 40 -9l51 -27h39l4 -4h3l10 10l9 -10q-16 0 -19 -33l-3 -3v-20l16 -34v-13h-3q-26 19 -26 37l2 3h-23q-36 -14 -36 -27q-7 0 -7 -20h-7l-3 4h-3q0 -7 -14 -7v-3l7 -10l-7 -6v-4l7 -9q-44 0 -70 -57h-3l3 -3v-14l-3 -3v-4l6 -6v-20h-3 q-8 0 -10 13h-16l-10 7h-3q-8 -7 -24 -7l-3 -13l10 -10v-23q0 -8 -38 -27l-1 -3h-14l-11 6l-9 -10h-4l4 17l-17 -7l7 -10v-10l-14 -13l3 -3v-4l-13 -23v-4l13 -26v-9l-3 -4v-4q40 -2 50 -13v-4l-6 -5h-28q-16 5 -16 18h-33q-10 0 -10 25h-3q0 -38 -10 -38l-13 -18 q14 -19 19 -51l27 -3q4 17 10 17h3l7 -7v-3q0 -10 -13 -10v-21l-7 -9v-4q13 0 13 -6v-4l-6 -6h-7q-7 0 -7 13l-22 -13q-7 0 -7 20l-4 -4h-4l4 -3v-13q-12 -32 -50 -43l-9 -21v-3q14 0 36 -19v-30q0 -8 -27 -21h-13q-23 12 -23 30h-3q-8 -30 -13 -30l-4 4v22l4 4v4l-4 4h-4 l-5 -8l-8 8q6 0 10 13h7v17l7 9h-7q-8 -9 -39 -13l-34 -100l-13 -20v-14h82l8 -6v-226h192q23 30 70 60h6q99 -60 133 -60q11 0 11 -6v-57l9 -9h13l60 13q0 6 50 19q0 8 26 17v4q-31 6 -69 72l-20 54v29q7 6 7 34q24 45 49 53h24q36 -17 60 -57l23 -30h39q72 -57 77 -83v-29 q-11 -24 -36 -43q-42 -21 -60 -21l70 -66l13 -37l-17 -36q-46 -46 -119 -93q0 -5 -41 -20q-64 -70 -175 -106h-57l-36 9l-4 4h-19q-10 0 -21 -40h-3l3 -3v-76q0 -29 10 -51h14l39 24h24v-11q-43 -9 -57 -23l4 -9h29l7 -8l-10 -5h-23l-10 5h-10q-17 -9 -17 -26h-3l3 -4v-5 l-3 -4v-4q11 -16 53 -33h24q0 18 26 37h23l14 -13l-4 -4v-3l-16 3h-20l-10 -9v-4l6 -13h17v3h-10v10h7l16 -17l-6 -16h-7l-34 9l-6 7h-30q-43 14 -57 40v16l21 44q-7 0 -17 47l-4 3v93q10 29 30 53h4q45 0 57 -9h69q43 14 80 39q13 0 60 40h-17l-10 -6h-7q-6 6 -30 6 q0 7 -17 7l-48 36q-17 0 -17 6l-90 4h-26l-11 7h-62l-11 6h-103l-33 -13h-56l-7 7v229h-376l-6 7v225zM111 242v7l13 20h6l10 -7h23v-3q0 -16 -16 -30h-23v3l3 10h-3l-11 -3zM127 691l6 7h7l13 -17l-3 -3h-10zM163 648l3 3h4v-10zM247 631q12 30 33 30q20 -7 23 -17v-26 q-9 -16 -30 -16q-14 3 -26 29zM303 555q6 0 6 -17h4l6 13v17h-3zM313 1196v10l6 6h7l13 -13l-16 -13zM326 804v22h4l9 -9v-4l-9 -9h-4zM373 810l13 28h7l6 -8v-4q-11 -22 -16 -22h-4zM379 747l10 10l7 -10l-10 -10zM423 26q0 24 22 49h13q8 0 12 -22l-4 -10l9 -20v-7l-35 20 zM483 778h3v26h-3v-26zM505 1358v4l14 13h3l13 -13v-4l-13 -13h-3zM505 1488v24l17 17h17l23 -17q19 0 30 -21v-17l-20 -19h-20q-37 18 -47 33zM642 1461v7l6 6h14l6 -6v-7l-6 -6h-14zM645 435q14 4 14 30l-8 7h-3l3 -4v-6l-6 -11v-16zM662 501l6 -6v-17h13l13 13v4 q0 6 -26 20zM664 282l4 3h7l31 -9v-4l-28 -7zM672 1551l3 4h3l7 -8l-4 -2h-3zM692 572h19l21 -17v5l-25 34h-9l-6 -17v-5zM702 605l4 -3h1l8 5q12 -9 30 -9q0 12 23 30h23l24 -21h6v30q-11 26 -33 41h-37q-22 -50 -44 -50l4 -4v-6zM719 412v3l5 7h8v-4l-10 -10zM724 1491v21 q9 16 24 22h27q19 -14 26 -30v-5q-10 -23 -26 -34h-30q-7 0 -21 26zM735 684h3l13 27l-3 3h-3zM751 392l17 13h7q6 0 20 -23l-27 -16h-6q-8 0 -11 26zM758 740h23l10 11v3h-16l-10 7l-7 -14v-7zM788 355v7h7v-7h-7zM788 817h10l-10 9v-9zM795 415v7h3v-7h-3zM798 711 q25 -42 53 -74h7q5 0 20 44q12 0 26 36v4q-15 33 -40 33q-16 0 -23 7h-3q-24 -9 -40 -47v-3zM815 478v3l6 7h7l6 -7l-17 -6zM848 475v3l10 10l6 -10l-3 -3h-13zM874 589l4 1h9l8 -5v-4l-8 -6zM881 826q20 15 30 38v29l6 7h30l21 17h5v-13l-13 -20q8 0 11 -27l10 -10v-7 l-8 -6h-2l-28 17q0 -8 -18 -8l-25 -22h-13zM908 -350l22 -30v-13l-17 -30l12 -19l-8 -7l4 -3v-26l-4 -4v-4l8 -5v-11l-4 -17q19 -16 56 -23l4 -3h23q6 7 33 7q23 0 60 79v7q-7 7 -7 29q-12 11 -26 43q-33 27 -87 47h-35q-33 -9 -34 -17zM917 564l4 4h4l5 -8l-3 -1h-2z M977 -146v-3l17 -41q20 -45 66 -76h7l30 30q-23 21 -23 59q0 47 26 47l7 11q-15 43 -56 69l-4 3h-30q-36 -16 -36 -93v-4zM981 826l3 4h3l10 -20l-7 -6h-6zM984 -323v-2q43 0 90 -51q20 -18 26 -33v-3l-3 -3v-4q7 0 10 -33l3 -4q-6 0 -6 -26l-17 -26v-7q79 56 105 83l25 34 v5q-17 41 -60 70q-7 0 -27 30h-33l-10 7h-27q-61 -37 -76 -37zM1001 927v3l6 10q27 -4 27 -10l-30 -7zM1044 834l3 4h4l6 -8v-13h-10zM1060 851l10 6h4v-6l-7 -8zM1080 -266v-6l17 -4h17v6q-10 12 -10 20h-7q0 -16 -17 -16zM1083 877v3l4 4h3l4 -4v-3l-4 -4h-3zM1087 -162 v-28l13 -33h4q10 0 19 49l4 4v8q-11 26 -17 26h-3q-7 0 -20 -26zM1110 -242l26 -34h25q6 7 35 10q0 7 27 24l3 39q-18 49 -69 73h-23l-7 -6l7 -8v-52l-7 -7l3 -3v-7z" />
<glyph unicode="{" horiz-adv-x="684" />
<glyph unicode="|" horiz-adv-x="532" />
<glyph unicode="}" horiz-adv-x="684" />
<glyph unicode="~" horiz-adv-x="1196" />
<glyph unicode="&#xa1;" horiz-adv-x="682" />
<glyph unicode="&#xa2;" />
<glyph unicode="&#xa3;" />
<glyph unicode="&#xa4;" />
<glyph unicode="&#xa5;" />
<glyph unicode="&#xa6;" horiz-adv-x="532" />
<glyph unicode="&#xa7;" />
<glyph unicode="&#xa8;" horiz-adv-x="682" />
<glyph unicode="&#xa9;" horiz-adv-x="1509" />
<glyph unicode="&#xaa;" horiz-adv-x="758" />
<glyph unicode="&#xab;" />
<glyph unicode="&#xac;" horiz-adv-x="1196" />
<glyph unicode="&#xad;" horiz-adv-x="682" />
<glyph unicode="&#xae;" horiz-adv-x="1509" />
<glyph unicode="&#xaf;" horiz-adv-x="1131" />
<glyph unicode="&#xb0;" horiz-adv-x="819" />
<glyph unicode="&#xb1;" horiz-adv-x="1124" />
<glyph unicode="&#xb2;" horiz-adv-x="682" />
<glyph unicode="&#xb3;" horiz-adv-x="682" />
<glyph unicode="&#xb4;" horiz-adv-x="682" />
<glyph unicode="&#xb5;" horiz-adv-x="1180" />
<glyph unicode="&#xb6;" horiz-adv-x="1100" />
<glyph unicode="&#xb7;" horiz-adv-x="569" />
<glyph unicode="&#x2219;" horiz-adv-x="569" />
<glyph unicode="&#xb8;" horiz-adv-x="682" />
<glyph unicode="&#xb9;" horiz-adv-x="682" />
<glyph unicode="&#xba;" horiz-adv-x="748" />
<glyph unicode="&#xbb;" />
<glyph unicode="&#xbc;" horiz-adv-x="1708" />
<glyph unicode="&#xbd;" horiz-adv-x="1708" />
<glyph unicode="&#xbe;" horiz-adv-x="1708" />
<glyph unicode="&#xbf;" horiz-adv-x="1251" />
<glyph unicode="&#xc0;" horiz-adv-x="1366" />
<glyph unicode="&#xc1;" horiz-adv-x="1366" />
<glyph unicode="&#xc2;" horiz-adv-x="1366" />
<glyph unicode="&#xc3;" horiz-adv-x="1366" />
<glyph unicode="&#xc4;" horiz-adv-x="1366" />
<glyph unicode="&#xc5;" horiz-adv-x="1366" />
<glyph unicode="&#xc6;" horiz-adv-x="2048" />
<glyph unicode="&#xc7;" horiz-adv-x="1479" />
<glyph unicode="&#xc8;" horiz-adv-x="1366" />
<glyph unicode="&#xc9;" horiz-adv-x="1366" />
<glyph unicode="&#xca;" horiz-adv-x="1366" />
<glyph unicode="&#xcb;" horiz-adv-x="1366" />
<glyph unicode="&#xcc;" horiz-adv-x="569" />
<glyph unicode="&#xcd;" horiz-adv-x="569" />
<glyph unicode="&#xce;" horiz-adv-x="569" />
<glyph unicode="&#xcf;" horiz-adv-x="569" />
<glyph unicode="&#xd0;" horiz-adv-x="1479" />
<glyph unicode="&#xd1;" horiz-adv-x="1479" />
<glyph unicode="&#xd2;" horiz-adv-x="1593" />
<glyph unicode="&#xd3;" horiz-adv-x="1593" />
<glyph unicode="&#xd4;" horiz-adv-x="1593" />
<glyph unicode="&#xd5;" horiz-adv-x="1593" />
<glyph unicode="&#xd6;" horiz-adv-x="1593" />
<glyph unicode="&#xd7;" horiz-adv-x="1196" />
<glyph unicode="&#xd8;" horiz-adv-x="1593" />
<glyph unicode="&#xd9;" horiz-adv-x="1479" />
<glyph unicode="&#xda;" horiz-adv-x="1479" />
<glyph unicode="&#xdb;" horiz-adv-x="1479" />
<glyph unicode="&#xdc;" horiz-adv-x="1479" />
<glyph unicode="&#xdd;" horiz-adv-x="1366" />
<glyph unicode="&#xde;" horiz-adv-x="1366" />
<glyph unicode="&#xdf;" horiz-adv-x="1251" />
<glyph unicode="&#xe0;" />
<glyph unicode="&#xe1;" />
<glyph unicode="&#xe2;" />
<glyph unicode="&#xe3;" />
<glyph unicode="&#xe4;" />
<glyph unicode="&#xe5;" />
<glyph unicode="&#xe6;" horiz-adv-x="1821" />
<glyph unicode="&#xe7;" horiz-adv-x="1024" />
<glyph unicode="&#xe8;" />
<glyph unicode="&#xe9;" />
<glyph unicode="&#xea;" />
<glyph unicode="&#xeb;" />
<glyph unicode="&#xec;" horiz-adv-x="569" />
<glyph unicode="&#xed;" horiz-adv-x="569" />
<glyph unicode="&#xee;" horiz-adv-x="569" />
<glyph unicode="&#xef;" horiz-adv-x="569" />
<glyph unicode="&#xf0;" />
<glyph unicode="&#xf1;" />
<glyph unicode="&#xf2;" />
<glyph unicode="&#xf3;" />
<glyph unicode="&#xf4;" />
<glyph unicode="&#xf5;" />
<glyph unicode="&#xf6;" />
<glyph unicode="&#xf7;" horiz-adv-x="1124" />
<glyph unicode="&#xf8;" horiz-adv-x="1251" />
<glyph unicode="&#xf9;" />
<glyph unicode="&#xfa;" />
<glyph unicode="&#xfb;" />
<glyph unicode="&#xfc;" />
<glyph unicode="&#xfd;" horiz-adv-x="1024" />
<glyph unicode="&#xfe;" />
<glyph unicode="&#xff;" horiz-adv-x="1024" />
<glyph unicode="&#x152;" horiz-adv-x="2048" />
<glyph unicode="&#x153;" horiz-adv-x="1933" />
<glyph unicode="&#x178;" horiz-adv-x="1366" />
<glyph unicode="&#x2c6;" horiz-adv-x="682" />
<glyph unicode="&#x2dc;" horiz-adv-x="682" />
<glyph unicode="&#x2000;" horiz-adv-x="1847" />
<glyph unicode="&#x2001;" horiz-adv-x="3695" />
<glyph unicode="&#x2002;" horiz-adv-x="1847" />
<glyph unicode="&#x2003;" horiz-adv-x="3695" />
<glyph unicode="&#x2004;" horiz-adv-x="1231" />
<glyph unicode="&#x2005;" horiz-adv-x="923" />
<glyph unicode="&#x2006;" horiz-adv-x="615" />
<glyph unicode="&#x2007;" horiz-adv-x="615" />
<glyph unicode="&#x2008;" horiz-adv-x="461" />
<glyph unicode="&#x2009;" horiz-adv-x="739" />
<glyph unicode="&#x200a;" horiz-adv-x="205" />
<glyph unicode="&#x2010;" horiz-adv-x="682" />
<glyph unicode="&#x2011;" horiz-adv-x="682" />
<glyph unicode="&#x2013;" />
<glyph unicode="&#x2014;" horiz-adv-x="2048" />
<glyph unicode="&#x2018;" horiz-adv-x="455" />
<glyph unicode="&#x2019;" horiz-adv-x="455" />
<glyph unicode="&#x201a;" horiz-adv-x="455" />
<glyph unicode="&#x201c;" horiz-adv-x="682" />
<glyph unicode="&#x201d;" horiz-adv-x="682" />
<glyph unicode="&#x201e;" horiz-adv-x="682" />
<glyph unicode="&#x2022;" horiz-adv-x="717" />
<glyph unicode="&#x2026;" horiz-adv-x="2048" />
<glyph unicode="&#x202f;" horiz-adv-x="739" />
<glyph unicode="&#x2039;" horiz-adv-x="682" />
<glyph unicode="&#x203a;" horiz-adv-x="682" />
<glyph unicode="&#x205f;" horiz-adv-x="923" />
<glyph unicode="&#x20ac;" />
<glyph unicode="&#x2122;" horiz-adv-x="2048" />
<glyph unicode="&#xf001;" horiz-adv-x="1024" />
<glyph unicode="&#xfb01;" horiz-adv-x="1024" />
<glyph unicode="&#xf002;" horiz-adv-x="1024" />
<glyph unicode="&#xfb02;" horiz-adv-x="1024" />
<glyph unicode="&#xfb03;" horiz-adv-x="2911" d="M1541 1508v26q8 20 32 30h3q34 -10 41 -30l3 -4v-9q-16 -33 -30 -37h-27zM1663 458v5l13 14h4l13 -14v-1l-9 -12h-14zM1823 1285l10 9h6l7 -6v-3l-10 -10h-3zM1869 1075v30l23 23h20l24 -23v-30q-10 -14 -31 -23h-6q-21 9 -30 23zM1876 1478v2l6 7l8 -7v-2l-8 -7z M1922 843v16q0 9 14 10q20 -3 20 -10v-13l-14 -13h-9zM1936 1681v9l6 -6l-3 -3h-3zM2035 580v21l13 13h21l13 -20q-8 -23 -30 -23q-17 3 -17 9zM2132 324v28q8 20 23 29h27l23 -23v-30q-14 -27 -20 -27h-30zM2148 660l20 21h7l13 -14v-14l-13 -13h-13zM2155 -27l13 13l7 -8 v-5l-7 -8h-6zM2198 905v4q97 21 116 30q57 23 57 70l6 17v501l7 7h259l7 -7v-388l-3 -17q15 0 26 -20v-16l-7 -11v-3q26 -27 56 -27v7q-11 0 -22 27v13q8 27 34 27l2 3q25 -10 33 -30l4 -3v-7l-7 -7l3 -17l-3 -2v-4q17 -11 27 -33q-7 -8 -7 -24l-22 -13h-17q-25 8 -25 27v3 q-59 -49 -59 -86l-10 -10q0 -14 13 -33v-4q-8 -13 -46 -26l-3 -10l3 -10l-10 -26l10 -27v-143l-7 -23q8 0 13 -70q-9 -17 -9 -34v-3l3 -53l-3 -4v-3l3 -13v-6q0 -11 -10 -24l14 -56q36 -3 36 -27l3 -3l-3 -3l-20 6h-3l-4 -16q14 -7 14 -20l16 3l7 -27v-56q0 -56 -13 -56 l-7 19v30l-7 7h-3q-5 0 -20 -30l10 -23l-6 -30v-6q19 -14 19 -24l-19 -13v-101l2 -16l24 3h10l6 -5v-21l-6 -7l-23 14q-11 -13 -11 -23v-4q11 0 11 -6l-17 -14l4 -32v-21l9 -10l7 7v16h7v-66l-17 4h-4v-4l4 -23l-6 -50l2 -13l-2 -4h-57l-13 -3l-23 3h-147l-7 7v298 q0 7 -29 17l-7 10v17q13 20 34 20l2 3v130q-6 7 -6 22l-10 -5h-27q-38 32 -39 52l-16 -3l-4 3v4q0 7 13 7q0 23 30 36h6l10 -6h37v16l-7 10v20l13 30v93l7 7l-3 2v12l7 9v43q0 23 -27 37l-10 13v10l20 23v7q-14 0 -20 13v7q6 14 20 14v9q-10 29 -20 34h-3v-4l3 -9 q-10 -21 -33 -21h-17q-6 1 -20 30v7l24 23h19l24 -4v17l-27 40v13l3 4v2q-17 21 -74 41q0 16 -5 16q-12 12 -47 26zM2198 1082v4l13 13h8l5 -7v-6l-13 -14h-3zM2215 1228v30q8 17 35 27q24 -10 42 -33v-17q-18 -23 -42 -34h-5q-16 9 -30 27zM2232 315v3l13 13h17l9 -10v-10 l-17 -16h-4zM2321 428l7 6h10l6 -6v-7l-6 -6h-4zM2334 348l4 4h3v-11zM2424 -343q7 6 7 33l10 6h6l10 -9v-7l-6 -10v-4l6 -9v-4l-10 -9h-13l-10 9v4zM2503 -353l12 10h1l15 -13l-15 -13zM2550 -177v-7l7 -6l6 10v13l-6 7h-3zM2550 -216v-25l4 -39h3q0 20 13 50q-2 9 -16 16z M2563 905q14 -29 27 -42q15 0 53 50l-3 3l-10 3v3l-23 -3h-30zM2597 889v7h10v-4l-7 -6zM2620 282l4 -24q6 0 6 16h3l-9 14l-4 -3v-3zM2624 -187l2 -3h4l7 10h-7zM2624 226l2 -12h7l7 8l-10 9zM2630 550v17l7 6l6 -6v-17h7l3 17v27h7l6 -7v-33l-3 -4l3 -3v-13l-9 -10l-14 23 l-3 -3h-3zM2637 52v3l6 7l4 -3v-7h-10zM2666 -373q12 30 17 30h7q23 -11 23 -17v-30l-17 -17h-16q-7 0 -7 24l-7 6v4zM2677 42v23h3q7 -1 13 -16l-3 -16h-3zM2677 145v30h6q0 -16 7 -23l-3 -3h-4l4 -4v-7h-4zM2677 192v66l6 7l10 -43q14 -2 14 -11v-2h-7l-4 2h-3 q0 -10 -10 -10v-9h-6zM2677 278l10 7l3 -3v-4l-7 -7zM2680 -38l3 3h47q18 0 30 -9l9 6l11 -6l6 6h10l7 -6l16 4l7 -8l-3 -3v-3l-57 6l-16 -6l-3 14h-17l4 -4v-7l-12 -3l-15 3l-24 -3l-3 3v3l3 4v4zM2680 -118l7 7l3 -3v-4l-7 -6l-3 4v2zM2687 22v3h9l-6 -5zM2687 338v6h6v-6 h-6zM2687 371v13h6v-19zM2687 627v282h3q60 -20 60 -26v-63l-14 -27l3 -3v-10q-5 -8 -19 -83q-7 0 -7 -14l-4 -2h-2l2 -4v-10q-5 -7 -5 -30q-8 0 -8 -10l-3 -3h-3zM2690 467v4l6 6h11l6 -6l-4 -4v-4l-2 4h-3l-11 -4zM2690 491v2l6 8h4l4 -4l3 4h10l3 -4h2l4 4q7 -24 13 -24 h4l9 7l4 -4v-18h-4l-9 1l-4 -1l-5 5l-4 -4h-4l-4 4l4 4v13l-9 4l-21 -4zM2693 -40v-4h11v4h-11zM2713 916v10l7 -7l-3 -3h-4zM2736 -137l30 56h27l10 -10v-46l7 -10v-7q-10 -20 -24 -30h-26q-16 8 -24 24v23zM2747 -214l19 20l14 -13v-7l-14 -13h-6zM2764 477v7h2v-7h-2z M2783 1089q6 0 10 23l13 10h26q20 -8 28 -27v-16q-8 -20 -28 -27h-22q-17 9 -27 37zM2970 1813l2 4h3v-11zM1042 2242q0 21 27 39h13q30 0 40 -30v-19l-36 -30h-8q-36 17 -36 40zM1105 2417v7q8 19 27 27h13l23 -23v-11q-12 -23 -16 -23h-27q-6 0 -20 23zM1125 -97l7 9 l-3 10q37 69 80 116h-8q71 -345 84 -345l6 10v249l-13 53v63l3 17h-7q0 -10 -19 -17q-90 -92 -107 -142l-6 -20l-4 -3v-50l-6 -6l-7 6v50zM1148 510q14 7 14 21h90l9 6h20q0 10 10 10v947l7 6h23l99 4l8 6h39l10 -6q4 6 40 6q0 6 23 11l10 13l-6 9v12q0 8 16 9v20l7 6h36 q11 0 24 10h16l13 -10h21l9 10l-13 24q8 7 8 23l22 13h24q26 -9 26 -33l3 -3l-10 -13l4 -4h3q11 11 60 20l30 16h13l17 -13q14 12 75 23v7l-9 27q0 22 26 40h34q23 -15 37 -40v-10l-8 -11v-6l8 -7l9 7q0 -7 20 -13q0 -25 30 -36v-21h24l6 -6v-24l24 4h3q14 -8 14 -17 l-34 -60l13 -13v-13l-4 -3v-4l8 -7v-23l-30 -40v-13l13 -17v-13l-7 -9q25 -12 33 -30l4 -4v-9q-9 -22 -24 -31h-27q-26 16 -26 36q-29 0 -43 10h-36l-11 7h-16l-19 -20l22 -19v-14l-13 -13h-7q-6 0 -19 27l5 9h-16l-10 -9l13 -17v-13l-19 -20h-13q-9 2 -37 43v29 q-83 24 -83 38q0 24 -17 32h-10l-13 -13v-2l7 -12v-3l-10 -10h-16l-8 8v22h-30l-17 -13h-5l-24 13h-67l-9 -9v-56l-7 -11v-13l7 -10v-219l7 -11v-52l-7 -11v-119h345l7 -8v-249l-7 -5h-345v-87q16 -40 53 -89l-14 -11l4 -2v-8l-7 -9v-4l7 -9v-14l-4 -3v-4l10 -7h4l47 17 q13 17 112 43q0 11 53 11h7l10 6h16l41 -14l2 -3v-14q-17 -28 -83 -59l-153 -66l-22 -7l17 -20l-8 -6h-16v-17q8 -20 29 -44v-3l-16 -16l7 -7q-7 -5 -7 -39q-9 -4 -16 -37h-3l3 -4v-9q-14 -26 -17 -57l-3 -3v-57q0 -5 -37 -23l-16 -43v-37h13q5 6 76 21l3 2h87 q59 -21 79 -52q15 -21 24 -51v-13l-3 -4v-2l6 -7v-14l-6 -6l3 -3v-17q-34 -98 -122 -149q-74 -54 -249 -104q-36 -9 -84 -9l-23 22v11q0 31 56 53h13q34 -16 34 -33l-34 16h-20q-21 -9 -33 -26v-13l10 -17h37l79 20q37 16 50 16q0 5 47 17l70 34q64 30 136 115l23 70v20 q-7 7 -16 57q-34 52 -96 52h-27q-71 0 -133 -22v-137l-7 -6h-259q-7 0 -7 17q-148 336 -26 408l9 13v13l-6 11v49l-13 23v7l6 10v26l-17 27v11l8 9v24l-21 30l13 22v8q-6 26 -30 43v3l12 6q0 19 -78 83zM1211 38h3v8h-3v-8zM1244 1873v3l14 13h7l6 -6v-14l-6 -6h-10z M1252 1972v4q0 20 29 33h7q20 -10 30 -24v-29q-10 -14 -30 -24h-7q-29 11 -29 40zM1401 1876v10l6 7h13l11 -10v-4l-14 -13h-6zM1613 1843v13q14 19 30 27h4q22 -12 22 -17v-23q-11 -21 -35 -21zM1623 315l14 -13v-31l-3 -2v-4l3 -4h16q28 19 59 27q46 23 91 36q0 9 46 24 l40 36v4l-10 9h-50q-8 -5 -79 -22q-120 -44 -127 -60zM1650 1713v20q7 22 31 30h13q25 -20 33 -36v-7q-10 -24 -28 -30l-2 -3h-20zM1656 2584v23q9 15 25 23h9q21 -10 30 -29v-11l-26 -23h-21zM1669 1660v6l8 -6h-8zM1681 1909v14q8 20 22 29h37l36 -16l10 -13v-14 q0 -9 -40 -20l-9 -10h-34q-14 9 -22 30zM1711 2019v21l9 9h23q5 0 16 -23v-3l-22 -25h-4q-22 14 -22 21zM1740 2088v14q0 6 23 20h3l20 -17h4q0 15 16 24h14l13 -14v-13l-13 -14h-14l-16 14q0 -10 -7 -10l3 -4v-3q-5 -13 -23 -13h-7zM1776 1713v7l20 20h7l13 -13v-14 l-13 -13h-13zM1783 1979v6l10 11h10q6 0 10 -20l-13 -10h-4zM1813 2245v10l9 9h4l13 -13v-13l-6 -6h-7zM1822 1749v25l27 26h24q0 13 6 13l-3 4v9l27 27h27q14 -9 22 -31v-13q-14 -35 -52 -35v-25l9 8h13l13 -14l-13 -13h-13q-13 6 -13 16h-4q0 -11 -26 -23h-17zM1822 2023 v3q10 20 24 30h16q24 -13 24 -16v-28q0 -5 -24 -19h-13q-19 14 -27 30zM1876 2132v13l13 14h7l13 -14v-10l-9 -10h-17zM1903 1909v17l10 13v43q9 30 39 30h4q17 0 33 -23v-30l-27 -46l3 -4v-20q0 -17 -13 -23h-20q-14 0 -14 30zM1962 1766v10q0 6 24 20q1 13 9 13h37 q14 -8 24 -30v-5q-15 -34 -41 -34l-3 -4l-26 13q0 6 -24 17zM1992 1228v10l17 17h3l16 -17v-10l-13 -13h-9zM2022 1289l10 5l4 -3v-2l-8 -8zM2045 1962v20l17 14l23 -20l-13 -20h-20zM2082 1830v17q6 15 33 29q26 -9 34 -23v-27q-11 -22 -34 -22q-27 8 -33 26zM2098 2072v7 l7 6h4l10 -10v-6l-10 -11zM2128 2753v4l10 9h14l10 -9v-4l-13 -13h-8zM2149 2135l9 10h4l6 -7l-14 -13zM2158 1378v26q13 24 37 24v19q0 5 23 17q0 -6 13 -6l7 -17q-10 -14 -10 -27l7 -20v-16l-23 -24h-30zM2158 1454v13l8 7h9l9 -10v-3l-13 -14h-5zM2171 1889v24 q4 10 21 10h3l36 -34v-10q-2 -16 -9 -16h-24l-14 16q-13 0 -13 10zM2171 2457v7q11 23 17 23h21l19 -19v-7q-14 -27 -19 -27h-14q-16 7 -24 23zM2175 1517l13 13h7l14 -13v-3l-11 -10h-10zM2212 1624v13q14 21 36 29h3q8 -6 24 -6l13 -23v-20q-6 -23 -33 -23h-20 q-14 8 -23 30zM2231 1467v4l11 10h3l13 -14q0 -9 -13 -9q-14 4 -14 9zM2261 1508v22l16 17h28q19 -13 19 -33v-4l-26 -26h-13q-17 7 -24 24zM2261 1707v16l10 10h10l17 -16v-10l-13 -13h-10zM2285 1664v9l7 7h23l13 -16l-10 -11h-24zM2285 2298v9q11 24 16 24h20l20 -20v-20 q0 -4 -23 -15h-10q-16 6 -23 22zM2355 2371v7l13 13h9l11 -10v-13l-11 -10h-9zM-26 2242q0 21 27 39h13q30 0 40 -30v-19l-36 -30h-8q-36 17 -36 40zM37 2417v7q8 19 27 27h13l23 -23v-11q-12 -23 -16 -23h-27q-6 0 -20 23zM57 -97l7 9l-3 10q37 69 80 116h-8 q71 -345 84 -345l6 10v249l-13 53v63l3 17h-7q0 -10 -19 -17q-90 -92 -107 -142l-6 -20l-4 -3v-50l-6 -6l-7 6v50zM80 510q14 7 14 21h90l9 6h20q0 10 10 10v947l7 6h23l99 4l8 6h39l10 -6q4 6 40 6q0 6 23 11l10 13l-6 9v12q0 8 16 9v20l7 6h36q11 0 24 10h16l13 -10h21 l9 10l-13 24q8 7 8 23l22 13h24q26 -9 26 -33l3 -3l-10 -13l4 -4h3q11 11 60 20l30 16h13l17 -13q14 12 75 23v7l-9 27q0 22 26 40h34q23 -15 37 -40v-10l-8 -11v-6l8 -7l9 7q0 -7 20 -13q0 -25 30 -36v-21h24l6 -6v-24l24 4h3q14 -8 14 -17l-34 -60l13 -13v-13l-4 -3v-4 l8 -7v-23l-30 -40v-13l13 -17v-13l-7 -9q25 -12 33 -30l4 -4v-9q-9 -22 -24 -31h-27q-26 16 -26 36q-29 0 -43 10h-36l-11 7h-16l-19 -20l22 -19v-14l-13 -13h-7q-6 0 -19 27l5 9h-16l-10 -9l13 -17v-13l-19 -20h-13q-9 2 -37 43v29q-83 24 -83 38q0 24 -17 32h-10l-13 -13 v-2l7 -12v-3l-10 -10h-16l-8 8v22h-30l-17 -13h-5l-24 13h-67l-9 -9v-56l-7 -11v-13l7 -10v-219l7 -11v-52l-7 -11v-119h345l7 -8v-249l-7 -5h-345v-87q16 -40 53 -89l-14 -11l4 -2v-8l-7 -9v-4l7 -9v-14l-4 -3v-4l10 -7h4l47 17q13 17 112 43q0 11 53 11h7l10 6h16l41 -14 l2 -3v-14q-17 -28 -83 -59l-153 -66l-22 -7l17 -20l-8 -6h-16v-17q8 -20 29 -44v-3l-16 -16l7 -7q-7 -5 -7 -39q-9 -4 -16 -37h-3l3 -4v-9q-14 -26 -17 -57l-3 -3v-57q0 -5 -37 -23l-16 -43v-37h13q5 6 76 21l3 2h87q59 -21 79 -52q15 -21 24 -51v-13l-3 -4v-2l6 -7v-14 l-6 -6l3 -3v-17q-34 -98 -122 -149q-74 -54 -249 -104q-36 -9 -84 -9l-23 22v11q0 31 56 53h13q34 -16 34 -33l-34 16h-20q-21 -9 -33 -26v-13l10 -17h37l79 20q37 16 50 16q0 5 47 17l70 34q64 30 136 115l23 70v20q-7 7 -16 57q-34 52 -96 52h-27q-71 0 -133 -22v-137 l-7 -6h-259q-7 0 -7 17q-148 336 -26 408l9 13v13l-6 11v49l-13 23v7l6 10v26l-17 27v11l8 9v24l-21 30l13 22v8q-6 26 -30 43v3l12 6q0 19 -78 83zM143 38h3v8h-3v-8zM176 1873v3l14 13h7l6 -6v-14l-6 -6h-10zM184 1972v4q0 20 29 33h7q20 -10 30 -24v-29q-10 -14 -30 -24 h-7q-29 11 -29 40zM333 1876v10l6 7h13l11 -10v-4l-14 -13h-6zM545 1843v13q14 19 30 27h4q22 -12 22 -17v-23q-11 -21 -35 -21zM555 315l14 -13v-31l-3 -2v-4l3 -4h16q28 19 59 27q46 23 91 36q0 9 46 24l40 36v4l-10 9h-50q-8 -5 -79 -22q-120 -44 -127 -60zM582 1713v20 q7 22 31 30h13q25 -20 33 -36v-7q-10 -24 -28 -30l-2 -3h-20zM588 2584v23q9 15 25 23h9q21 -10 30 -29v-11l-26 -23h-21zM601 1660v6l8 -6h-8zM613 1909v14q8 20 22 29h37l36 -16l10 -13v-14q0 -9 -40 -20l-9 -10h-34q-14 9 -22 30zM643 2019v21l9 9h23q5 0 16 -23v-3 l-22 -25h-4q-22 14 -22 21zM672 2088v14q0 6 23 20h3l20 -17h4q0 15 16 24h14l13 -14v-13l-13 -14h-14l-16 14q0 -10 -7 -10l3 -4v-3q-5 -13 -23 -13h-7zM708 1713v7l20 20h7l13 -13v-14l-13 -13h-13zM715 1979v6l10 11h10q6 0 10 -20l-13 -10h-4zM745 2245v10l9 9h4l13 -13 v-13l-6 -6h-7zM754 1749v25l27 26h24q0 13 6 13l-3 4v9l27 27h27q14 -9 22 -31v-13q-14 -35 -52 -35v-25l9 8h13l13 -14l-13 -13h-13q-13 6 -13 16h-4q0 -11 -26 -23h-17zM754 2023v3q10 20 24 30h16q24 -13 24 -16v-28q0 -5 -24 -19h-13q-19 14 -27 30zM808 2132v13l13 14 h7l13 -14v-10l-9 -10h-17zM835 1909v17l10 13v43q9 30 39 30h4q17 0 33 -23v-30l-27 -46l3 -4v-20q0 -17 -13 -23h-20q-14 0 -14 30zM894 1766v10q0 6 24 20q1 13 9 13h37q14 -8 24 -30v-5q-15 -34 -41 -34l-3 -4l-26 13q0 6 -24 17zM924 1228v10l17 17h3l16 -17v-10 l-13 -13h-9zM954 1289l10 5l4 -3v-2l-8 -8zM977 1962v20l17 14l23 -20l-13 -20h-20zM1014 1830v17q6 15 33 29q26 -9 34 -23v-27q-11 -22 -34 -22q-27 8 -33 26zM1030 2072v7l7 6h4l10 -10v-6l-10 -11zM1060 2753v4l10 9h14l10 -9v-4l-13 -13h-8zM1081 2135l9 10h4l6 -7 l-14 -13zM1090 1378v26q13 24 37 24v19q0 5 23 17q0 -6 13 -6l7 -17q-10 -14 -10 -27l7 -20v-16l-23 -24h-30zM1090 1454v13l8 7h9l9 -10v-3l-13 -14h-5zM1103 1889v24q4 10 21 10h3l36 -34v-10q-2 -16 -9 -16h-24l-14 16q-13 0 -13 10zM1103 2457v7q11 23 17 23h21l19 -19 v-7q-14 -27 -19 -27h-14q-16 7 -24 23zM1107 1517l13 13h7l14 -13v-3l-11 -10h-10zM1144 1624v13q14 21 36 29h3q8 -6 24 -6l13 -23v-20q-6 -23 -33 -23h-20q-14 8 -23 30zM1163 1467v4l11 10h3l13 -14q0 -9 -13 -9q-14 4 -14 9zM1193 1508v22l16 17h28q19 -13 19 -33v-4 l-26 -26h-13q-17 7 -24 24zM1193 1707v16l10 10h10l17 -16v-10l-13 -13h-10zM1217 1664v9l7 7h23l13 -16l-10 -11h-24zM1217 2298v9q11 24 16 24h20l20 -20v-20q0 -4 -23 -15h-10q-16 6 -23 22zM1287 2371v7l13 13h9l11 -10v-13l-11 -10h-9z" />
<glyph unicode="&#xfb04;" horiz-adv-x="3078" d="M1847 692v4l6 6h7l7 -6v-8l-7 -6h-3zM1917 875l6 6h4l6 -6l-6 -7h-4zM2043 623l4 2h3v-10zM2050 559v3h6v-3h-6zM2050 728v23l16 17h21l19 -19v-17l-19 -20h-21zM2119 994l20 20l20 -14v-6l-20 -20zM2139 482v24q8 16 24 23h19q24 -15 24 -33q-9 -21 -24 -30h-26z M2185 838v20q25 17 25 63l17 13h13q17 0 26 -16v-24q0 -10 -10 -22v-4l16 -17l-13 -9l3 -4v-7l-22 -23h-25q-20 8 -30 30zM2210 466v13l18 20h21q13 0 13 -39l-20 -11h-14zM2212 738q0 34 28 34q5 7 52 23q45 35 57 73v814l6 7h91l5 -7v-119h107l7 -8v-597q15 -52 49 -113 v-14l-13 -26v-26l7 -11v-4q-13 -10 -13 -32l-4 -4h-3l7 -26v-3l-10 -14v-49l-7 -11v-49l-6 -10v-34l6 -10l-13 -20v-3q13 0 13 -7v-6q0 -7 -10 -7l-3 -3v-7l39 -17l17 -19v-3l-3 -4v-4q5 0 13 -30l7 -5v-4l-14 -17h-13l-20 7v-3l40 -44l7 -13v-3l-34 -33h-16l-16 3l-7 -10 v-136l7 -7l23 -20l-7 -7l3 -3v-37l-6 -10v-3q10 -13 10 -43q9 0 23 -13h439l6 -7v-245l-6 -8h-462q-50 -14 -67 -48q-11 0 -17 -15v-2l7 -11v-26q0 -6 -24 -10q0 -14 -5 -14l-25 94l-1 2v34l-16 33v76l-1 24h-4l-10 -7h-7q-103 42 -103 59l-3 4v47l-7 10v47l-10 36l-3 3v24 l3 3v3l17 -3h3q16 12 27 33v163q-8 14 -60 40q0 42 -14 75v47q-6 7 -13 63l-3 4v57l-14 16v40q-21 35 -33 106zM2228 240v26q0 5 25 17h16q23 -12 23 -17v-26q-15 -24 -36 -24q-14 0 -28 24zM2558 387h7v5h-7v-5zM2604 702v7l14 13h6l7 -7v-13l-7 -6h-13zM2611 519v10l13 14 h14l13 -14v-14l-20 -13h-3zM2611 576v26l17 17h23q17 -17 32 -17l15 4q15 -16 30 -54v-3q0 -10 -41 -13l-4 -4q-30 20 -62 30zM2670 359v7l13 13h8l13 -13v-13l-6 -7h-15zM2678 632v23l22 24h28l16 -17v-37q0 -4 -23 -16h-21zM2717 389l21 20h6l20 -20l-13 -19h-21z M2725 522v14l9 9h13l10 -9v-17l-10 -10h-9zM1042 2242q0 21 27 39h13q30 0 40 -30v-19l-36 -30h-8q-36 17 -36 40zM1105 2417v7q8 19 27 27h13l23 -23v-11q-12 -23 -16 -23h-27q-6 0 -20 23zM1125 -97l7 9l-3 10q37 69 80 116h-8q71 -345 84 -345l6 10v249l-13 53v63l3 17 h-7q0 -10 -19 -17q-90 -92 -107 -142l-6 -20l-4 -3v-50l-6 -6l-7 6v50zM1148 510q14 7 14 21h90l9 6h20q0 10 10 10v947l7 6h23l99 4l8 6h39l10 -6q4 6 40 6q0 6 23 11l10 13l-6 9v12q0 8 16 9v20l7 6h36q11 0 24 10h16l13 -10h21l9 10l-13 24q8 7 8 23l22 13h24 q26 -9 26 -33l3 -3l-10 -13l4 -4h3q11 11 60 20l30 16h13l17 -13q14 12 75 23v7l-9 27q0 22 26 40h34q23 -15 37 -40v-10l-8 -11v-6l8 -7l9 7q0 -7 20 -13q0 -25 30 -36v-21h24l6 -6v-24l24 4h3q14 -8 14 -17l-34 -60l13 -13v-13l-4 -3v-4l8 -7v-23l-30 -40v-13l13 -17v-13 l-7 -9q25 -12 33 -30l4 -4v-9q-9 -22 -24 -31h-27q-26 16 -26 36q-29 0 -43 10h-36l-11 7h-16l-19 -20l22 -19v-14l-13 -13h-7q-6 0 -19 27l5 9h-16l-10 -9l13 -17v-13l-19 -20h-13q-9 2 -37 43v29q-83 24 -83 38q0 24 -17 32h-10l-13 -13v-2l7 -12v-3l-10 -10h-16l-8 8v22 h-30l-17 -13h-5l-24 13h-67l-9 -9v-56l-7 -11v-13l7 -10v-219l7 -11v-52l-7 -11v-119h345l7 -8v-249l-7 -5h-345v-87q16 -40 53 -89l-14 -11l4 -2v-8l-7 -9v-4l7 -9v-14l-4 -3v-4l10 -7h4l47 17q13 17 112 43q0 11 53 11h7l10 6h16l41 -14l2 -3v-14q-17 -28 -83 -59 l-153 -66l-22 -7l17 -20l-8 -6h-16v-17q8 -20 29 -44v-3l-16 -16l7 -7q-7 -5 -7 -39q-9 -4 -16 -37h-3l3 -4v-9q-14 -26 -17 -57l-3 -3v-57q0 -5 -37 -23l-16 -43v-37h13q5 6 76 21l3 2h87q59 -21 79 -52q15 -21 24 -51v-13l-3 -4v-2l6 -7v-14l-6 -6l3 -3v-17 q-34 -98 -122 -149q-74 -54 -249 -104q-36 -9 -84 -9l-23 22v11q0 31 56 53h13q34 -16 34 -33l-34 16h-20q-21 -9 -33 -26v-13l10 -17h37l79 20q37 16 50 16q0 5 47 17l70 34q64 30 136 115l23 70v20q-7 7 -16 57q-34 52 -96 52h-27q-71 0 -133 -22v-137l-7 -6h-259 q-7 0 -7 17q-148 336 -26 408l9 13v13l-6 11v49l-13 23v7l6 10v26l-17 27v11l8 9v24l-21 30l13 22v8q-6 26 -30 43v3l12 6q0 19 -78 83zM1211 38h3v8h-3v-8zM1244 1873v3l14 13h7l6 -6v-14l-6 -6h-10zM1252 1972v4q0 20 29 33h7q20 -10 30 -24v-29q-10 -14 -30 -24h-7 q-29 11 -29 40zM1401 1876v10l6 7h13l11 -10v-4l-14 -13h-6zM1613 1843v13q14 19 30 27h4q22 -12 22 -17v-23q-11 -21 -35 -21zM1623 315l14 -13v-31l-3 -2v-4l3 -4h16q28 19 59 27q46 23 91 36q0 9 46 24l40 36v4l-10 9h-50q-8 -5 -79 -22q-120 -44 -127 -60zM1650 1713v20 q7 22 31 30h13q25 -20 33 -36v-7q-10 -24 -28 -30l-2 -3h-20zM1656 2584v23q9 15 25 23h9q21 -10 30 -29v-11l-26 -23h-21zM1669 1660v6l8 -6h-8zM1681 1909v14q8 20 22 29h37l36 -16l10 -13v-14q0 -9 -40 -20l-9 -10h-34q-14 9 -22 30zM1711 2019v21l9 9h23q5 0 16 -23v-3 l-22 -25h-4q-22 14 -22 21zM1740 2088v14q0 6 23 20h3l20 -17h4q0 15 16 24h14l13 -14v-13l-13 -14h-14l-16 14q0 -10 -7 -10l3 -4v-3q-5 -13 -23 -13h-7zM1776 1713v7l20 20h7l13 -13v-14l-13 -13h-13zM1783 1979v6l10 11h10q6 0 10 -20l-13 -10h-4zM1813 2245v10l9 9h4 l13 -13v-13l-6 -6h-7zM1822 1749v25l27 26h24q0 13 6 13l-3 4v9l27 27h27q14 -9 22 -31v-13q-14 -35 -52 -35v-25l9 8h13l13 -14l-13 -13h-13q-13 6 -13 16h-4q0 -11 -26 -23h-17zM1822 2023v3q10 20 24 30h16q24 -13 24 -16v-28q0 -5 -24 -19h-13q-19 14 -27 30zM1876 2132 v13l13 14h7l13 -14v-10l-9 -10h-17zM1903 1909v17l10 13v43q9 30 39 30h4q17 0 33 -23v-30l-27 -46l3 -4v-20q0 -17 -13 -23h-20q-14 0 -14 30zM1962 1766v10q0 6 24 20q1 13 9 13h37q14 -8 24 -30v-5q-15 -34 -41 -34l-3 -4l-26 13q0 6 -24 17zM1992 1228v10l17 17h3 l16 -17v-10l-13 -13h-9zM2022 1289l10 5l4 -3v-2l-8 -8zM2045 1962v20l17 14l23 -20l-13 -20h-20zM2082 1830v17q6 15 33 29q26 -9 34 -23v-27q-11 -22 -34 -22q-27 8 -33 26zM2098 2072v7l7 6h4l10 -10v-6l-10 -11zM2128 2753v4l10 9h14l10 -9v-4l-13 -13h-8zM2149 2135 l9 10h4l6 -7l-14 -13zM2158 1378v26q13 24 37 24v19q0 5 23 17q0 -6 13 -6l7 -17q-10 -14 -10 -27l7 -20v-16l-23 -24h-30zM2158 1454v13l8 7h9l9 -10v-3l-13 -14h-5zM2171 1889v24q4 10 21 10h3l36 -34v-10q-2 -16 -9 -16h-24l-14 16q-13 0 -13 10zM2171 2457v7 q11 23 17 23h21l19 -19v-7q-14 -27 -19 -27h-14q-16 7 -24 23zM2175 1517l13 13h7l14 -13v-3l-11 -10h-10zM2212 1624v13q14 21 36 29h3q8 -6 24 -6l13 -23v-20q-6 -23 -33 -23h-20q-14 8 -23 30zM2231 1467v4l11 10h3l13 -14q0 -9 -13 -9q-14 4 -14 9zM2261 1508v22l16 17 h28q19 -13 19 -33v-4l-26 -26h-13q-17 7 -24 24zM2261 1707v16l10 10h10l17 -16v-10l-13 -13h-10zM2285 1664v9l7 7h23l13 -16l-10 -11h-24zM2285 2298v9q11 24 16 24h20l20 -20v-20q0 -4 -23 -15h-10q-16 6 -23 22zM2355 2371v7l13 13h9l11 -10v-13l-11 -10h-9zM-26 2242 q0 21 27 39h13q30 0 40 -30v-19l-36 -30h-8q-36 17 -36 40zM37 2417v7q8 19 27 27h13l23 -23v-11q-12 -23 -16 -23h-27q-6 0 -20 23zM57 -97l7 9l-3 10q37 69 80 116h-8q71 -345 84 -345l6 10v249l-13 53v63l3 17h-7q0 -10 -19 -17q-90 -92 -107 -142l-6 -20l-4 -3v-50 l-6 -6l-7 6v50zM80 510q14 7 14 21h90l9 6h20q0 10 10 10v947l7 6h23l99 4l8 6h39l10 -6q4 6 40 6q0 6 23 11l10 13l-6 9v12q0 8 16 9v20l7 6h36q11 0 24 10h16l13 -10h21l9 10l-13 24q8 7 8 23l22 13h24q26 -9 26 -33l3 -3l-10 -13l4 -4h3q11 11 60 20l30 16h13l17 -13 q14 12 75 23v7l-9 27q0 22 26 40h34q23 -15 37 -40v-10l-8 -11v-6l8 -7l9 7q0 -7 20 -13q0 -25 30 -36v-21h24l6 -6v-24l24 4h3q14 -8 14 -17l-34 -60l13 -13v-13l-4 -3v-4l8 -7v-23l-30 -40v-13l13 -17v-13l-7 -9q25 -12 33 -30l4 -4v-9q-9 -22 -24 -31h-27q-26 16 -26 36 q-29 0 -43 10h-36l-11 7h-16l-19 -20l22 -19v-14l-13 -13h-7q-6 0 -19 27l5 9h-16l-10 -9l13 -17v-13l-19 -20h-13q-9 2 -37 43v29q-83 24 -83 38q0 24 -17 32h-10l-13 -13v-2l7 -12v-3l-10 -10h-16l-8 8v22h-30l-17 -13h-5l-24 13h-67l-9 -9v-56l-7 -11v-13l7 -10v-219 l7 -11v-52l-7 -11v-119h345l7 -8v-249l-7 -5h-345v-87q16 -40 53 -89l-14 -11l4 -2v-8l-7 -9v-4l7 -9v-14l-4 -3v-4l10 -7h4l47 17q13 17 112 43q0 11 53 11h7l10 6h16l41 -14l2 -3v-14q-17 -28 -83 -59l-153 -66l-22 -7l17 -20l-8 -6h-16v-17q8 -20 29 -44v-3l-16 -16l7 -7 q-7 -5 -7 -39q-9 -4 -16 -37h-3l3 -4v-9q-14 -26 -17 -57l-3 -3v-57q0 -5 -37 -23l-16 -43v-37h13q5 6 76 21l3 2h87q59 -21 79 -52q15 -21 24 -51v-13l-3 -4v-2l6 -7v-14l-6 -6l3 -3v-17q-34 -98 -122 -149q-74 -54 -249 -104q-36 -9 -84 -9l-23 22v11q0 31 56 53h13 q34 -16 34 -33l-34 16h-20q-21 -9 -33 -26v-13l10 -17h37l79 20q37 16 50 16q0 5 47 17l70 34q64 30 136 115l23 70v20q-7 7 -16 57q-34 52 -96 52h-27q-71 0 -133 -22v-137l-7 -6h-259q-7 0 -7 17q-148 336 -26 408l9 13v13l-6 11v49l-13 23v7l6 10v26l-17 27v11l8 9v24 l-21 30l13 22v8q-6 26 -30 43v3l12 6q0 19 -78 83zM143 38h3v8h-3v-8zM176 1873v3l14 13h7l6 -6v-14l-6 -6h-10zM184 1972v4q0 20 29 33h7q20 -10 30 -24v-29q-10 -14 -30 -24h-7q-29 11 -29 40zM333 1876v10l6 7h13l11 -10v-4l-14 -13h-6zM545 1843v13q14 19 30 27h4 q22 -12 22 -17v-23q-11 -21 -35 -21zM555 315l14 -13v-31l-3 -2v-4l3 -4h16q28 19 59 27q46 23 91 36q0 9 46 24l40 36v4l-10 9h-50q-8 -5 -79 -22q-120 -44 -127 -60zM582 1713v20q7 22 31 30h13q25 -20 33 -36v-7q-10 -24 -28 -30l-2 -3h-20zM588 2584v23q9 15 25 23h9 q21 -10 30 -29v-11l-26 -23h-21zM601 1660v6l8 -6h-8zM613 1909v14q8 20 22 29h37l36 -16l10 -13v-14q0 -9 -40 -20l-9 -10h-34q-14 9 -22 30zM643 2019v21l9 9h23q5 0 16 -23v-3l-22 -25h-4q-22 14 -22 21zM672 2088v14q0 6 23 20h3l20 -17h4q0 15 16 24h14l13 -14v-13 l-13 -14h-14l-16 14q0 -10 -7 -10l3 -4v-3q-5 -13 -23 -13h-7zM708 1713v7l20 20h7l13 -13v-14l-13 -13h-13zM715 1979v6l10 11h10q6 0 10 -20l-13 -10h-4zM745 2245v10l9 9h4l13 -13v-13l-6 -6h-7zM754 1749v25l27 26h24q0 13 6 13l-3 4v9l27 27h27q14 -9 22 -31v-13 q-14 -35 -52 -35v-25l9 8h13l13 -14l-13 -13h-13q-13 6 -13 16h-4q0 -11 -26 -23h-17zM754 2023v3q10 20 24 30h16q24 -13 24 -16v-28q0 -5 -24 -19h-13q-19 14 -27 30zM808 2132v13l13 14h7l13 -14v-10l-9 -10h-17zM835 1909v17l10 13v43q9 30 39 30h4q17 0 33 -23v-30 l-27 -46l3 -4v-20q0 -17 -13 -23h-20q-14 0 -14 30zM894 1766v10q0 6 24 20q1 13 9 13h37q14 -8 24 -30v-5q-15 -34 -41 -34l-3 -4l-26 13q0 6 -24 17zM924 1228v10l17 17h3l16 -17v-10l-13 -13h-9zM954 1289l10 5l4 -3v-2l-8 -8zM977 1962v20l17 14l23 -20l-13 -20h-20z M1014 1830v17q6 15 33 29q26 -9 34 -23v-27q-11 -22 -34 -22q-27 8 -33 26zM1030 2072v7l7 6h4l10 -10v-6l-10 -11zM1060 2753v4l10 9h14l10 -9v-4l-13 -13h-8zM1081 2135l9 10h4l6 -7l-14 -13zM1090 1378v26q13 24 37 24v19q0 5 23 17q0 -6 13 -6l7 -17q-10 -14 -10 -27 l7 -20v-16l-23 -24h-30zM1090 1454v13l8 7h9l9 -10v-3l-13 -14h-5zM1103 1889v24q4 10 21 10h3l36 -34v-10q-2 -16 -9 -16h-24l-14 16q-13 0 -13 10zM1103 2457v7q11 23 17 23h21l19 -19v-7q-14 -27 -19 -27h-14q-16 7 -24 23zM1107 1517l13 13h7l14 -13v-3l-11 -10h-10z M1144 1624v13q14 21 36 29h3q8 -6 24 -6l13 -23v-20q-6 -23 -33 -23h-20q-14 8 -23 30zM1163 1467v4l11 10h3l13 -14q0 -9 -13 -9q-14 4 -14 9zM1193 1508v22l16 17h28q19 -13 19 -33v-4l-26 -26h-13q-17 7 -24 24zM1193 1707v16l10 10h10l17 -16v-10l-13 -13h-10z M1217 1664v9l7 7h23l13 -16l-10 -11h-24zM1217 2298v9q11 24 16 24h20l20 -20v-20q0 -4 -23 -15h-10q-16 6 -23 22zM1287 2371v7l13 13h9l11 -10v-13l-11 -10h-9z" />
</font>
</defs>
</svg>
